M48
; DRILL file {KiCad (6.0.0)} date Sun Mar 13 18:37:59 2022
; FORMAT={-:-/ absolute / metric / decimal}
; #@! TF.CreationDate,2022-03-13T18:37:59-04:00
; #@! TF.GenerationSoftware,Kicad,Pcbnew,(6.0.0)
; #@! TF.FileFunction,Plated,1,2,PTH
FMAT,2
METRIC
; #@! TA.AperFunction,Plated,PTH,ViaDrill
T1C0.400
; #@! TA.AperFunction,Plated,PTH,ComponentDrill
T2C0.800
; #@! TA.AperFunction,Plated,PTH,ComponentDrill
T3C1.000
%
G90
G05
T1
X111.836Y-101.6
X111.887Y-106.68
X111.938Y-104.14
X112.039Y-91.44
X112.039Y-99.06
X112.065Y-109.22
X112.166Y-96.52
X112.243Y-93.98
X112.395Y-85.725
X113.64Y-83.718
X113.716Y-81.966
X114.491Y-85.0
X118.313Y-115.087
X120.091Y-115.087
X125.933Y-96.52
X126.009Y-91.44
X126.009Y-93.98
X126.06Y-99.06
X126.086Y-88.9
X126.136Y-101.6
X126.136Y-104.14
X126.238Y-106.68
T2
X109.845Y-88.895
X109.845Y-91.435
X109.845Y-93.975
X109.845Y-96.515
X109.845Y-99.055
X109.845Y-101.595
X109.845Y-104.135
X109.845Y-106.675
X109.845Y-109.215
X109.845Y-111.755
X117.465Y-88.895
X117.465Y-91.435
X117.465Y-93.975
X117.465Y-96.515
X117.465Y-99.055
X117.465Y-101.595
X117.465Y-104.135
X117.465Y-106.675
X117.465Y-109.215
X117.465Y-111.755
X121.275Y-88.895
X121.275Y-91.435
X121.275Y-93.975
X121.275Y-96.515
X121.275Y-99.055
X121.275Y-101.595
X121.275Y-104.135
X121.275Y-106.675
X121.275Y-109.215
X121.275Y-111.755
X128.895Y-88.895
X128.895Y-91.435
X128.895Y-93.975
X128.895Y-96.515
X128.895Y-99.055
X128.895Y-101.595
X128.895Y-104.135
X128.895Y-106.675
X128.895Y-109.215
X128.895Y-111.755
T3
X96.51Y-118.815
X99.05Y-118.815
X101.59Y-118.815
X104.13Y-118.815
X104.14Y-88.9
X104.14Y-91.44
X104.14Y-93.98
X104.14Y-96.52
X104.14Y-99.06
X104.14Y-101.6
X104.14Y-104.14
X104.14Y-106.68
X104.14Y-109.22
X104.14Y-111.76
X106.67Y-118.815
X106.68Y-88.9
X106.68Y-91.44
X106.68Y-93.98
X106.68Y-96.52
X106.68Y-99.06
X106.68Y-101.6
X106.68Y-104.14
X106.68Y-106.68
X106.68Y-109.22
X106.68Y-111.76
X109.21Y-118.815
X111.75Y-118.815
X114.29Y-118.815
X116.83Y-118.815
X119.37Y-118.815
X121.91Y-118.815
X124.45Y-118.815
X126.99Y-118.815
X129.53Y-118.815
X132.07Y-118.815
X132.08Y-88.9
X132.08Y-91.44
X132.08Y-93.98
X132.08Y-96.52
X132.08Y-99.06
X132.08Y-101.6
X132.08Y-104.14
X132.08Y-106.68
X132.08Y-109.22
X132.08Y-111.76
X134.61Y-118.815
X134.62Y-88.9
X134.62Y-91.44
X134.62Y-93.98
X134.62Y-96.52
X134.62Y-99.06
X134.62Y-101.6
X134.62Y-104.14
X134.62Y-106.68
X134.62Y-109.22
X134.62Y-111.76
X137.15Y-118.815
X139.69Y-118.815
T0
M30
