%TF.GenerationSoftware,KiCad,Pcbnew,(6.0.0)*%
%TF.CreationDate,2022-03-13T18:37:57-04:00*%
%TF.ProjectId,buffer PCB,62756666-6572-4205-9043-422e6b696361,rev?*%
%TF.SameCoordinates,Original*%
%TF.FileFunction,Copper,L1,Top*%
%TF.FilePolarity,Positive*%
%FSLAX46Y46*%
G04 Gerber Fmt 4.6, Leading zero omitted, Abs format (unit mm)*
G04 Created by KiCad (PCBNEW (6.0.0)) date 2022-03-13 18:37:57*
%MOMM*%
%LPD*%
G01*
G04 APERTURE LIST*
%TA.AperFunction,ComponentPad*%
%ADD10R,1.700000X1.700000*%
%TD*%
%TA.AperFunction,ComponentPad*%
%ADD11O,1.700000X1.700000*%
%TD*%
%TA.AperFunction,ComponentPad*%
%ADD12R,1.600000X1.600000*%
%TD*%
%TA.AperFunction,ComponentPad*%
%ADD13O,1.600000X1.600000*%
%TD*%
%TA.AperFunction,ViaPad*%
%ADD14C,0.800000*%
%TD*%
%TA.AperFunction,Conductor*%
%ADD15C,1.000000*%
%TD*%
%TA.AperFunction,Conductor*%
%ADD16C,0.250000*%
%TD*%
G04 APERTURE END LIST*
D10*
%TO.P,J3,1,Pin_1*%
%TO.N,GND*%
X116830000Y-118815000D03*
D11*
%TO.P,J3,2,Pin_2*%
%TO.N,Net-(R16-Pad2)*%
X114290000Y-118815000D03*
%TO.P,J3,3,Pin_3*%
%TO.N,Net-(R15-Pad2)*%
X111750000Y-118815000D03*
%TO.P,J3,4,Pin_4*%
%TO.N,Net-(R14-Pad2)*%
X109210000Y-118815000D03*
%TO.P,J3,5,Pin_5*%
%TO.N,Net-(R13-Pad2)*%
X106670000Y-118815000D03*
%TO.P,J3,6,Pin_6*%
%TO.N,Net-(R12-Pad2)*%
X104130000Y-118815000D03*
%TO.P,J3,7,Pin_7*%
%TO.N,Net-(R11-Pad2)*%
X101590000Y-118815000D03*
%TO.P,J3,8,Pin_8*%
%TO.N,Net-(R10-Pad2)*%
X99050000Y-118815000D03*
%TO.P,J3,9,Pin_9*%
%TO.N,Net-(R9-Pad2)*%
X96510000Y-118815000D03*
%TD*%
D10*
%TO.P,J2,1,Pin_1*%
%TO.N,Net-(J2-Pad1)*%
X139690000Y-118815000D03*
D11*
%TO.P,J2,2,Pin_2*%
%TO.N,Net-(J2-Pad2)*%
X137150000Y-118815000D03*
%TO.P,J2,3,Pin_3*%
%TO.N,Net-(J2-Pad3)*%
X134610000Y-118815000D03*
%TO.P,J2,4,Pin_4*%
%TO.N,Net-(J2-Pad4)*%
X132070000Y-118815000D03*
%TO.P,J2,5,Pin_5*%
%TO.N,Net-(J2-Pad5)*%
X129530000Y-118815000D03*
%TO.P,J2,6,Pin_6*%
%TO.N,Net-(J2-Pad6)*%
X126990000Y-118815000D03*
%TO.P,J2,7,Pin_7*%
%TO.N,Net-(J2-Pad7)*%
X124450000Y-118815000D03*
%TO.P,J2,8,Pin_8*%
%TO.N,Net-(J2-Pad8)*%
X121910000Y-118815000D03*
%TO.P,J2,9,Pin_9*%
%TO.N,GND*%
X119370000Y-118815000D03*
%TD*%
D12*
%TO.P,U1,1,A->B*%
%TO.N,GND*%
X128895000Y-111755000D03*
D13*
%TO.P,U1,2,A0*%
%TO.N,/PD7*%
X128895000Y-109215000D03*
%TO.P,U1,3,A1*%
%TO.N,/PD6*%
X128895000Y-106675000D03*
%TO.P,U1,4,A2*%
%TO.N,/PD5*%
X128895000Y-104135000D03*
%TO.P,U1,5,A3*%
%TO.N,/PD4*%
X128895000Y-101595000D03*
%TO.P,U1,6,A4*%
%TO.N,/PD3*%
X128895000Y-99055000D03*
%TO.P,U1,7,A5*%
%TO.N,/PD2*%
X128895000Y-96515000D03*
%TO.P,U1,8,A6*%
%TO.N,/PD1*%
X128895000Y-93975000D03*
%TO.P,U1,9,A7*%
%TO.N,/PD0*%
X128895000Y-91435000D03*
%TO.P,U1,10,GND*%
%TO.N,GND*%
X128895000Y-88895000D03*
%TO.P,U1,11,B7*%
%TO.N,Net-(R8-Pad1)*%
X121275000Y-88895000D03*
%TO.P,U1,12,B6*%
%TO.N,Net-(R7-Pad1)*%
X121275000Y-91435000D03*
%TO.P,U1,13,B5*%
%TO.N,Net-(R6-Pad1)*%
X121275000Y-93975000D03*
%TO.P,U1,14,B4*%
%TO.N,Net-(R5-Pad1)*%
X121275000Y-96515000D03*
%TO.P,U1,15,B3*%
%TO.N,Net-(R4-Pad1)*%
X121275000Y-99055000D03*
%TO.P,U1,16,B2*%
%TO.N,Net-(R3-Pad1)*%
X121275000Y-101595000D03*
%TO.P,U1,17,B1*%
%TO.N,Net-(R2-Pad1)*%
X121275000Y-104135000D03*
%TO.P,U1,18,B0*%
%TO.N,Net-(R1-Pad1)*%
X121275000Y-106675000D03*
%TO.P,U1,19,CE*%
%TO.N,GND*%
X121275000Y-109215000D03*
%TO.P,U1,20,VCC*%
%TO.N,+3V3*%
X121275000Y-111755000D03*
%TD*%
D10*
%TO.P,J1,1,Pin_1*%
%TO.N,/PD5*%
X104140000Y-88900000D03*
D11*
%TO.P,J1,2,Pin_2*%
%TO.N,/PD6*%
X106680000Y-88900000D03*
%TO.P,J1,3,Pin_3*%
%TO.N,/PD7*%
X104140000Y-91440000D03*
%TO.P,J1,4,Pin_4*%
%TO.N,GND*%
X106680000Y-91440000D03*
%TO.P,J1,5,Pin_5*%
%TO.N,/CLK*%
X104140000Y-93980000D03*
%TO.P,J1,6,Pin_6*%
%TO.N,GND*%
X106680000Y-93980000D03*
%TO.P,J1,7,Pin_7*%
%TO.N,/RDY0*%
X104140000Y-96520000D03*
%TO.P,J1,8,Pin_8*%
%TO.N,/RDY1*%
X106680000Y-96520000D03*
%TO.P,J1,9,Pin_9*%
%TO.N,GND*%
X104140000Y-99060000D03*
%TO.P,J1,10,Pin_10*%
X106680000Y-99060000D03*
%TO.P,J1,11,Pin_11*%
X104140000Y-101600000D03*
%TO.P,J1,12,Pin_12*%
%TO.N,/FCLK*%
X106680000Y-101600000D03*
%TO.P,J1,13,Pin_13*%
%TO.N,/SCL*%
X104140000Y-104140000D03*
%TO.P,J1,14,Pin_14*%
%TO.N,/SDA*%
X106680000Y-104140000D03*
%TO.P,J1,15,Pin_15*%
%TO.N,/PB0*%
X104140000Y-106680000D03*
%TO.P,J1,16,Pin_16*%
%TO.N,/PB1*%
X106680000Y-106680000D03*
%TO.P,J1,17,Pin_17*%
%TO.N,/PB2*%
X104140000Y-109220000D03*
%TO.P,J1,18,Pin_18*%
%TO.N,/PB3*%
X106680000Y-109220000D03*
%TO.P,J1,19,Pin_19*%
%TO.N,+3V3*%
X104140000Y-111760000D03*
%TO.P,J1,20,Pin_20*%
X106680000Y-111760000D03*
%TD*%
D10*
%TO.P,J4,1,Pin_1*%
%TO.N,/PD4*%
X132080000Y-88900000D03*
D11*
%TO.P,J4,2,Pin_2*%
%TO.N,/PD3*%
X134620000Y-88900000D03*
%TO.P,J4,3,Pin_3*%
%TO.N,/PD2*%
X132080000Y-91440000D03*
%TO.P,J4,4,Pin_4*%
%TO.N,/PD1*%
X134620000Y-91440000D03*
%TO.P,J4,5,Pin_5*%
%TO.N,/PD0*%
X132080000Y-93980000D03*
%TO.P,J4,6,Pin_6*%
%TO.N,/PA7*%
X134620000Y-93980000D03*
%TO.P,J4,7,Pin_7*%
%TO.N,/PA6*%
X132080000Y-96520000D03*
%TO.P,J4,8,Pin_8*%
%TO.N,/PA5*%
X134620000Y-96520000D03*
%TO.P,J4,9,Pin_9*%
%TO.N,/PA4*%
X132080000Y-99060000D03*
%TO.P,J4,10,Pin_10*%
%TO.N,/PA3*%
X134620000Y-99060000D03*
%TO.P,J4,11,Pin_11*%
%TO.N,/PA2*%
X132080000Y-101600000D03*
%TO.P,J4,12,Pin_12*%
%TO.N,/PA1*%
X134620000Y-101600000D03*
%TO.P,J4,13,Pin_13*%
%TO.N,/PA0*%
X132080000Y-104140000D03*
%TO.P,J4,14,Pin_14*%
%TO.N,/CTL2*%
X134620000Y-104140000D03*
%TO.P,J4,15,Pin_15*%
%TO.N,/CTL1*%
X132080000Y-106680000D03*
%TO.P,J4,16,Pin_16*%
%TO.N,/CTL0*%
X134620000Y-106680000D03*
%TO.P,J4,17,Pin_17*%
%TO.N,/PB7*%
X132080000Y-109220000D03*
%TO.P,J4,18,Pin_18*%
%TO.N,/PB6*%
X134620000Y-109220000D03*
%TO.P,J4,19,Pin_19*%
%TO.N,/PB5*%
X132080000Y-111760000D03*
%TO.P,J4,20,Pin_20*%
%TO.N,/PB4*%
X134620000Y-111760000D03*
%TD*%
D12*
%TO.P,U2,1,A->B*%
%TO.N,+3V3*%
X117465000Y-111755000D03*
D13*
%TO.P,U2,2,A0*%
%TO.N,Net-(R9-Pad1)*%
X117465000Y-109215000D03*
%TO.P,U2,3,A1*%
%TO.N,Net-(R10-Pad1)*%
X117465000Y-106675000D03*
%TO.P,U2,4,A2*%
%TO.N,Net-(R11-Pad1)*%
X117465000Y-104135000D03*
%TO.P,U2,5,A3*%
%TO.N,Net-(R12-Pad1)*%
X117465000Y-101595000D03*
%TO.P,U2,6,A4*%
%TO.N,Net-(R13-Pad1)*%
X117465000Y-99055000D03*
%TO.P,U2,7,A5*%
%TO.N,Net-(R14-Pad1)*%
X117465000Y-96515000D03*
%TO.P,U2,8,A6*%
%TO.N,Net-(R15-Pad1)*%
X117465000Y-93975000D03*
%TO.P,U2,9,A7*%
%TO.N,Net-(R16-Pad1)*%
X117465000Y-91435000D03*
%TO.P,U2,10,GND*%
%TO.N,GND*%
X117465000Y-88895000D03*
%TO.P,U2,11,B7*%
%TO.N,/PB7*%
X109845000Y-88895000D03*
%TO.P,U2,12,B6*%
%TO.N,/PB6*%
X109845000Y-91435000D03*
%TO.P,U2,13,B5*%
%TO.N,/PB5*%
X109845000Y-93975000D03*
%TO.P,U2,14,B4*%
%TO.N,/PB4*%
X109845000Y-96515000D03*
%TO.P,U2,15,B3*%
%TO.N,/PB3*%
X109845000Y-99055000D03*
%TO.P,U2,16,B2*%
%TO.N,/PB2*%
X109845000Y-101595000D03*
%TO.P,U2,17,B1*%
%TO.N,/PB1*%
X109845000Y-104135000D03*
%TO.P,U2,18,B0*%
%TO.N,/PB0*%
X109845000Y-106675000D03*
%TO.P,U2,19,CE*%
%TO.N,GND*%
X109845000Y-109215000D03*
%TO.P,U2,20,VCC*%
%TO.N,+3V3*%
X109845000Y-111755000D03*
%TD*%
D14*
%TO.N,+3V3*%
X118313200Y-115087400D03*
X120091200Y-115087400D03*
%TO.N,/PD5*%
X113639600Y-83718400D03*
%TO.N,/PD6*%
X114491111Y-85000489D03*
%TO.N,/PD7*%
X113715800Y-81965800D03*
%TO.N,Net-(J2-Pad2)*%
X126136400Y-104140000D03*
%TO.N,Net-(J2-Pad3)*%
X126136400Y-101600000D03*
%TO.N,Net-(J2-Pad4)*%
X126060200Y-99060000D03*
%TO.N,Net-(J2-Pad5)*%
X125933200Y-96520000D03*
%TO.N,Net-(J2-Pad6)*%
X126009400Y-93980000D03*
%TO.N,Net-(J2-Pad7)*%
X126009400Y-91440000D03*
%TO.N,Net-(J2-Pad8)*%
X126085600Y-88900000D03*
%TO.N,/PB4*%
X112395000Y-85725000D03*
%TO.N,Net-(R10-Pad2)*%
X111887000Y-106680000D03*
%TO.N,Net-(R11-Pad2)*%
X111937800Y-104140000D03*
%TO.N,Net-(R12-Pad2)*%
X111836200Y-101600000D03*
%TO.N,Net-(R13-Pad2)*%
X112039400Y-99060000D03*
%TO.N,Net-(J2-Pad1)*%
X126238000Y-106680000D03*
%TO.N,Net-(R16-Pad2)*%
X112039400Y-91440000D03*
%TO.N,Net-(R15-Pad2)*%
X112242600Y-93980000D03*
%TO.N,Net-(R14-Pad2)*%
X112166400Y-96520000D03*
%TO.N,Net-(R9-Pad2)*%
X112064800Y-109220000D03*
%TD*%
D15*
%TO.N,+3V3*%
X118313200Y-115087400D02*
X120091200Y-115087400D01*
D16*
%TO.N,/PD5*%
X113229499Y-80791769D02*
X112471200Y-81550068D01*
X127770489Y-87366269D02*
X121195989Y-80791769D01*
X112471200Y-81550068D02*
X112471200Y-82550000D01*
X127770489Y-103010489D02*
X127770489Y-87366269D01*
X128895000Y-104135000D02*
X127770489Y-103010489D01*
X121195989Y-80791769D02*
X113229499Y-80791769D01*
X112471200Y-82550000D02*
X113639600Y-83718400D01*
%TO.N,/PD6*%
X127320969Y-87552466D02*
X121009792Y-81241289D01*
X121009792Y-81241289D02*
X113415697Y-81241289D01*
X112979200Y-81677786D02*
X112979200Y-82253814D01*
X112979200Y-82253814D02*
X113415697Y-82690311D01*
X113415697Y-82690311D02*
X114210489Y-82690311D01*
X127320969Y-105100969D02*
X127320969Y-87552466D01*
X113415697Y-81241289D02*
X112979200Y-81677786D01*
X128895000Y-106675000D02*
X127320969Y-105100969D01*
X114210489Y-82690311D02*
X114491111Y-82970933D01*
X114491111Y-82970933D02*
X114491111Y-85000489D01*
%TO.N,/PD7*%
X126871449Y-87738663D02*
X126871449Y-106241749D01*
X126871449Y-106241749D02*
X128895000Y-108265300D01*
X121098586Y-81965800D02*
X113715800Y-81965800D01*
X126871449Y-87738663D02*
X121098586Y-81965800D01*
X128895000Y-108265300D02*
X128895000Y-109215000D01*
%TO.N,/PB2*%
X107950000Y-109611010D02*
X107950000Y-103490000D01*
X104140000Y-109220000D02*
X105314511Y-110394511D01*
X107950000Y-103490000D02*
X109845000Y-101595000D01*
X105314511Y-110394511D02*
X107166499Y-110394511D01*
X107166499Y-110394511D02*
X107950000Y-109611010D01*
%TO.N,/PB3*%
X105505489Y-108045489D02*
X105505489Y-103558012D01*
X106288990Y-102774511D02*
X107166499Y-102774511D01*
X106680000Y-109220000D02*
X105505489Y-108045489D01*
X107166499Y-102774511D02*
X108720489Y-101220521D01*
X108720489Y-100179511D02*
X109845000Y-99055000D01*
X108720489Y-101220521D02*
X108720489Y-100179511D01*
X105505489Y-103558012D02*
X106288990Y-102774511D01*
%TO.N,Net-(J2-Pad2)*%
X126136400Y-104140000D02*
X125513489Y-104762911D01*
X130335521Y-112879511D02*
X132070405Y-114614395D01*
X125513489Y-104762911D02*
X125513489Y-110622511D01*
X127770489Y-112879511D02*
X130335521Y-112879511D01*
X125513489Y-110622511D02*
X127770489Y-112879511D01*
X132949395Y-114614395D02*
X137150000Y-118815000D01*
X132070405Y-114614395D02*
X132949395Y-114614395D01*
%TO.N,Net-(J2-Pad3)*%
X134610000Y-117789708D02*
X134610000Y-118815000D01*
X127578431Y-113329031D02*
X130149323Y-113329031D01*
X125063969Y-110814569D02*
X127578431Y-113329031D01*
X125063969Y-102672431D02*
X125063969Y-110814569D01*
X130149323Y-113329031D02*
X134610000Y-117789708D01*
X126136400Y-101600000D02*
X125063969Y-102672431D01*
%TO.N,Net-(J2-Pad4)*%
X124614449Y-111000766D02*
X127392234Y-113778551D01*
X124614449Y-100505751D02*
X124614449Y-111000766D01*
X132070000Y-115885426D02*
X132070000Y-118815000D01*
X127392234Y-113778551D02*
X129963125Y-113778551D01*
X129963125Y-113778551D02*
X132070000Y-115885426D01*
X126060200Y-99060000D02*
X124614449Y-100505751D01*
%TO.N,Net-(J2-Pad5)*%
X124164929Y-111210929D02*
X129530000Y-116576000D01*
X124164929Y-98288271D02*
X124164929Y-111210929D01*
X129530000Y-116576000D02*
X129530000Y-118815000D01*
X125933200Y-96520000D02*
X124164929Y-98288271D01*
%TO.N,Net-(J2-Pad6)*%
X123715409Y-111397127D02*
X126990000Y-114671718D01*
X126009400Y-93980000D02*
X123715409Y-96273991D01*
X123715409Y-96273991D02*
X123715409Y-111397127D01*
X126990000Y-114671718D02*
X126990000Y-118815000D01*
%TO.N,Net-(J2-Pad7)*%
X124450000Y-112963800D02*
X123265889Y-111779689D01*
X123265889Y-111779689D02*
X123265889Y-94183511D01*
X123265889Y-94183511D02*
X126009400Y-91440000D01*
X124450000Y-118815000D02*
X124450000Y-112963800D01*
%TO.N,Net-(J2-Pad8)*%
X126085600Y-88900000D02*
X122816369Y-92169231D01*
X122816369Y-92169231D02*
X122816369Y-117908631D01*
X122816369Y-117908631D02*
X121910000Y-118815000D01*
%TO.N,/PD4*%
X136244031Y-88619031D02*
X136244031Y-99340969D01*
X136244031Y-99340969D02*
X135159511Y-100425489D01*
X133254511Y-87725489D02*
X135350489Y-87725489D01*
X135159511Y-100425489D02*
X130064511Y-100425489D01*
X132080000Y-88900000D02*
X133254511Y-87725489D01*
X130064511Y-100425489D02*
X128895000Y-101595000D01*
X135350489Y-87725489D02*
X136244031Y-88619031D01*
%TO.N,/PD3*%
X135794511Y-97006499D02*
X135011010Y-97790000D01*
X135794511Y-90074511D02*
X135794511Y-97006499D01*
X130160000Y-97790000D02*
X128895000Y-99055000D01*
X135011010Y-97790000D02*
X130160000Y-97790000D01*
X134620000Y-88900000D02*
X135794511Y-90074511D01*
%TO.N,/PD2*%
X130019511Y-93500489D02*
X130019511Y-95390489D01*
X130019511Y-95390489D02*
X128895000Y-96515000D01*
X132080000Y-91440000D02*
X130019511Y-93500489D01*
%TO.N,/PD0*%
X130064511Y-90265489D02*
X132810489Y-90265489D01*
X133254511Y-90709511D02*
X133254511Y-92805489D01*
X128895000Y-91435000D02*
X130064511Y-90265489D01*
X132810489Y-90265489D02*
X133254511Y-90709511D01*
X133254511Y-92805489D02*
X132080000Y-93980000D01*
%TO.N,/PB4*%
X109845000Y-96515000D02*
X110969511Y-95390489D01*
X110969511Y-95390489D02*
X110969511Y-87150489D01*
X110969511Y-87150489D02*
X112395000Y-85725000D01*
%TO.N,Net-(R10-Pad2)*%
X99050000Y-116910718D02*
X99050000Y-118815000D01*
X112789311Y-107582311D02*
X112789311Y-110400989D01*
X111887000Y-106680000D02*
X112789311Y-107582311D01*
X109786980Y-113403320D02*
X102557398Y-113403320D01*
X112789311Y-110400989D02*
X109786980Y-113403320D01*
X102557398Y-113403320D02*
X99050000Y-116910718D01*
%TO.N,Net-(R11-Pad2)*%
X109973177Y-113852840D02*
X104673400Y-113852840D01*
X104673400Y-113852840D02*
X101590000Y-116936240D01*
X113238831Y-105441031D02*
X113238831Y-110587186D01*
X111937800Y-104140000D02*
X113238831Y-105441031D01*
X113238831Y-110587186D02*
X109973177Y-113852840D01*
X101590000Y-116936240D02*
X101590000Y-118815000D01*
%TO.N,Net-(R12-Pad2)*%
X104130000Y-117080960D02*
X104130000Y-118815000D01*
X106908600Y-114302360D02*
X104130000Y-117080960D01*
X113688351Y-103452151D02*
X113688351Y-110773383D01*
X111836200Y-101600000D02*
X113688351Y-103452151D01*
X110159374Y-114302360D02*
X106908600Y-114302360D01*
X113688351Y-110773383D02*
X110159374Y-114302360D01*
%TO.N,Net-(R13-Pad2)*%
X106670000Y-116971680D02*
X106670000Y-118815000D01*
X112039400Y-99060000D02*
X114137871Y-101158471D01*
X114137871Y-101158471D02*
X114137871Y-110959580D01*
X108889800Y-114751880D02*
X106670000Y-116971680D01*
X114137871Y-110959580D02*
X110345571Y-114751880D01*
X110345571Y-114751880D02*
X108889800Y-114751880D01*
%TO.N,Net-(J2-Pad1)*%
X134506905Y-113631905D02*
X139690000Y-118815000D01*
X132290895Y-113631905D02*
X134506905Y-113631905D01*
X126238000Y-108148300D02*
X128720189Y-110630489D01*
X130019511Y-111360521D02*
X132290895Y-113631905D01*
X126238000Y-106680000D02*
X126238000Y-108148300D01*
X128720189Y-110630489D02*
X130019511Y-110630489D01*
X130019511Y-110630489D02*
X130019511Y-111360521D01*
%TO.N,Net-(R16-Pad2)*%
X115486431Y-94887031D02*
X112039400Y-91440000D01*
X114290000Y-112999862D02*
X115486431Y-111803431D01*
X115486431Y-111803431D02*
X115486431Y-94887031D01*
X114290000Y-118815000D02*
X114290000Y-112999862D01*
%TO.N,Net-(R15-Pad2)*%
X115036911Y-96774311D02*
X115036911Y-111331975D01*
X112242600Y-93980000D02*
X115036911Y-96774311D01*
X111750000Y-114618886D02*
X111750000Y-118815000D01*
X115036911Y-111331975D02*
X111750000Y-114618886D01*
%TO.N,Net-(R14-Pad2)*%
X114587391Y-111145777D02*
X109210000Y-116523168D01*
X109210000Y-116523168D02*
X109210000Y-118815000D01*
X112166400Y-96520000D02*
X114587391Y-98940991D01*
X114587391Y-98940991D02*
X114587391Y-111145777D01*
%TO.N,Net-(R9-Pad2)*%
X109670189Y-110339511D02*
X110945289Y-110339511D01*
X112064800Y-109220000D02*
X110945289Y-110339511D01*
X102371200Y-112953800D02*
X96510000Y-118815000D01*
X108323305Y-111777705D02*
X107147210Y-112953800D01*
X108323305Y-111686395D02*
X109670189Y-110339511D01*
X108323305Y-111777705D02*
X108323305Y-111686395D01*
X107147210Y-112953800D02*
X102371200Y-112953800D01*
%TD*%
%TA.AperFunction,Conductor*%
%TO.N,GND*%
G36*
X103032361Y-68458364D02*
G01*
X103325828Y-68492666D01*
X103340258Y-68495210D01*
X103627768Y-68563351D01*
X103641805Y-68567554D01*
X103919446Y-68668607D01*
X103932900Y-68674410D01*
X104196942Y-68807017D01*
X104209631Y-68814343D01*
X104456492Y-68976705D01*
X104468245Y-68985456D01*
X104694583Y-69175377D01*
X104705241Y-69185431D01*
X104908004Y-69400346D01*
X104917422Y-69411570D01*
X105093872Y-69648585D01*
X105101913Y-69660811D01*
X105104748Y-69665721D01*
X105249649Y-69916698D01*
X105256224Y-69929791D01*
X105328545Y-70097447D01*
X105373252Y-70201090D01*
X105378264Y-70214859D01*
X105463006Y-70497917D01*
X105466385Y-70512174D01*
X105517693Y-70803153D01*
X105519394Y-70817707D01*
X105534540Y-71077776D01*
X105533254Y-71104480D01*
X105531814Y-71113730D01*
X105532978Y-71122632D01*
X105532978Y-71122635D01*
X105535936Y-71145251D01*
X105537000Y-71161589D01*
X105537000Y-76146793D01*
X105535254Y-76167697D01*
X105531929Y-76187461D01*
X105531776Y-76200000D01*
X105532465Y-76204808D01*
X105532465Y-76204813D01*
X105532614Y-76205851D01*
X105533715Y-76217122D01*
X105549537Y-76519040D01*
X105599515Y-76834585D01*
X105682202Y-77143176D01*
X105796692Y-77441435D01*
X105798190Y-77444375D01*
X105896257Y-77636841D01*
X105941732Y-77726091D01*
X106115732Y-77994028D01*
X106316786Y-78242309D01*
X106542691Y-78468214D01*
X106790972Y-78669268D01*
X107058909Y-78843268D01*
X107061843Y-78844763D01*
X107061850Y-78844767D01*
X107340625Y-78986810D01*
X107343565Y-78988308D01*
X107641824Y-79102798D01*
X107950415Y-79185485D01*
X108117934Y-79212018D01*
X108262712Y-79234949D01*
X108262720Y-79234950D01*
X108265960Y-79235463D01*
X108406926Y-79242851D01*
X108551921Y-79250450D01*
X108566221Y-79252022D01*
X108567656Y-79252263D01*
X108567660Y-79252263D01*
X108572461Y-79253071D01*
X108578816Y-79253149D01*
X108580141Y-79253165D01*
X108580145Y-79253165D01*
X108585000Y-79253224D01*
X108612588Y-79249273D01*
X108630451Y-79248000D01*
X130121793Y-79248000D01*
X130142697Y-79249746D01*
X130162461Y-79253071D01*
X130168819Y-79253149D01*
X130170142Y-79253165D01*
X130170146Y-79253165D01*
X130175000Y-79253224D01*
X130179808Y-79252535D01*
X130179813Y-79252535D01*
X130180851Y-79252386D01*
X130192122Y-79251285D01*
X130494040Y-79235463D01*
X130497280Y-79234950D01*
X130497288Y-79234949D01*
X130642066Y-79212018D01*
X130809585Y-79185485D01*
X131118176Y-79102798D01*
X131416435Y-78988308D01*
X131419375Y-78986810D01*
X131698150Y-78844767D01*
X131698157Y-78844763D01*
X131701091Y-78843268D01*
X131969028Y-78669268D01*
X132217309Y-78468214D01*
X132443214Y-78242309D01*
X132644268Y-77994028D01*
X132818268Y-77726091D01*
X132863744Y-77636841D01*
X132961810Y-77444375D01*
X132963308Y-77441435D01*
X133077798Y-77143176D01*
X133160485Y-76834585D01*
X133210463Y-76519040D01*
X133225450Y-76233079D01*
X133227022Y-76218779D01*
X133227263Y-76217344D01*
X133227263Y-76217340D01*
X133228071Y-76212539D01*
X133228224Y-76200000D01*
X133224273Y-76172412D01*
X133223000Y-76154549D01*
X133223000Y-71402277D01*
X134137009Y-71402277D01*
X134162625Y-71670769D01*
X134163710Y-71675203D01*
X134163711Y-71675209D01*
X134225645Y-71928312D01*
X134226731Y-71932750D01*
X134327985Y-72182733D01*
X134464265Y-72415482D01*
X134467118Y-72419049D01*
X134584686Y-72566060D01*
X134632716Y-72626119D01*
X134829809Y-72810234D01*
X135051416Y-72963968D01*
X135055499Y-72965999D01*
X135055502Y-72966001D01*
X135171013Y-73023466D01*
X135292894Y-73084101D01*
X135297228Y-73085522D01*
X135297231Y-73085523D01*
X135544853Y-73166698D01*
X135544859Y-73166699D01*
X135549186Y-73168118D01*
X135553677Y-73168898D01*
X135553678Y-73168898D01*
X135811140Y-73213601D01*
X135811148Y-73213602D01*
X135814921Y-73214257D01*
X135818758Y-73214448D01*
X135898578Y-73218422D01*
X135898586Y-73218422D01*
X135900149Y-73218500D01*
X136068512Y-73218500D01*
X136070780Y-73218335D01*
X136070792Y-73218335D01*
X136201884Y-73208823D01*
X136269004Y-73203953D01*
X136273459Y-73202969D01*
X136273462Y-73202969D01*
X136527912Y-73146791D01*
X136527916Y-73146790D01*
X136532372Y-73145806D01*
X136658480Y-73098028D01*
X136780318Y-73051868D01*
X136780321Y-73051867D01*
X136784588Y-73050250D01*
X137020368Y-72919286D01*
X137234773Y-72755657D01*
X137423312Y-72562792D01*
X137582034Y-72344730D01*
X137665190Y-72186676D01*
X137705490Y-72110079D01*
X137705493Y-72110073D01*
X137707615Y-72106039D01*
X137770378Y-71928312D01*
X137795902Y-71856033D01*
X137795902Y-71856032D01*
X137797425Y-71851720D01*
X137849581Y-71587100D01*
X137858782Y-71402277D01*
X137862764Y-71322292D01*
X137862764Y-71322286D01*
X137862991Y-71317723D01*
X137837375Y-71049231D01*
X137792042Y-70863967D01*
X137774355Y-70791688D01*
X137773269Y-70787250D01*
X137672015Y-70537267D01*
X137535735Y-70304518D01*
X137417928Y-70157208D01*
X137370136Y-70097447D01*
X137370135Y-70097445D01*
X137367284Y-70093881D01*
X137170191Y-69909766D01*
X136948584Y-69756032D01*
X136944501Y-69754001D01*
X136944498Y-69753999D01*
X136779606Y-69671967D01*
X136707106Y-69635899D01*
X136702772Y-69634478D01*
X136702769Y-69634477D01*
X136455147Y-69553302D01*
X136455141Y-69553301D01*
X136450814Y-69551882D01*
X136446322Y-69551102D01*
X136188860Y-69506399D01*
X136188852Y-69506398D01*
X136185079Y-69505743D01*
X136173817Y-69505182D01*
X136101422Y-69501578D01*
X136101414Y-69501578D01*
X136099851Y-69501500D01*
X135931488Y-69501500D01*
X135929220Y-69501665D01*
X135929208Y-69501665D01*
X135798116Y-69511177D01*
X135730996Y-69516047D01*
X135726541Y-69517031D01*
X135726538Y-69517031D01*
X135472088Y-69573209D01*
X135472084Y-69573210D01*
X135467628Y-69574194D01*
X135341520Y-69621972D01*
X135219682Y-69668132D01*
X135219679Y-69668133D01*
X135215412Y-69669750D01*
X134979632Y-69800714D01*
X134976000Y-69803486D01*
X134810500Y-69929792D01*
X134765227Y-69964343D01*
X134576688Y-70157208D01*
X134417966Y-70375270D01*
X134415844Y-70379304D01*
X134294510Y-70609921D01*
X134294507Y-70609927D01*
X134292385Y-70613961D01*
X134290865Y-70618266D01*
X134290863Y-70618270D01*
X134223022Y-70810380D01*
X134202575Y-70868280D01*
X134201692Y-70872762D01*
X134152004Y-71124859D01*
X134150419Y-71132900D01*
X134150192Y-71137453D01*
X134150192Y-71137456D01*
X134140991Y-71322292D01*
X134137009Y-71402277D01*
X133223000Y-71402277D01*
X133223000Y-71173207D01*
X133224746Y-71152303D01*
X133227264Y-71137335D01*
X133228071Y-71132539D01*
X133228224Y-71120000D01*
X133226306Y-71106608D01*
X133225247Y-71081423D01*
X133240606Y-70817708D01*
X133242307Y-70803154D01*
X133293615Y-70512174D01*
X133296994Y-70497917D01*
X133381736Y-70214859D01*
X133386748Y-70201090D01*
X133431456Y-70097447D01*
X133503776Y-69929791D01*
X133510351Y-69916698D01*
X133655252Y-69665721D01*
X133658087Y-69660811D01*
X133666128Y-69648585D01*
X133842578Y-69411570D01*
X133851996Y-69400346D01*
X134054759Y-69185431D01*
X134065417Y-69175377D01*
X134291755Y-68985456D01*
X134303508Y-68976705D01*
X134550369Y-68814343D01*
X134563058Y-68807017D01*
X134827100Y-68674410D01*
X134840554Y-68668607D01*
X135118195Y-68567554D01*
X135132232Y-68563351D01*
X135419742Y-68495210D01*
X135434172Y-68492666D01*
X135727639Y-68458364D01*
X135742267Y-68457512D01*
X136037733Y-68457512D01*
X136052361Y-68458364D01*
X136345828Y-68492666D01*
X136360258Y-68495210D01*
X136647768Y-68563351D01*
X136661805Y-68567554D01*
X136939446Y-68668607D01*
X136952900Y-68674410D01*
X137216942Y-68807017D01*
X137229631Y-68814343D01*
X137476492Y-68976705D01*
X137488245Y-68985456D01*
X137714583Y-69175377D01*
X137725241Y-69185431D01*
X137928004Y-69400346D01*
X137937422Y-69411570D01*
X138113872Y-69648585D01*
X138121913Y-69660811D01*
X138124748Y-69665721D01*
X138269649Y-69916698D01*
X138276224Y-69929791D01*
X138348545Y-70097447D01*
X138393252Y-70201090D01*
X138398264Y-70214859D01*
X138483006Y-70497917D01*
X138486385Y-70512174D01*
X138537693Y-70803153D01*
X138539394Y-70817707D01*
X138554540Y-71077776D01*
X138553254Y-71104480D01*
X138551814Y-71113730D01*
X138552978Y-71122632D01*
X138552978Y-71122635D01*
X138555936Y-71145251D01*
X138557000Y-71161589D01*
X138557000Y-111688980D01*
X138555646Y-111701096D01*
X138556130Y-111701135D01*
X138555410Y-111710086D01*
X138553429Y-111718840D01*
X138556012Y-111760475D01*
X138556758Y-111772501D01*
X138557000Y-111780303D01*
X138557000Y-111796477D01*
X138557636Y-111800918D01*
X138557636Y-111800919D01*
X138558480Y-111806813D01*
X138559510Y-111816872D01*
X138562439Y-111864075D01*
X138565485Y-111872513D01*
X138566088Y-111875424D01*
X138570294Y-111892292D01*
X138571132Y-111895159D01*
X138572405Y-111904045D01*
X138576120Y-111912216D01*
X138576121Y-111912219D01*
X138591977Y-111947092D01*
X138595791Y-111956461D01*
X138608801Y-111992501D01*
X138608803Y-111992505D01*
X138611850Y-112000945D01*
X138617146Y-112008194D01*
X138618547Y-112010829D01*
X138627303Y-112025814D01*
X138628918Y-112028339D01*
X138632633Y-112036510D01*
X138638491Y-112043309D01*
X138638492Y-112043310D01*
X138663502Y-112072335D01*
X138669791Y-112080256D01*
X138673309Y-112085071D01*
X138677805Y-112091225D01*
X138688757Y-112102177D01*
X138695115Y-112109025D01*
X138721756Y-112139944D01*
X138721761Y-112139948D01*
X138727619Y-112146747D01*
X138735153Y-112151630D01*
X138741428Y-112157104D01*
X138753248Y-112166668D01*
X140425095Y-113838515D01*
X140459121Y-113900827D01*
X140462000Y-113927610D01*
X140462000Y-117330500D01*
X140441998Y-117398621D01*
X140388342Y-117445114D01*
X140336000Y-117456500D01*
X139279595Y-117456500D01*
X139211474Y-117436498D01*
X139190500Y-117419595D01*
X135022469Y-113251564D01*
X134988443Y-113189252D01*
X134993508Y-113118437D01*
X135036055Y-113061601D01*
X135075357Y-113041783D01*
X135112425Y-113030662D01*
X135112427Y-113030661D01*
X135117384Y-113029174D01*
X135317994Y-112930896D01*
X135499860Y-112801173D01*
X135511180Y-112789893D01*
X135628768Y-112672715D01*
X135658096Y-112643489D01*
X135788453Y-112462077D01*
X135792017Y-112454867D01*
X135885136Y-112266453D01*
X135885137Y-112266451D01*
X135887430Y-112261811D01*
X135942591Y-112080256D01*
X135950865Y-112053023D01*
X135950865Y-112053021D01*
X135952370Y-112048069D01*
X135981529Y-111826590D01*
X135982308Y-111794715D01*
X135983074Y-111763365D01*
X135983074Y-111763361D01*
X135983156Y-111760000D01*
X135964852Y-111537361D01*
X135910431Y-111320702D01*
X135821354Y-111115840D01*
X135728954Y-110973011D01*
X135702822Y-110932617D01*
X135702820Y-110932614D01*
X135700014Y-110928277D01*
X135549670Y-110763051D01*
X135545619Y-110759852D01*
X135545615Y-110759848D01*
X135378414Y-110627800D01*
X135378410Y-110627798D01*
X135374359Y-110624598D01*
X135333053Y-110601796D01*
X135283084Y-110551364D01*
X135268312Y-110481921D01*
X135293428Y-110415516D01*
X135320780Y-110388909D01*
X135387103Y-110341601D01*
X135499860Y-110261173D01*
X135526617Y-110234510D01*
X135632997Y-110128500D01*
X135658096Y-110103489D01*
X135663041Y-110096608D01*
X135785435Y-109926277D01*
X135788453Y-109922077D01*
X135793096Y-109912684D01*
X135885136Y-109726453D01*
X135885137Y-109726451D01*
X135887430Y-109721811D01*
X135952370Y-109508069D01*
X135981529Y-109286590D01*
X135983156Y-109220000D01*
X135964852Y-108997361D01*
X135910431Y-108780702D01*
X135821354Y-108575840D01*
X135763048Y-108485712D01*
X135702822Y-108392617D01*
X135702820Y-108392614D01*
X135700014Y-108388277D01*
X135549670Y-108223051D01*
X135545619Y-108219852D01*
X135545615Y-108219848D01*
X135378414Y-108087800D01*
X135378410Y-108087798D01*
X135374359Y-108084598D01*
X135333053Y-108061796D01*
X135283084Y-108011364D01*
X135268312Y-107941921D01*
X135293428Y-107875516D01*
X135320780Y-107848909D01*
X135364603Y-107817650D01*
X135499860Y-107721173D01*
X135658096Y-107563489D01*
X135667670Y-107550166D01*
X135785435Y-107386277D01*
X135788453Y-107382077D01*
X135798006Y-107362749D01*
X135885136Y-107186453D01*
X135885137Y-107186451D01*
X135887430Y-107181811D01*
X135952370Y-106968069D01*
X135981529Y-106746590D01*
X135983156Y-106680000D01*
X135964852Y-106457361D01*
X135910431Y-106240702D01*
X135821354Y-106035840D01*
X135769936Y-105956360D01*
X135702822Y-105852617D01*
X135702820Y-105852614D01*
X135700014Y-105848277D01*
X135549670Y-105683051D01*
X135545619Y-105679852D01*
X135545615Y-105679848D01*
X135378414Y-105547800D01*
X135378410Y-105547798D01*
X135374359Y-105544598D01*
X135333053Y-105521796D01*
X135283084Y-105471364D01*
X135268312Y-105401921D01*
X135293428Y-105335516D01*
X135320780Y-105308909D01*
X135376221Y-105269363D01*
X135499860Y-105181173D01*
X135658096Y-105023489D01*
X135667670Y-105010166D01*
X135785435Y-104846277D01*
X135788453Y-104842077D01*
X135798006Y-104822749D01*
X135885136Y-104646453D01*
X135885137Y-104646451D01*
X135887430Y-104641811D01*
X135952370Y-104428069D01*
X135981529Y-104206590D01*
X135983156Y-104140000D01*
X135964852Y-103917361D01*
X135910431Y-103700702D01*
X135821354Y-103495840D01*
X135763048Y-103405712D01*
X135702822Y-103312617D01*
X135702820Y-103312614D01*
X135700014Y-103308277D01*
X135549670Y-103143051D01*
X135545619Y-103139852D01*
X135545615Y-103139848D01*
X135378414Y-103007800D01*
X135378410Y-103007798D01*
X135374359Y-103004598D01*
X135333053Y-102981796D01*
X135283084Y-102931364D01*
X135268312Y-102861921D01*
X135293428Y-102795516D01*
X135320780Y-102768909D01*
X135376221Y-102729363D01*
X135499860Y-102641173D01*
X135518061Y-102623036D01*
X135654435Y-102487137D01*
X135658096Y-102483489D01*
X135667670Y-102470166D01*
X135785435Y-102306277D01*
X135788453Y-102302077D01*
X135798006Y-102282749D01*
X135885136Y-102106453D01*
X135885137Y-102106451D01*
X135887430Y-102101811D01*
X135952370Y-101888069D01*
X135981529Y-101666590D01*
X135983156Y-101600000D01*
X135964852Y-101377361D01*
X135910431Y-101160702D01*
X135821354Y-100955840D01*
X135760290Y-100861449D01*
X135740084Y-100793392D01*
X135759880Y-100725212D01*
X135776988Y-100703917D01*
X136636284Y-99844621D01*
X136644570Y-99837081D01*
X136651049Y-99832969D01*
X136697675Y-99783317D01*
X136700429Y-99780476D01*
X136720166Y-99760739D01*
X136722646Y-99757542D01*
X136730351Y-99748520D01*
X136743801Y-99734197D01*
X136760617Y-99716290D01*
X136764436Y-99709344D01*
X136764438Y-99709341D01*
X136770379Y-99698535D01*
X136781230Y-99682016D01*
X136783729Y-99678794D01*
X136793645Y-99666010D01*
X136796790Y-99658741D01*
X136796793Y-99658737D01*
X136811205Y-99625432D01*
X136816422Y-99614782D01*
X136837726Y-99576029D01*
X136840233Y-99566267D01*
X136842764Y-99556407D01*
X136849168Y-99537703D01*
X136854064Y-99526389D01*
X136854064Y-99526388D01*
X136857212Y-99519114D01*
X136858451Y-99511291D01*
X136858454Y-99511281D01*
X136864130Y-99475445D01*
X136866536Y-99463825D01*
X136875559Y-99428680D01*
X136875559Y-99428679D01*
X136877531Y-99420999D01*
X136877531Y-99400745D01*
X136879082Y-99381034D01*
X136881011Y-99368855D01*
X136882251Y-99361026D01*
X136878090Y-99317007D01*
X136877531Y-99305150D01*
X136877531Y-88697798D01*
X136878058Y-88686615D01*
X136879733Y-88679122D01*
X136877593Y-88611045D01*
X136877531Y-88607086D01*
X136877531Y-88579175D01*
X136877026Y-88575175D01*
X136876093Y-88563332D01*
X136874953Y-88527060D01*
X136874704Y-88519141D01*
X136869053Y-88499689D01*
X136865045Y-88480337D01*
X136863498Y-88468094D01*
X136862505Y-88460234D01*
X136858876Y-88451067D01*
X136846231Y-88419128D01*
X136842386Y-88407901D01*
X136841752Y-88405718D01*
X136830049Y-88365438D01*
X136826015Y-88358616D01*
X136826012Y-88358610D01*
X136819737Y-88347999D01*
X136811041Y-88330249D01*
X136806503Y-88318787D01*
X136806500Y-88318782D01*
X136803583Y-88311414D01*
X136777604Y-88275656D01*
X136771088Y-88265738D01*
X136760036Y-88247050D01*
X136748573Y-88227668D01*
X136734249Y-88213344D01*
X136721407Y-88198309D01*
X136709503Y-88181924D01*
X136675437Y-88153742D01*
X136666658Y-88145753D01*
X135854141Y-87333236D01*
X135846601Y-87324950D01*
X135842489Y-87318471D01*
X135792837Y-87271845D01*
X135789996Y-87269091D01*
X135770259Y-87249354D01*
X135767062Y-87246874D01*
X135758040Y-87239169D01*
X135744605Y-87226553D01*
X135725810Y-87208903D01*
X135718864Y-87205084D01*
X135718861Y-87205082D01*
X135708055Y-87199141D01*
X135691536Y-87188290D01*
X135688981Y-87186308D01*
X135675530Y-87175875D01*
X135668261Y-87172730D01*
X135668257Y-87172727D01*
X135634952Y-87158315D01*
X135624302Y-87153098D01*
X135585549Y-87131794D01*
X135565926Y-87126756D01*
X135547223Y-87120352D01*
X135535909Y-87115456D01*
X135535908Y-87115456D01*
X135528634Y-87112308D01*
X135520811Y-87111069D01*
X135520801Y-87111066D01*
X135484965Y-87105390D01*
X135473345Y-87102984D01*
X135438200Y-87093961D01*
X135438199Y-87093961D01*
X135430519Y-87091989D01*
X135410265Y-87091989D01*
X135390554Y-87090438D01*
X135388023Y-87090037D01*
X135370546Y-87087269D01*
X135362654Y-87088015D01*
X135326528Y-87091430D01*
X135314670Y-87091989D01*
X133333274Y-87091989D01*
X133322090Y-87091462D01*
X133314602Y-87089788D01*
X133306679Y-87090037D01*
X133246544Y-87091927D01*
X133242586Y-87091989D01*
X133214655Y-87091989D01*
X133210740Y-87092484D01*
X133210736Y-87092484D01*
X133210678Y-87092492D01*
X133210649Y-87092495D01*
X133198807Y-87093428D01*
X133154621Y-87094816D01*
X133137255Y-87099861D01*
X133135169Y-87100467D01*
X133115817Y-87104475D01*
X133103579Y-87106021D01*
X133103577Y-87106022D01*
X133095714Y-87107015D01*
X133054597Y-87123295D01*
X133043396Y-87127130D01*
X133000917Y-87139471D01*
X132994098Y-87143504D01*
X132994093Y-87143506D01*
X132983482Y-87149782D01*
X132965732Y-87158479D01*
X132946894Y-87165937D01*
X132940478Y-87170598D01*
X132940477Y-87170599D01*
X132911136Y-87191917D01*
X132901212Y-87198436D01*
X132869971Y-87216911D01*
X132869966Y-87216915D01*
X132863148Y-87220947D01*
X132848824Y-87235271D01*
X132833792Y-87248110D01*
X132817404Y-87260017D01*
X132805589Y-87274299D01*
X132789223Y-87294082D01*
X132781233Y-87302862D01*
X132579500Y-87504595D01*
X132517188Y-87538621D01*
X132490405Y-87541500D01*
X131181866Y-87541500D01*
X131119684Y-87548255D01*
X130983295Y-87599385D01*
X130866739Y-87686739D01*
X130779385Y-87803295D01*
X130728255Y-87939684D01*
X130721500Y-88001866D01*
X130721500Y-89505989D01*
X130701498Y-89574110D01*
X130647842Y-89620603D01*
X130595500Y-89631989D01*
X130192335Y-89631989D01*
X130124214Y-89611987D01*
X130077721Y-89558331D01*
X130067617Y-89488057D01*
X130078140Y-89452739D01*
X130126490Y-89349053D01*
X130130236Y-89338761D01*
X130176394Y-89166497D01*
X130176058Y-89152401D01*
X130168116Y-89149000D01*
X128767000Y-89149000D01*
X128698879Y-89128998D01*
X128652386Y-89075342D01*
X128641000Y-89023000D01*
X128641000Y-88622885D01*
X129149000Y-88622885D01*
X129153475Y-88638124D01*
X129154865Y-88639329D01*
X129162548Y-88641000D01*
X130162967Y-88641000D01*
X130176498Y-88637027D01*
X130177727Y-88628478D01*
X130130236Y-88451239D01*
X130126490Y-88440947D01*
X130034414Y-88243489D01*
X130028931Y-88233993D01*
X129903972Y-88055533D01*
X129896916Y-88047125D01*
X129742875Y-87893084D01*
X129734467Y-87886028D01*
X129556007Y-87761069D01*
X129546511Y-87755586D01*
X129349053Y-87663510D01*
X129338761Y-87659764D01*
X129166497Y-87613606D01*
X129152401Y-87613942D01*
X129149000Y-87621884D01*
X129149000Y-88622885D01*
X128641000Y-88622885D01*
X128641000Y-87627033D01*
X128637027Y-87613502D01*
X128628478Y-87612273D01*
X128562600Y-87629925D01*
X128491623Y-87628235D01*
X128432828Y-87588441D01*
X128404880Y-87523176D01*
X128403989Y-87508218D01*
X128403989Y-87445036D01*
X128404516Y-87433853D01*
X128406191Y-87426360D01*
X128404051Y-87358283D01*
X128403989Y-87354324D01*
X128403989Y-87326413D01*
X128403484Y-87322413D01*
X128402551Y-87310570D01*
X128401411Y-87274299D01*
X128401162Y-87266380D01*
X128395510Y-87246926D01*
X128391502Y-87227569D01*
X128389957Y-87215339D01*
X128389957Y-87215338D01*
X128388963Y-87207472D01*
X128386044Y-87200099D01*
X128372685Y-87166357D01*
X128368840Y-87155127D01*
X128358718Y-87120286D01*
X128358718Y-87120285D01*
X128356507Y-87112676D01*
X128352474Y-87105857D01*
X128352472Y-87105852D01*
X128346196Y-87095241D01*
X128337501Y-87077493D01*
X128330041Y-87058652D01*
X128304053Y-87022882D01*
X128297537Y-87012962D01*
X128279069Y-86981734D01*
X128279067Y-86981731D01*
X128275031Y-86974907D01*
X128260710Y-86960586D01*
X128247869Y-86945552D01*
X128240620Y-86935575D01*
X128235961Y-86929162D01*
X128201884Y-86900971D01*
X128193105Y-86892981D01*
X121699641Y-80399516D01*
X121692101Y-80391230D01*
X121687989Y-80384751D01*
X121638337Y-80338125D01*
X121635496Y-80335371D01*
X121615759Y-80315634D01*
X121612562Y-80313154D01*
X121603540Y-80305449D01*
X121590111Y-80292838D01*
X121571310Y-80275183D01*
X121564364Y-80271364D01*
X121564361Y-80271362D01*
X121553555Y-80265421D01*
X121537036Y-80254570D01*
X121536572Y-80254210D01*
X121521030Y-80242155D01*
X121513761Y-80239010D01*
X121513757Y-80239007D01*
X121480452Y-80224595D01*
X121469802Y-80219378D01*
X121431049Y-80198074D01*
X121411426Y-80193036D01*
X121392723Y-80186632D01*
X121381409Y-80181736D01*
X121381408Y-80181736D01*
X121374134Y-80178588D01*
X121366311Y-80177349D01*
X121366301Y-80177346D01*
X121330465Y-80171670D01*
X121318845Y-80169264D01*
X121283700Y-80160241D01*
X121283699Y-80160241D01*
X121276019Y-80158269D01*
X121255765Y-80158269D01*
X121236054Y-80156718D01*
X121223875Y-80154789D01*
X121216046Y-80153549D01*
X121186775Y-80156316D01*
X121172028Y-80157710D01*
X121160170Y-80158269D01*
X113308267Y-80158269D01*
X113297084Y-80157742D01*
X113289591Y-80156067D01*
X113281665Y-80156316D01*
X113281664Y-80156316D01*
X113221501Y-80158207D01*
X113217543Y-80158269D01*
X113189643Y-80158269D01*
X113185653Y-80158773D01*
X113173819Y-80159705D01*
X113129610Y-80161095D01*
X113121996Y-80163307D01*
X113121991Y-80163308D01*
X113110158Y-80166746D01*
X113090795Y-80170757D01*
X113070702Y-80173295D01*
X113063335Y-80176212D01*
X113063330Y-80176213D01*
X113029591Y-80189571D01*
X113018364Y-80193415D01*
X112975906Y-80205751D01*
X112969080Y-80209788D01*
X112958471Y-80216062D01*
X112940723Y-80224757D01*
X112921882Y-80232217D01*
X112915466Y-80236879D01*
X112915465Y-80236879D01*
X112886112Y-80258205D01*
X112876192Y-80264721D01*
X112844964Y-80283189D01*
X112844961Y-80283191D01*
X112838137Y-80287227D01*
X112823816Y-80301548D01*
X112808783Y-80314388D01*
X112792392Y-80326297D01*
X112766015Y-80358182D01*
X112764211Y-80360362D01*
X112756221Y-80369143D01*
X112078942Y-81046421D01*
X112070663Y-81053955D01*
X112064182Y-81058068D01*
X112017557Y-81107719D01*
X112014802Y-81110561D01*
X111995065Y-81130298D01*
X111992585Y-81133495D01*
X111984882Y-81142515D01*
X111954614Y-81174747D01*
X111950795Y-81181693D01*
X111950793Y-81181696D01*
X111944852Y-81192502D01*
X111934001Y-81209021D01*
X111921586Y-81225027D01*
X111918441Y-81232296D01*
X111918438Y-81232300D01*
X111904026Y-81265605D01*
X111898809Y-81276255D01*
X111877505Y-81315008D01*
X111875534Y-81322683D01*
X111875534Y-81322684D01*
X111872467Y-81334630D01*
X111866063Y-81353334D01*
X111858019Y-81371923D01*
X111856780Y-81379746D01*
X111856777Y-81379756D01*
X111851101Y-81415592D01*
X111848695Y-81427212D01*
X111837700Y-81470038D01*
X111837700Y-81490292D01*
X111836149Y-81510002D01*
X111832980Y-81530011D01*
X111833726Y-81537903D01*
X111837141Y-81574029D01*
X111837700Y-81585887D01*
X111837700Y-82471233D01*
X111837173Y-82482416D01*
X111835498Y-82489909D01*
X111835747Y-82497835D01*
X111835747Y-82497836D01*
X111837638Y-82557986D01*
X111837700Y-82561945D01*
X111837700Y-82589856D01*
X111838197Y-82593790D01*
X111838197Y-82593791D01*
X111838205Y-82593856D01*
X111839138Y-82605693D01*
X111840527Y-82649889D01*
X111844428Y-82663316D01*
X111846178Y-82669339D01*
X111850187Y-82688700D01*
X111852726Y-82708797D01*
X111855645Y-82716168D01*
X111855645Y-82716170D01*
X111869004Y-82749912D01*
X111872849Y-82761142D01*
X111885182Y-82803593D01*
X111889215Y-82810412D01*
X111889217Y-82810417D01*
X111895493Y-82821028D01*
X111904188Y-82838776D01*
X111911648Y-82857617D01*
X111916310Y-82864033D01*
X111916310Y-82864034D01*
X111937636Y-82893387D01*
X111944152Y-82903307D01*
X111958258Y-82927158D01*
X111966658Y-82941362D01*
X111980979Y-82955683D01*
X111993819Y-82970716D01*
X112005728Y-82987107D01*
X112011834Y-82992158D01*
X112039805Y-83015298D01*
X112048584Y-83023288D01*
X112692478Y-83667182D01*
X112726504Y-83729494D01*
X112728692Y-83743103D01*
X112746058Y-83908328D01*
X112805073Y-84089956D01*
X112900560Y-84255344D01*
X113028347Y-84397266D01*
X113182848Y-84509518D01*
X113188876Y-84512202D01*
X113188878Y-84512203D01*
X113351281Y-84584509D01*
X113357312Y-84587194D01*
X113470515Y-84611256D01*
X113513057Y-84620299D01*
X113575531Y-84654028D01*
X113609852Y-84716177D01*
X113606692Y-84782484D01*
X113599609Y-84804281D01*
X113599609Y-84804283D01*
X113597569Y-84810561D01*
X113596879Y-84817122D01*
X113596879Y-84817124D01*
X113592489Y-84858891D01*
X113577607Y-85000489D01*
X113597569Y-85190417D01*
X113656584Y-85372045D01*
X113752071Y-85537433D01*
X113879858Y-85679355D01*
X114034359Y-85791607D01*
X114040387Y-85794291D01*
X114040389Y-85794292D01*
X114202792Y-85866598D01*
X114208823Y-85869283D01*
X114302223Y-85889136D01*
X114389167Y-85907617D01*
X114389172Y-85907617D01*
X114395624Y-85908989D01*
X114586598Y-85908989D01*
X114593050Y-85907617D01*
X114593055Y-85907617D01*
X114679999Y-85889136D01*
X114773399Y-85869283D01*
X114779430Y-85866598D01*
X114941833Y-85794292D01*
X114941835Y-85794291D01*
X114947863Y-85791607D01*
X115102364Y-85679355D01*
X115230151Y-85537433D01*
X115325638Y-85372045D01*
X115384653Y-85190417D01*
X115404615Y-85000489D01*
X115389733Y-84858891D01*
X115385343Y-84817124D01*
X115385343Y-84817122D01*
X115384653Y-84810561D01*
X115325638Y-84628933D01*
X115230151Y-84463545D01*
X115156974Y-84382274D01*
X115126258Y-84318268D01*
X115124611Y-84297965D01*
X115124611Y-83049696D01*
X115125138Y-83038512D01*
X115126812Y-83031024D01*
X115124673Y-82962965D01*
X115124611Y-82959008D01*
X115124611Y-82931077D01*
X115124105Y-82927071D01*
X115123172Y-82915225D01*
X115122033Y-82878970D01*
X115121784Y-82871043D01*
X115116133Y-82851591D01*
X115112125Y-82832239D01*
X115110579Y-82820001D01*
X115110578Y-82819999D01*
X115109585Y-82812136D01*
X115093568Y-82771682D01*
X115087089Y-82700984D01*
X115119861Y-82638004D01*
X115181480Y-82602740D01*
X115210720Y-82599300D01*
X120783992Y-82599300D01*
X120852113Y-82619302D01*
X120873087Y-82636205D01*
X126022521Y-87785639D01*
X126056547Y-87847951D01*
X126051482Y-87918766D01*
X126008935Y-87975602D01*
X125959623Y-87997981D01*
X125803312Y-88031206D01*
X125797282Y-88033891D01*
X125797281Y-88033891D01*
X125634878Y-88106197D01*
X125634876Y-88106198D01*
X125628848Y-88108882D01*
X125474347Y-88221134D01*
X125469926Y-88226044D01*
X125469925Y-88226045D01*
X125367800Y-88339467D01*
X125346560Y-88363056D01*
X125251073Y-88528444D01*
X125192058Y-88710072D01*
X125191368Y-88716633D01*
X125191368Y-88716635D01*
X125174693Y-88875293D01*
X125147680Y-88940950D01*
X125138478Y-88951218D01*
X122784889Y-91304806D01*
X122722577Y-91338832D01*
X122651761Y-91333767D01*
X122594926Y-91291220D01*
X122570273Y-91226689D01*
X122569023Y-91212395D01*
X122569022Y-91212391D01*
X122568543Y-91206913D01*
X122559442Y-91172947D01*
X122510707Y-90991067D01*
X122510706Y-90991065D01*
X122509284Y-90985757D01*
X122503171Y-90972647D01*
X122414849Y-90783238D01*
X122414846Y-90783233D01*
X122412523Y-90778251D01*
X122320058Y-90646197D01*
X122284357Y-90595211D01*
X122284355Y-90595208D01*
X122281198Y-90590700D01*
X122119300Y-90428802D01*
X122114792Y-90425645D01*
X122114789Y-90425643D01*
X122029434Y-90365877D01*
X121931749Y-90297477D01*
X121926767Y-90295154D01*
X121926762Y-90295151D01*
X121892543Y-90279195D01*
X121839258Y-90232278D01*
X121819797Y-90164001D01*
X121840339Y-90096041D01*
X121892543Y-90050805D01*
X121926762Y-90034849D01*
X121926767Y-90034846D01*
X121931749Y-90032523D01*
X122053258Y-89947441D01*
X122114789Y-89904357D01*
X122114792Y-89904355D01*
X122119300Y-89901198D01*
X122281198Y-89739300D01*
X122412523Y-89551749D01*
X122414846Y-89546767D01*
X122414849Y-89546762D01*
X122506961Y-89349225D01*
X122506961Y-89349224D01*
X122509284Y-89344243D01*
X122568543Y-89123087D01*
X122588498Y-88895000D01*
X122568543Y-88666913D01*
X122558244Y-88628478D01*
X122510707Y-88451067D01*
X122510706Y-88451065D01*
X122509284Y-88445757D01*
X122475379Y-88373047D01*
X122414849Y-88243238D01*
X122414846Y-88243233D01*
X122412523Y-88238251D01*
X122320058Y-88106197D01*
X122284357Y-88055211D01*
X122284355Y-88055208D01*
X122281198Y-88050700D01*
X122119300Y-87888802D01*
X122114792Y-87885645D01*
X122114789Y-87885643D01*
X122036611Y-87830902D01*
X121931749Y-87757477D01*
X121926767Y-87755154D01*
X121926762Y-87755151D01*
X121729225Y-87663039D01*
X121729224Y-87663039D01*
X121724243Y-87660716D01*
X121718935Y-87659294D01*
X121718933Y-87659293D01*
X121508402Y-87602881D01*
X121508400Y-87602881D01*
X121503087Y-87601457D01*
X121275000Y-87581502D01*
X121046913Y-87601457D01*
X121041600Y-87602881D01*
X121041598Y-87602881D01*
X120831067Y-87659293D01*
X120831065Y-87659294D01*
X120825757Y-87660716D01*
X120820776Y-87663039D01*
X120820775Y-87663039D01*
X120623238Y-87755151D01*
X120623233Y-87755154D01*
X120618251Y-87757477D01*
X120513389Y-87830902D01*
X120435211Y-87885643D01*
X120435208Y-87885645D01*
X120430700Y-87888802D01*
X120268802Y-88050700D01*
X120265645Y-88055208D01*
X120265643Y-88055211D01*
X120229942Y-88106197D01*
X120137477Y-88238251D01*
X120135154Y-88243233D01*
X120135151Y-88243238D01*
X120074621Y-88373047D01*
X120040716Y-88445757D01*
X120039294Y-88451065D01*
X120039293Y-88451067D01*
X119991756Y-88628478D01*
X119981457Y-88666913D01*
X119961502Y-88895000D01*
X119981457Y-89123087D01*
X120040716Y-89344243D01*
X120043039Y-89349224D01*
X120043039Y-89349225D01*
X120135151Y-89546762D01*
X120135154Y-89546767D01*
X120137477Y-89551749D01*
X120268802Y-89739300D01*
X120430700Y-89901198D01*
X120435208Y-89904355D01*
X120435211Y-89904357D01*
X120496742Y-89947441D01*
X120618251Y-90032523D01*
X120623233Y-90034846D01*
X120623238Y-90034849D01*
X120657457Y-90050805D01*
X120710742Y-90097722D01*
X120730203Y-90165999D01*
X120709661Y-90233959D01*
X120657457Y-90279195D01*
X120623238Y-90295151D01*
X120623233Y-90295154D01*
X120618251Y-90297477D01*
X120520566Y-90365877D01*
X120435211Y-90425643D01*
X120435208Y-90425645D01*
X120430700Y-90428802D01*
X120268802Y-90590700D01*
X120265645Y-90595208D01*
X120265643Y-90595211D01*
X120229942Y-90646197D01*
X120137477Y-90778251D01*
X120135154Y-90783233D01*
X120135151Y-90783238D01*
X120046829Y-90972647D01*
X120040716Y-90985757D01*
X120039294Y-90991065D01*
X120039293Y-90991067D01*
X119990558Y-91172947D01*
X119981457Y-91206913D01*
X119961502Y-91435000D01*
X119981457Y-91663087D01*
X119982881Y-91668400D01*
X119982881Y-91668402D01*
X120029557Y-91842596D01*
X120040716Y-91884243D01*
X120043039Y-91889224D01*
X120043039Y-91889225D01*
X120135151Y-92086762D01*
X120135154Y-92086767D01*
X120137477Y-92091749D01*
X120175478Y-92146020D01*
X120247579Y-92248990D01*
X120268802Y-92279300D01*
X120430700Y-92441198D01*
X120435208Y-92444355D01*
X120435211Y-92444357D01*
X120513389Y-92499098D01*
X120618251Y-92572523D01*
X120623233Y-92574846D01*
X120623238Y-92574849D01*
X120657457Y-92590805D01*
X120710742Y-92637722D01*
X120730203Y-92705999D01*
X120709661Y-92773959D01*
X120657457Y-92819195D01*
X120623238Y-92835151D01*
X120623233Y-92835154D01*
X120618251Y-92837477D01*
X120538284Y-92893471D01*
X120435211Y-92965643D01*
X120435208Y-92965645D01*
X120430700Y-92968802D01*
X120268802Y-93130700D01*
X120265645Y-93135208D01*
X120265643Y-93135211D01*
X120253239Y-93152926D01*
X120137477Y-93318251D01*
X120135154Y-93323233D01*
X120135151Y-93323238D01*
X120046060Y-93514297D01*
X120040716Y-93525757D01*
X120039294Y-93531065D01*
X120039293Y-93531067D01*
X119990558Y-93712947D01*
X119981457Y-93746913D01*
X119961502Y-93975000D01*
X119981457Y-94203087D01*
X119982881Y-94208400D01*
X119982881Y-94208402D01*
X120037903Y-94413743D01*
X120040716Y-94424243D01*
X120043039Y-94429224D01*
X120043039Y-94429225D01*
X120135151Y-94626762D01*
X120135154Y-94626767D01*
X120137477Y-94631749D01*
X120204741Y-94727812D01*
X120265640Y-94814784D01*
X120268802Y-94819300D01*
X120430700Y-94981198D01*
X120435208Y-94984355D01*
X120435211Y-94984357D01*
X120513389Y-95039098D01*
X120618251Y-95112523D01*
X120623233Y-95114846D01*
X120623238Y-95114849D01*
X120657457Y-95130805D01*
X120710742Y-95177722D01*
X120730203Y-95245999D01*
X120709661Y-95313959D01*
X120657457Y-95359195D01*
X120623238Y-95375151D01*
X120623233Y-95375154D01*
X120618251Y-95377477D01*
X120534690Y-95435987D01*
X120435211Y-95505643D01*
X120435208Y-95505645D01*
X120430700Y-95508802D01*
X120268802Y-95670700D01*
X120265645Y-95675208D01*
X120265643Y-95675211D01*
X120236264Y-95717169D01*
X120137477Y-95858251D01*
X120135154Y-95863233D01*
X120135151Y-95863238D01*
X120046060Y-96054297D01*
X120040716Y-96065757D01*
X120039294Y-96071065D01*
X120039293Y-96071067D01*
X119988779Y-96259588D01*
X119981457Y-96286913D01*
X119961502Y-96515000D01*
X119981457Y-96743087D01*
X119982881Y-96748400D01*
X119982881Y-96748402D01*
X120029557Y-96922596D01*
X120040716Y-96964243D01*
X120043039Y-96969224D01*
X120043039Y-96969225D01*
X120135151Y-97166762D01*
X120135154Y-97166767D01*
X120137477Y-97171749D01*
X120162050Y-97206843D01*
X120247579Y-97328990D01*
X120268802Y-97359300D01*
X120430700Y-97521198D01*
X120435208Y-97524355D01*
X120435211Y-97524357D01*
X120513389Y-97579098D01*
X120618251Y-97652523D01*
X120623233Y-97654846D01*
X120623238Y-97654849D01*
X120657457Y-97670805D01*
X120710742Y-97717722D01*
X120730203Y-97785999D01*
X120709661Y-97853959D01*
X120657457Y-97899195D01*
X120623238Y-97915151D01*
X120623233Y-97915154D01*
X120618251Y-97917477D01*
X120602906Y-97928222D01*
X120435211Y-98045643D01*
X120435208Y-98045645D01*
X120430700Y-98048802D01*
X120268802Y-98210700D01*
X120137477Y-98398251D01*
X120135154Y-98403233D01*
X120135151Y-98403238D01*
X120046665Y-98592999D01*
X120040716Y-98605757D01*
X120039294Y-98611065D01*
X120039293Y-98611067D01*
X119990558Y-98792947D01*
X119981457Y-98826913D01*
X119961502Y-99055000D01*
X119981457Y-99283087D01*
X119982881Y-99288400D01*
X119982881Y-99288402D01*
X120036985Y-99490317D01*
X120040716Y-99504243D01*
X120043039Y-99509224D01*
X120043039Y-99509225D01*
X120135151Y-99706762D01*
X120135154Y-99706767D01*
X120137477Y-99711749D01*
X120195422Y-99794503D01*
X120261598Y-99889011D01*
X120268802Y-99899300D01*
X120430700Y-100061198D01*
X120435208Y-100064355D01*
X120435211Y-100064357D01*
X120491530Y-100103792D01*
X120618251Y-100192523D01*
X120623233Y-100194846D01*
X120623238Y-100194849D01*
X120657457Y-100210805D01*
X120710742Y-100257722D01*
X120730203Y-100325999D01*
X120709661Y-100393959D01*
X120657457Y-100439195D01*
X120623238Y-100455151D01*
X120623233Y-100455154D01*
X120618251Y-100457477D01*
X120602906Y-100468222D01*
X120435211Y-100585643D01*
X120435208Y-100585645D01*
X120430700Y-100588802D01*
X120268802Y-100750700D01*
X120265645Y-100755208D01*
X120265643Y-100755211D01*
X120229942Y-100806197D01*
X120137477Y-100938251D01*
X120135154Y-100943233D01*
X120135151Y-100943238D01*
X120046829Y-101132647D01*
X120040716Y-101145757D01*
X120039294Y-101151065D01*
X120039293Y-101151067D01*
X119990691Y-101332452D01*
X119981457Y-101366913D01*
X119961502Y-101595000D01*
X119981457Y-101823087D01*
X119982881Y-101828400D01*
X119982881Y-101828402D01*
X120029557Y-102002596D01*
X120040716Y-102044243D01*
X120043039Y-102049224D01*
X120043039Y-102049225D01*
X120135151Y-102246762D01*
X120135154Y-102246767D01*
X120137477Y-102251749D01*
X120172717Y-102302077D01*
X120247579Y-102408990D01*
X120268802Y-102439300D01*
X120430700Y-102601198D01*
X120435208Y-102604355D01*
X120435211Y-102604357D01*
X120513389Y-102659098D01*
X120618251Y-102732523D01*
X120623233Y-102734846D01*
X120623238Y-102734849D01*
X120657457Y-102750805D01*
X120710742Y-102797722D01*
X120730203Y-102865999D01*
X120709661Y-102933959D01*
X120657457Y-102979195D01*
X120623238Y-102995151D01*
X120623233Y-102995154D01*
X120618251Y-102997477D01*
X120603507Y-103007801D01*
X120435211Y-103125643D01*
X120435208Y-103125645D01*
X120430700Y-103128802D01*
X120268802Y-103290700D01*
X120265645Y-103295208D01*
X120265643Y-103295211D01*
X120248712Y-103319391D01*
X120137477Y-103478251D01*
X120135154Y-103483233D01*
X120135151Y-103483238D01*
X120046060Y-103674297D01*
X120040716Y-103685757D01*
X120039294Y-103691065D01*
X120039293Y-103691067D01*
X120017731Y-103771536D01*
X119981457Y-103906913D01*
X119961502Y-104135000D01*
X119981457Y-104363087D01*
X119982881Y-104368400D01*
X119982881Y-104368402D01*
X120029557Y-104542596D01*
X120040716Y-104584243D01*
X120043039Y-104589224D01*
X120043039Y-104589225D01*
X120135151Y-104786762D01*
X120135154Y-104786767D01*
X120137477Y-104791749D01*
X120162050Y-104826843D01*
X120247579Y-104948990D01*
X120268802Y-104979300D01*
X120430700Y-105141198D01*
X120435208Y-105144355D01*
X120435211Y-105144357D01*
X120513389Y-105199098D01*
X120618251Y-105272523D01*
X120623233Y-105274846D01*
X120623238Y-105274849D01*
X120657457Y-105290805D01*
X120710742Y-105337722D01*
X120730203Y-105405999D01*
X120709661Y-105473959D01*
X120657457Y-105519195D01*
X120623238Y-105535151D01*
X120623233Y-105535154D01*
X120618251Y-105537477D01*
X120565403Y-105574482D01*
X120435211Y-105665643D01*
X120435208Y-105665645D01*
X120430700Y-105668802D01*
X120268802Y-105830700D01*
X120265645Y-105835208D01*
X120265643Y-105835211D01*
X120228062Y-105888882D01*
X120137477Y-106018251D01*
X120135154Y-106023233D01*
X120135151Y-106023238D01*
X120046060Y-106214297D01*
X120040716Y-106225757D01*
X119981457Y-106446913D01*
X119961502Y-106675000D01*
X119981457Y-106903087D01*
X119982881Y-106908400D01*
X119982881Y-106908402D01*
X120029557Y-107082596D01*
X120040716Y-107124243D01*
X120043039Y-107129224D01*
X120043039Y-107129225D01*
X120135151Y-107326762D01*
X120135154Y-107326767D01*
X120137477Y-107331749D01*
X120162050Y-107366843D01*
X120247579Y-107488990D01*
X120268802Y-107519300D01*
X120430700Y-107681198D01*
X120435208Y-107684355D01*
X120435211Y-107684357D01*
X120513389Y-107739098D01*
X120618251Y-107812523D01*
X120623233Y-107814846D01*
X120623238Y-107814849D01*
X120658049Y-107831081D01*
X120711334Y-107877998D01*
X120730795Y-107946275D01*
X120710253Y-108014235D01*
X120658049Y-108059471D01*
X120623489Y-108075586D01*
X120613993Y-108081069D01*
X120435533Y-108206028D01*
X120427125Y-108213084D01*
X120273084Y-108367125D01*
X120266028Y-108375533D01*
X120141069Y-108553993D01*
X120135586Y-108563489D01*
X120043510Y-108760947D01*
X120039764Y-108771239D01*
X119993606Y-108943503D01*
X119993942Y-108957599D01*
X120001884Y-108961000D01*
X121403000Y-108961000D01*
X121471121Y-108981002D01*
X121517614Y-109034658D01*
X121529000Y-109087000D01*
X121529000Y-109343000D01*
X121508998Y-109411121D01*
X121455342Y-109457614D01*
X121403000Y-109469000D01*
X120007033Y-109469000D01*
X119993502Y-109472973D01*
X119992273Y-109481522D01*
X120039764Y-109658761D01*
X120043510Y-109669053D01*
X120135586Y-109866511D01*
X120141069Y-109876007D01*
X120266028Y-110054467D01*
X120273084Y-110062875D01*
X120427125Y-110216916D01*
X120435533Y-110223972D01*
X120613993Y-110348931D01*
X120623489Y-110354414D01*
X120658049Y-110370529D01*
X120711334Y-110417446D01*
X120730795Y-110485723D01*
X120710253Y-110553683D01*
X120658049Y-110598919D01*
X120623238Y-110615151D01*
X120623233Y-110615154D01*
X120618251Y-110617477D01*
X120573573Y-110648761D01*
X120435211Y-110745643D01*
X120435208Y-110745645D01*
X120430700Y-110748802D01*
X120268802Y-110910700D01*
X120265645Y-110915208D01*
X120265643Y-110915211D01*
X120233044Y-110961767D01*
X120137477Y-111098251D01*
X120135154Y-111103233D01*
X120135151Y-111103238D01*
X120046060Y-111294297D01*
X120040716Y-111305757D01*
X120039294Y-111311065D01*
X120039293Y-111311067D01*
X119991513Y-111489382D01*
X119981457Y-111526913D01*
X119961502Y-111755000D01*
X119981457Y-111983087D01*
X119982881Y-111988400D01*
X119982881Y-111988402D01*
X120033886Y-112178752D01*
X120040716Y-112204243D01*
X120043039Y-112209224D01*
X120043039Y-112209225D01*
X120135151Y-112406762D01*
X120135154Y-112406767D01*
X120137477Y-112411749D01*
X120160915Y-112445222D01*
X120247579Y-112568990D01*
X120268802Y-112599300D01*
X120430700Y-112761198D01*
X120435208Y-112764355D01*
X120435211Y-112764357D01*
X120498812Y-112808891D01*
X120618251Y-112892523D01*
X120623233Y-112894846D01*
X120623238Y-112894849D01*
X120802422Y-112978403D01*
X120825757Y-112989284D01*
X120831065Y-112990706D01*
X120831067Y-112990707D01*
X121041598Y-113047119D01*
X121041600Y-113047119D01*
X121046913Y-113048543D01*
X121275000Y-113068498D01*
X121503087Y-113048543D01*
X121508400Y-113047119D01*
X121508402Y-113047119D01*
X121718933Y-112990707D01*
X121718935Y-112990706D01*
X121724243Y-112989284D01*
X121747578Y-112978403D01*
X121926762Y-112894849D01*
X121926767Y-112894846D01*
X121931749Y-112892523D01*
X121936258Y-112889366D01*
X121936263Y-112889363D01*
X121984599Y-112855518D01*
X122051873Y-112832830D01*
X122120733Y-112850115D01*
X122169317Y-112901885D01*
X122182869Y-112958731D01*
X122182869Y-117333515D01*
X122162867Y-117401636D01*
X122109211Y-117448129D01*
X122045006Y-117458955D01*
X122043374Y-117458801D01*
X122038284Y-117457894D01*
X121951145Y-117456829D01*
X121820081Y-117455228D01*
X121820079Y-117455228D01*
X121814911Y-117455165D01*
X121594091Y-117488955D01*
X121381756Y-117558357D01*
X121308071Y-117596715D01*
X121207975Y-117648822D01*
X121183607Y-117661507D01*
X121179474Y-117664610D01*
X121179471Y-117664612D01*
X121009100Y-117792530D01*
X121004965Y-117795635D01*
X120850629Y-117957138D01*
X120743204Y-118114618D01*
X120742898Y-118115066D01*
X120687987Y-118160069D01*
X120617462Y-118168240D01*
X120553715Y-118136986D01*
X120533018Y-118112502D01*
X120452426Y-117987926D01*
X120446136Y-117979757D01*
X120302806Y-117822240D01*
X120295273Y-117815215D01*
X120128139Y-117683222D01*
X120119552Y-117677517D01*
X119933117Y-117574599D01*
X119923705Y-117570369D01*
X119722959Y-117499280D01*
X119712988Y-117496646D01*
X119641837Y-117483972D01*
X119628540Y-117485432D01*
X119624000Y-117499989D01*
X119624000Y-120133517D01*
X119628064Y-120147359D01*
X119641478Y-120149393D01*
X119648184Y-120148534D01*
X119658262Y-120146392D01*
X119862255Y-120085191D01*
X119871842Y-120081433D01*
X120063095Y-119987739D01*
X120071945Y-119982464D01*
X120245328Y-119858792D01*
X120253200Y-119852139D01*
X120404052Y-119701812D01*
X120410730Y-119693965D01*
X120538022Y-119516819D01*
X120539279Y-119517722D01*
X120586373Y-119474362D01*
X120656311Y-119462145D01*
X120721751Y-119489678D01*
X120749579Y-119521511D01*
X120809987Y-119620088D01*
X120956250Y-119788938D01*
X121128126Y-119931632D01*
X121321000Y-120044338D01*
X121529692Y-120124030D01*
X121534760Y-120125061D01*
X121534763Y-120125062D01*
X121629862Y-120144410D01*
X121748597Y-120168567D01*
X121753772Y-120168757D01*
X121753774Y-120168757D01*
X121966673Y-120176564D01*
X121966677Y-120176564D01*
X121971837Y-120176753D01*
X121976957Y-120176097D01*
X121976959Y-120176097D01*
X122188288Y-120149025D01*
X122188289Y-120149025D01*
X122193416Y-120148368D01*
X122198366Y-120146883D01*
X122402429Y-120085661D01*
X122402434Y-120085659D01*
X122407384Y-120084174D01*
X122607994Y-119985896D01*
X122789860Y-119856173D01*
X122948096Y-119698489D01*
X123078453Y-119517077D01*
X123079776Y-119518028D01*
X123126645Y-119474857D01*
X123196580Y-119462625D01*
X123262026Y-119490144D01*
X123289875Y-119521994D01*
X123349987Y-119620088D01*
X123496250Y-119788938D01*
X123668126Y-119931632D01*
X123861000Y-120044338D01*
X124069692Y-120124030D01*
X124074760Y-120125061D01*
X124074763Y-120125062D01*
X124169862Y-120144410D01*
X124288597Y-120168567D01*
X124293772Y-120168757D01*
X124293774Y-120168757D01*
X124506673Y-120176564D01*
X124506677Y-120176564D01*
X124511837Y-120176753D01*
X124516957Y-120176097D01*
X124516959Y-120176097D01*
X124728288Y-120149025D01*
X124728289Y-120149025D01*
X124733416Y-120148368D01*
X124738366Y-120146883D01*
X124942429Y-120085661D01*
X124942434Y-120085659D01*
X124947384Y-120084174D01*
X125147994Y-119985896D01*
X125329860Y-119856173D01*
X125488096Y-119698489D01*
X125618453Y-119517077D01*
X125619776Y-119518028D01*
X125666645Y-119474857D01*
X125736580Y-119462625D01*
X125802026Y-119490144D01*
X125829875Y-119521994D01*
X125889987Y-119620088D01*
X126036250Y-119788938D01*
X126208126Y-119931632D01*
X126401000Y-120044338D01*
X126609692Y-120124030D01*
X126614760Y-120125061D01*
X126614763Y-120125062D01*
X126709862Y-120144410D01*
X126828597Y-120168567D01*
X126833772Y-120168757D01*
X126833774Y-120168757D01*
X127046673Y-120176564D01*
X127046677Y-120176564D01*
X127051837Y-120176753D01*
X127056957Y-120176097D01*
X127056959Y-120176097D01*
X127268288Y-120149025D01*
X127268289Y-120149025D01*
X127273416Y-120148368D01*
X127278366Y-120146883D01*
X127482429Y-120085661D01*
X127482434Y-120085659D01*
X127487384Y-120084174D01*
X127687994Y-119985896D01*
X127869860Y-119856173D01*
X128028096Y-119698489D01*
X128158453Y-119517077D01*
X128159776Y-119518028D01*
X128206645Y-119474857D01*
X128276580Y-119462625D01*
X128342026Y-119490144D01*
X128369875Y-119521994D01*
X128429987Y-119620088D01*
X128576250Y-119788938D01*
X128748126Y-119931632D01*
X128941000Y-120044338D01*
X129149692Y-120124030D01*
X129154760Y-120125061D01*
X129154763Y-120125062D01*
X129249862Y-120144410D01*
X129368597Y-120168567D01*
X129373772Y-120168757D01*
X129373774Y-120168757D01*
X129586673Y-120176564D01*
X129586677Y-120176564D01*
X129591837Y-120176753D01*
X129596957Y-120176097D01*
X129596959Y-120176097D01*
X129808288Y-120149025D01*
X129808289Y-120149025D01*
X129813416Y-120148368D01*
X129818366Y-120146883D01*
X130022429Y-120085661D01*
X130022434Y-120085659D01*
X130027384Y-120084174D01*
X130227994Y-119985896D01*
X130409860Y-119856173D01*
X130568096Y-119698489D01*
X130698453Y-119517077D01*
X130699776Y-119518028D01*
X130746645Y-119474857D01*
X130816580Y-119462625D01*
X130882026Y-119490144D01*
X130909875Y-119521994D01*
X130969987Y-119620088D01*
X131116250Y-119788938D01*
X131288126Y-119931632D01*
X131481000Y-120044338D01*
X131689692Y-120124030D01*
X131694760Y-120125061D01*
X131694763Y-120125062D01*
X131789862Y-120144410D01*
X131908597Y-120168567D01*
X131913772Y-120168757D01*
X131913774Y-120168757D01*
X132126673Y-120176564D01*
X132126677Y-120176564D01*
X132131837Y-120176753D01*
X132136957Y-120176097D01*
X132136959Y-120176097D01*
X132348288Y-120149025D01*
X132348289Y-120149025D01*
X132353416Y-120148368D01*
X132358366Y-120146883D01*
X132562429Y-120085661D01*
X132562434Y-120085659D01*
X132567384Y-120084174D01*
X132767994Y-119985896D01*
X132949860Y-119856173D01*
X133108096Y-119698489D01*
X133238453Y-119517077D01*
X133239776Y-119518028D01*
X133286645Y-119474857D01*
X133356580Y-119462625D01*
X133422026Y-119490144D01*
X133449875Y-119521994D01*
X133509987Y-119620088D01*
X133656250Y-119788938D01*
X133828126Y-119931632D01*
X134021000Y-120044338D01*
X134229692Y-120124030D01*
X134234760Y-120125061D01*
X134234763Y-120125062D01*
X134329862Y-120144410D01*
X134448597Y-120168567D01*
X134453772Y-120168757D01*
X134453774Y-120168757D01*
X134666673Y-120176564D01*
X134666677Y-120176564D01*
X134671837Y-120176753D01*
X134676957Y-120176097D01*
X134676959Y-120176097D01*
X134888288Y-120149025D01*
X134888289Y-120149025D01*
X134893416Y-120148368D01*
X134898366Y-120146883D01*
X135102429Y-120085661D01*
X135102434Y-120085659D01*
X135107384Y-120084174D01*
X135307994Y-119985896D01*
X135489860Y-119856173D01*
X135648096Y-119698489D01*
X135778453Y-119517077D01*
X135779776Y-119518028D01*
X135826645Y-119474857D01*
X135896580Y-119462625D01*
X135962026Y-119490144D01*
X135989875Y-119521994D01*
X136049987Y-119620088D01*
X136196250Y-119788938D01*
X136368126Y-119931632D01*
X136561000Y-120044338D01*
X136769692Y-120124030D01*
X136774760Y-120125061D01*
X136774763Y-120125062D01*
X136869862Y-120144410D01*
X136988597Y-120168567D01*
X136993772Y-120168757D01*
X136993774Y-120168757D01*
X137206673Y-120176564D01*
X137206677Y-120176564D01*
X137211837Y-120176753D01*
X137216957Y-120176097D01*
X137216959Y-120176097D01*
X137428288Y-120149025D01*
X137428289Y-120149025D01*
X137433416Y-120148368D01*
X137438366Y-120146883D01*
X137642429Y-120085661D01*
X137642434Y-120085659D01*
X137647384Y-120084174D01*
X137847994Y-119985896D01*
X138029860Y-119856173D01*
X138138091Y-119748319D01*
X138200462Y-119714404D01*
X138271268Y-119719592D01*
X138328030Y-119762238D01*
X138345012Y-119793341D01*
X138389385Y-119911705D01*
X138476739Y-120028261D01*
X138593295Y-120115615D01*
X138729684Y-120166745D01*
X138791866Y-120173500D01*
X140336000Y-120173500D01*
X140404121Y-120193502D01*
X140450614Y-120247158D01*
X140462000Y-120299500D01*
X140462000Y-128906000D01*
X140441998Y-128974121D01*
X140388342Y-129020614D01*
X140336000Y-129032000D01*
X95249000Y-129032000D01*
X95180879Y-129011998D01*
X95134386Y-128958342D01*
X95123000Y-128906000D01*
X95123000Y-119598531D01*
X95143002Y-119530410D01*
X95196658Y-119483917D01*
X95266932Y-119473813D01*
X95331512Y-119503307D01*
X95356433Y-119532696D01*
X95409987Y-119620088D01*
X95556250Y-119788938D01*
X95728126Y-119931632D01*
X95921000Y-120044338D01*
X96129692Y-120124030D01*
X96134760Y-120125061D01*
X96134763Y-120125062D01*
X96229862Y-120144410D01*
X96348597Y-120168567D01*
X96353772Y-120168757D01*
X96353774Y-120168757D01*
X96566673Y-120176564D01*
X96566677Y-120176564D01*
X96571837Y-120176753D01*
X96576957Y-120176097D01*
X96576959Y-120176097D01*
X96788288Y-120149025D01*
X96788289Y-120149025D01*
X96793416Y-120148368D01*
X96798366Y-120146883D01*
X97002429Y-120085661D01*
X97002434Y-120085659D01*
X97007384Y-120084174D01*
X97207994Y-119985896D01*
X97389860Y-119856173D01*
X97548096Y-119698489D01*
X97678453Y-119517077D01*
X97679776Y-119518028D01*
X97726645Y-119474857D01*
X97796580Y-119462625D01*
X97862026Y-119490144D01*
X97889875Y-119521994D01*
X97949987Y-119620088D01*
X98096250Y-119788938D01*
X98268126Y-119931632D01*
X98461000Y-120044338D01*
X98669692Y-120124030D01*
X98674760Y-120125061D01*
X98674763Y-120125062D01*
X98769862Y-120144410D01*
X98888597Y-120168567D01*
X98893772Y-120168757D01*
X98893774Y-120168757D01*
X99106673Y-120176564D01*
X99106677Y-120176564D01*
X99111837Y-120176753D01*
X99116957Y-120176097D01*
X99116959Y-120176097D01*
X99328288Y-120149025D01*
X99328289Y-120149025D01*
X99333416Y-120148368D01*
X99338366Y-120146883D01*
X99542429Y-120085661D01*
X99542434Y-120085659D01*
X99547384Y-120084174D01*
X99747994Y-119985896D01*
X99929860Y-119856173D01*
X100088096Y-119698489D01*
X100218453Y-119517077D01*
X100219776Y-119518028D01*
X100266645Y-119474857D01*
X100336580Y-119462625D01*
X100402026Y-119490144D01*
X100429875Y-119521994D01*
X100489987Y-119620088D01*
X100636250Y-119788938D01*
X100808126Y-119931632D01*
X101001000Y-120044338D01*
X101209692Y-120124030D01*
X101214760Y-120125061D01*
X101214763Y-120125062D01*
X101309862Y-120144410D01*
X101428597Y-120168567D01*
X101433772Y-120168757D01*
X101433774Y-120168757D01*
X101646673Y-120176564D01*
X101646677Y-120176564D01*
X101651837Y-120176753D01*
X101656957Y-120176097D01*
X101656959Y-120176097D01*
X101868288Y-120149025D01*
X101868289Y-120149025D01*
X101873416Y-120148368D01*
X101878366Y-120146883D01*
X102082429Y-120085661D01*
X102082434Y-120085659D01*
X102087384Y-120084174D01*
X102287994Y-119985896D01*
X102469860Y-119856173D01*
X102628096Y-119698489D01*
X102758453Y-119517077D01*
X102759776Y-119518028D01*
X102806645Y-119474857D01*
X102876580Y-119462625D01*
X102942026Y-119490144D01*
X102969875Y-119521994D01*
X103029987Y-119620088D01*
X103176250Y-119788938D01*
X103348126Y-119931632D01*
X103541000Y-120044338D01*
X103749692Y-120124030D01*
X103754760Y-120125061D01*
X103754763Y-120125062D01*
X103849862Y-120144410D01*
X103968597Y-120168567D01*
X103973772Y-120168757D01*
X103973774Y-120168757D01*
X104186673Y-120176564D01*
X104186677Y-120176564D01*
X104191837Y-120176753D01*
X104196957Y-120176097D01*
X104196959Y-120176097D01*
X104408288Y-120149025D01*
X104408289Y-120149025D01*
X104413416Y-120148368D01*
X104418366Y-120146883D01*
X104622429Y-120085661D01*
X104622434Y-120085659D01*
X104627384Y-120084174D01*
X104827994Y-119985896D01*
X105009860Y-119856173D01*
X105168096Y-119698489D01*
X105298453Y-119517077D01*
X105299776Y-119518028D01*
X105346645Y-119474857D01*
X105416580Y-119462625D01*
X105482026Y-119490144D01*
X105509875Y-119521994D01*
X105569987Y-119620088D01*
X105716250Y-119788938D01*
X105888126Y-119931632D01*
X106081000Y-120044338D01*
X106289692Y-120124030D01*
X106294760Y-120125061D01*
X106294763Y-120125062D01*
X106389862Y-120144410D01*
X106508597Y-120168567D01*
X106513772Y-120168757D01*
X106513774Y-120168757D01*
X106726673Y-120176564D01*
X106726677Y-120176564D01*
X106731837Y-120176753D01*
X106736957Y-120176097D01*
X106736959Y-120176097D01*
X106948288Y-120149025D01*
X106948289Y-120149025D01*
X106953416Y-120148368D01*
X106958366Y-120146883D01*
X107162429Y-120085661D01*
X107162434Y-120085659D01*
X107167384Y-120084174D01*
X107367994Y-119985896D01*
X107549860Y-119856173D01*
X107708096Y-119698489D01*
X107838453Y-119517077D01*
X107839776Y-119518028D01*
X107886645Y-119474857D01*
X107956580Y-119462625D01*
X108022026Y-119490144D01*
X108049875Y-119521994D01*
X108109987Y-119620088D01*
X108256250Y-119788938D01*
X108428126Y-119931632D01*
X108621000Y-120044338D01*
X108829692Y-120124030D01*
X108834760Y-120125061D01*
X108834763Y-120125062D01*
X108929862Y-120144410D01*
X109048597Y-120168567D01*
X109053772Y-120168757D01*
X109053774Y-120168757D01*
X109266673Y-120176564D01*
X109266677Y-120176564D01*
X109271837Y-120176753D01*
X109276957Y-120176097D01*
X109276959Y-120176097D01*
X109488288Y-120149025D01*
X109488289Y-120149025D01*
X109493416Y-120148368D01*
X109498366Y-120146883D01*
X109702429Y-120085661D01*
X109702434Y-120085659D01*
X109707384Y-120084174D01*
X109907994Y-119985896D01*
X110089860Y-119856173D01*
X110248096Y-119698489D01*
X110378453Y-119517077D01*
X110379776Y-119518028D01*
X110426645Y-119474857D01*
X110496580Y-119462625D01*
X110562026Y-119490144D01*
X110589875Y-119521994D01*
X110649987Y-119620088D01*
X110796250Y-119788938D01*
X110968126Y-119931632D01*
X111161000Y-120044338D01*
X111369692Y-120124030D01*
X111374760Y-120125061D01*
X111374763Y-120125062D01*
X111469862Y-120144410D01*
X111588597Y-120168567D01*
X111593772Y-120168757D01*
X111593774Y-120168757D01*
X111806673Y-120176564D01*
X111806677Y-120176564D01*
X111811837Y-120176753D01*
X111816957Y-120176097D01*
X111816959Y-120176097D01*
X112028288Y-120149025D01*
X112028289Y-120149025D01*
X112033416Y-120148368D01*
X112038366Y-120146883D01*
X112242429Y-120085661D01*
X112242434Y-120085659D01*
X112247384Y-120084174D01*
X112447994Y-119985896D01*
X112629860Y-119856173D01*
X112788096Y-119698489D01*
X112918453Y-119517077D01*
X112919776Y-119518028D01*
X112966645Y-119474857D01*
X113036580Y-119462625D01*
X113102026Y-119490144D01*
X113129875Y-119521994D01*
X113189987Y-119620088D01*
X113336250Y-119788938D01*
X113508126Y-119931632D01*
X113701000Y-120044338D01*
X113909692Y-120124030D01*
X113914760Y-120125061D01*
X113914763Y-120125062D01*
X114009862Y-120144410D01*
X114128597Y-120168567D01*
X114133772Y-120168757D01*
X114133774Y-120168757D01*
X114346673Y-120176564D01*
X114346677Y-120176564D01*
X114351837Y-120176753D01*
X114356957Y-120176097D01*
X114356959Y-120176097D01*
X114568288Y-120149025D01*
X114568289Y-120149025D01*
X114573416Y-120148368D01*
X114578366Y-120146883D01*
X114782429Y-120085661D01*
X114782434Y-120085659D01*
X114787384Y-120084174D01*
X114987994Y-119985896D01*
X115169860Y-119856173D01*
X115237331Y-119788938D01*
X115278479Y-119747933D01*
X115340851Y-119714017D01*
X115411658Y-119719205D01*
X115468419Y-119761851D01*
X115485401Y-119792954D01*
X115526676Y-119903054D01*
X115535214Y-119918649D01*
X115611715Y-120020724D01*
X115624276Y-120033285D01*
X115726351Y-120109786D01*
X115741946Y-120118324D01*
X115862394Y-120163478D01*
X115877649Y-120167105D01*
X115928514Y-120172631D01*
X115935328Y-120173000D01*
X116557885Y-120173000D01*
X116573124Y-120168525D01*
X116574329Y-120167135D01*
X116576000Y-120159452D01*
X116576000Y-120154884D01*
X117084000Y-120154884D01*
X117088475Y-120170123D01*
X117089865Y-120171328D01*
X117097548Y-120172999D01*
X117724669Y-120172999D01*
X117731490Y-120172629D01*
X117782352Y-120167105D01*
X117797604Y-120163479D01*
X117918054Y-120118324D01*
X117933649Y-120109786D01*
X118035724Y-120033285D01*
X118048285Y-120020724D01*
X118124786Y-119918649D01*
X118133325Y-119903052D01*
X118174425Y-119793418D01*
X118217066Y-119736653D01*
X118283628Y-119711953D01*
X118352977Y-119727160D01*
X118387645Y-119755150D01*
X118413219Y-119784674D01*
X118420580Y-119791883D01*
X118584434Y-119927916D01*
X118592881Y-119933831D01*
X118776756Y-120041279D01*
X118786042Y-120045729D01*
X118985001Y-120121703D01*
X118994899Y-120124579D01*
X119098250Y-120145606D01*
X119112299Y-120144410D01*
X119116000Y-120134065D01*
X119116000Y-119087115D01*
X119111525Y-119071876D01*
X119110135Y-119070671D01*
X119102452Y-119069000D01*
X117102115Y-119069000D01*
X117086876Y-119073475D01*
X117085671Y-119074865D01*
X117084000Y-119082548D01*
X117084000Y-120154884D01*
X116576000Y-120154884D01*
X116576000Y-118542885D01*
X117084000Y-118542885D01*
X117088475Y-118558124D01*
X117089865Y-118559329D01*
X117097548Y-118561000D01*
X119097885Y-118561000D01*
X119113124Y-118556525D01*
X119114329Y-118555135D01*
X119116000Y-118547452D01*
X119116000Y-117498102D01*
X119112082Y-117484758D01*
X119097806Y-117482771D01*
X119059324Y-117488660D01*
X119049288Y-117491051D01*
X118846868Y-117557212D01*
X118837359Y-117561209D01*
X118648463Y-117659542D01*
X118639738Y-117665036D01*
X118469433Y-117792905D01*
X118461726Y-117799748D01*
X118384094Y-117880985D01*
X118322570Y-117916415D01*
X118251657Y-117912958D01*
X118193871Y-117871712D01*
X118175018Y-117838164D01*
X118133324Y-117726946D01*
X118124786Y-117711351D01*
X118048285Y-117609276D01*
X118035724Y-117596715D01*
X117933649Y-117520214D01*
X117918054Y-117511676D01*
X117797606Y-117466522D01*
X117782351Y-117462895D01*
X117731486Y-117457369D01*
X117724672Y-117457000D01*
X117102115Y-117457000D01*
X117086876Y-117461475D01*
X117085671Y-117462865D01*
X117084000Y-117470548D01*
X117084000Y-118542885D01*
X116576000Y-118542885D01*
X116576000Y-117475116D01*
X116571525Y-117459877D01*
X116570135Y-117458672D01*
X116562452Y-117457001D01*
X115935331Y-117457001D01*
X115928510Y-117457371D01*
X115877648Y-117462895D01*
X115862396Y-117466521D01*
X115741946Y-117511676D01*
X115726351Y-117520214D01*
X115624276Y-117596715D01*
X115611715Y-117609276D01*
X115535214Y-117711351D01*
X115526676Y-117726946D01*
X115485297Y-117837322D01*
X115442655Y-117894087D01*
X115376093Y-117918786D01*
X115306744Y-117903578D01*
X115274121Y-117877891D01*
X115223151Y-117821876D01*
X115223145Y-117821870D01*
X115219670Y-117818051D01*
X115215619Y-117814852D01*
X115215615Y-117814848D01*
X115048414Y-117682800D01*
X115048410Y-117682798D01*
X115044359Y-117679598D01*
X115039835Y-117677101D01*
X115039831Y-117677098D01*
X114988608Y-117648822D01*
X114938636Y-117598390D01*
X114923500Y-117538513D01*
X114923500Y-115080325D01*
X117299845Y-115080325D01*
X117317770Y-115277288D01*
X117373610Y-115467019D01*
X117376463Y-115472477D01*
X117376465Y-115472481D01*
X117423920Y-115563253D01*
X117465240Y-115642290D01*
X117589168Y-115796425D01*
X117593892Y-115800389D01*
X117601133Y-115806465D01*
X117740674Y-115923554D01*
X117746072Y-115926521D01*
X117746077Y-115926525D01*
X117889380Y-116005305D01*
X117913987Y-116018833D01*
X117919854Y-116020694D01*
X117919856Y-116020695D01*
X118076760Y-116070468D01*
X118102506Y-116078635D01*
X118256427Y-116095900D01*
X120140969Y-116095900D01*
X120144025Y-116095600D01*
X120144032Y-116095600D01*
X120202540Y-116089863D01*
X120288033Y-116081480D01*
X120293934Y-116079698D01*
X120293936Y-116079698D01*
X120367253Y-116057562D01*
X120477369Y-116024316D01*
X120651996Y-115931466D01*
X120792637Y-115816762D01*
X120800487Y-115810360D01*
X120800490Y-115810357D01*
X120805262Y-115806465D01*
X120826743Y-115780499D01*
X120927401Y-115658825D01*
X120927403Y-115658821D01*
X120931330Y-115654075D01*
X121025398Y-115480101D01*
X121083882Y-115291168D01*
X121104555Y-115094475D01*
X121089962Y-114934123D01*
X121087189Y-114903651D01*
X121087188Y-114903648D01*
X121086630Y-114897512D01*
X121030790Y-114707781D01*
X121027473Y-114701435D01*
X120980480Y-114611547D01*
X120939160Y-114532510D01*
X120815232Y-114378375D01*
X120808927Y-114373084D01*
X120778285Y-114347373D01*
X120663726Y-114251246D01*
X120658328Y-114248279D01*
X120658323Y-114248275D01*
X120495808Y-114158933D01*
X120495809Y-114158933D01*
X120490413Y-114155967D01*
X120484546Y-114154106D01*
X120484544Y-114154105D01*
X120307764Y-114098027D01*
X120307763Y-114098027D01*
X120301894Y-114096165D01*
X120147973Y-114078900D01*
X118263431Y-114078900D01*
X118260375Y-114079200D01*
X118260368Y-114079200D01*
X118201860Y-114084937D01*
X118116367Y-114093320D01*
X118110466Y-114095102D01*
X118110464Y-114095102D01*
X118059537Y-114110478D01*
X117927031Y-114150484D01*
X117752404Y-114243334D01*
X117666138Y-114313691D01*
X117603913Y-114364440D01*
X117603910Y-114364443D01*
X117599138Y-114368335D01*
X117595211Y-114373082D01*
X117595209Y-114373084D01*
X117476999Y-114515975D01*
X117476997Y-114515979D01*
X117473070Y-114520725D01*
X117379002Y-114694699D01*
X117320518Y-114883632D01*
X117299845Y-115080325D01*
X114923500Y-115080325D01*
X114923500Y-113314457D01*
X114943502Y-113246336D01*
X114960405Y-113225361D01*
X115410307Y-112775460D01*
X115878689Y-112307078D01*
X115886968Y-112299544D01*
X115893449Y-112295431D01*
X115938650Y-112247296D01*
X115999862Y-112211331D01*
X116070802Y-112214168D01*
X116128946Y-112254908D01*
X116155834Y-112320616D01*
X116156500Y-112333549D01*
X116156500Y-112603134D01*
X116163255Y-112665316D01*
X116214385Y-112801705D01*
X116301739Y-112918261D01*
X116418295Y-113005615D01*
X116554684Y-113056745D01*
X116616866Y-113063500D01*
X118313134Y-113063500D01*
X118375316Y-113056745D01*
X118511705Y-113005615D01*
X118628261Y-112918261D01*
X118715615Y-112801705D01*
X118766745Y-112665316D01*
X118773500Y-112603134D01*
X118773500Y-110906866D01*
X118766745Y-110844684D01*
X118715615Y-110708295D01*
X118628261Y-110591739D01*
X118511705Y-110504385D01*
X118375316Y-110453255D01*
X118364526Y-110452083D01*
X118362394Y-110451197D01*
X118359778Y-110450575D01*
X118359879Y-110450152D01*
X118298965Y-110424845D01*
X118258537Y-110366483D01*
X118256078Y-110295529D01*
X118292371Y-110234510D01*
X118301035Y-110227507D01*
X118304790Y-110224356D01*
X118309300Y-110221198D01*
X118471198Y-110059300D01*
X118488339Y-110034821D01*
X118540804Y-109959893D01*
X118602523Y-109871749D01*
X118604846Y-109866767D01*
X118604849Y-109866762D01*
X118696961Y-109669225D01*
X118696961Y-109669224D01*
X118699284Y-109664243D01*
X118710444Y-109622596D01*
X118757119Y-109448402D01*
X118757119Y-109448400D01*
X118758543Y-109443087D01*
X118778498Y-109215000D01*
X118758543Y-108986913D01*
X118721440Y-108848444D01*
X118700707Y-108771067D01*
X118700706Y-108771065D01*
X118699284Y-108765757D01*
X118693940Y-108754297D01*
X118604849Y-108563238D01*
X118604846Y-108563233D01*
X118602523Y-108558251D01*
X118497897Y-108408830D01*
X118474357Y-108375211D01*
X118474355Y-108375208D01*
X118471198Y-108370700D01*
X118309300Y-108208802D01*
X118304792Y-108205645D01*
X118304789Y-108205643D01*
X118175470Y-108115093D01*
X118121749Y-108077477D01*
X118116767Y-108075154D01*
X118116762Y-108075151D01*
X118082543Y-108059195D01*
X118029258Y-108012278D01*
X118009797Y-107944001D01*
X118030339Y-107876041D01*
X118082543Y-107830805D01*
X118116762Y-107814849D01*
X118116767Y-107814846D01*
X118121749Y-107812523D01*
X118226611Y-107739098D01*
X118304789Y-107684357D01*
X118304792Y-107684355D01*
X118309300Y-107681198D01*
X118471198Y-107519300D01*
X118492422Y-107488990D01*
X118577950Y-107366843D01*
X118602523Y-107331749D01*
X118604846Y-107326767D01*
X118604849Y-107326762D01*
X118696961Y-107129225D01*
X118696961Y-107129224D01*
X118699284Y-107124243D01*
X118710444Y-107082596D01*
X118757119Y-106908402D01*
X118757119Y-106908400D01*
X118758543Y-106903087D01*
X118778498Y-106675000D01*
X118758543Y-106446913D01*
X118699284Y-106225757D01*
X118693940Y-106214297D01*
X118604849Y-106023238D01*
X118604846Y-106023233D01*
X118602523Y-106018251D01*
X118511938Y-105888882D01*
X118474357Y-105835211D01*
X118474355Y-105835208D01*
X118471198Y-105830700D01*
X118309300Y-105668802D01*
X118304792Y-105665645D01*
X118304789Y-105665643D01*
X118174597Y-105574482D01*
X118121749Y-105537477D01*
X118116767Y-105535154D01*
X118116762Y-105535151D01*
X118082543Y-105519195D01*
X118029258Y-105472278D01*
X118009797Y-105404001D01*
X118030339Y-105336041D01*
X118082543Y-105290805D01*
X118116762Y-105274849D01*
X118116767Y-105274846D01*
X118121749Y-105272523D01*
X118226611Y-105199098D01*
X118304789Y-105144357D01*
X118304792Y-105144355D01*
X118309300Y-105141198D01*
X118471198Y-104979300D01*
X118492422Y-104948990D01*
X118577950Y-104826843D01*
X118602523Y-104791749D01*
X118604846Y-104786767D01*
X118604849Y-104786762D01*
X118696961Y-104589225D01*
X118696961Y-104589224D01*
X118699284Y-104584243D01*
X118710444Y-104542596D01*
X118757119Y-104368402D01*
X118757119Y-104368400D01*
X118758543Y-104363087D01*
X118778498Y-104135000D01*
X118758543Y-103906913D01*
X118722269Y-103771536D01*
X118700707Y-103691067D01*
X118700706Y-103691065D01*
X118699284Y-103685757D01*
X118693940Y-103674297D01*
X118604849Y-103483238D01*
X118604846Y-103483233D01*
X118602523Y-103478251D01*
X118491288Y-103319391D01*
X118474357Y-103295211D01*
X118474355Y-103295208D01*
X118471198Y-103290700D01*
X118309300Y-103128802D01*
X118304792Y-103125645D01*
X118304789Y-103125643D01*
X118136493Y-103007801D01*
X118121749Y-102997477D01*
X118116767Y-102995154D01*
X118116762Y-102995151D01*
X118082543Y-102979195D01*
X118029258Y-102932278D01*
X118009797Y-102864001D01*
X118030339Y-102796041D01*
X118082543Y-102750805D01*
X118116762Y-102734849D01*
X118116767Y-102734846D01*
X118121749Y-102732523D01*
X118226611Y-102659098D01*
X118304789Y-102604357D01*
X118304792Y-102604355D01*
X118309300Y-102601198D01*
X118471198Y-102439300D01*
X118492422Y-102408990D01*
X118567283Y-102302077D01*
X118602523Y-102251749D01*
X118604846Y-102246767D01*
X118604849Y-102246762D01*
X118696961Y-102049225D01*
X118696961Y-102049224D01*
X118699284Y-102044243D01*
X118710444Y-102002596D01*
X118757119Y-101828402D01*
X118757119Y-101828400D01*
X118758543Y-101823087D01*
X118778498Y-101595000D01*
X118758543Y-101366913D01*
X118749309Y-101332452D01*
X118700707Y-101151067D01*
X118700706Y-101151065D01*
X118699284Y-101145757D01*
X118693171Y-101132647D01*
X118604849Y-100943238D01*
X118604846Y-100943233D01*
X118602523Y-100938251D01*
X118510058Y-100806197D01*
X118474357Y-100755211D01*
X118474355Y-100755208D01*
X118471198Y-100750700D01*
X118309300Y-100588802D01*
X118304792Y-100585645D01*
X118304789Y-100585643D01*
X118137094Y-100468222D01*
X118121749Y-100457477D01*
X118116767Y-100455154D01*
X118116762Y-100455151D01*
X118082543Y-100439195D01*
X118029258Y-100392278D01*
X118009797Y-100324001D01*
X118030339Y-100256041D01*
X118082543Y-100210805D01*
X118116762Y-100194849D01*
X118116767Y-100194846D01*
X118121749Y-100192523D01*
X118248470Y-100103792D01*
X118304789Y-100064357D01*
X118304792Y-100064355D01*
X118309300Y-100061198D01*
X118471198Y-99899300D01*
X118478403Y-99889011D01*
X118544578Y-99794503D01*
X118602523Y-99711749D01*
X118604846Y-99706767D01*
X118604849Y-99706762D01*
X118696961Y-99509225D01*
X118696961Y-99509224D01*
X118699284Y-99504243D01*
X118703016Y-99490317D01*
X118757119Y-99288402D01*
X118757119Y-99288400D01*
X118758543Y-99283087D01*
X118778498Y-99055000D01*
X118758543Y-98826913D01*
X118749442Y-98792947D01*
X118700707Y-98611067D01*
X118700706Y-98611065D01*
X118699284Y-98605757D01*
X118693335Y-98592999D01*
X118604849Y-98403238D01*
X118604846Y-98403233D01*
X118602523Y-98398251D01*
X118471198Y-98210700D01*
X118309300Y-98048802D01*
X118304792Y-98045645D01*
X118304789Y-98045643D01*
X118137094Y-97928222D01*
X118121749Y-97917477D01*
X118116767Y-97915154D01*
X118116762Y-97915151D01*
X118082543Y-97899195D01*
X118029258Y-97852278D01*
X118009797Y-97784001D01*
X118030339Y-97716041D01*
X118082543Y-97670805D01*
X118116762Y-97654849D01*
X118116767Y-97654846D01*
X118121749Y-97652523D01*
X118226611Y-97579098D01*
X118304789Y-97524357D01*
X118304792Y-97524355D01*
X118309300Y-97521198D01*
X118471198Y-97359300D01*
X118492422Y-97328990D01*
X118577950Y-97206843D01*
X118602523Y-97171749D01*
X118604846Y-97166767D01*
X118604849Y-97166762D01*
X118696961Y-96969225D01*
X118696961Y-96969224D01*
X118699284Y-96964243D01*
X118710444Y-96922596D01*
X118757119Y-96748402D01*
X118757119Y-96748400D01*
X118758543Y-96743087D01*
X118778498Y-96515000D01*
X118758543Y-96286913D01*
X118751221Y-96259588D01*
X118700707Y-96071067D01*
X118700706Y-96071065D01*
X118699284Y-96065757D01*
X118693940Y-96054297D01*
X118604849Y-95863238D01*
X118604846Y-95863233D01*
X118602523Y-95858251D01*
X118503736Y-95717169D01*
X118474357Y-95675211D01*
X118474355Y-95675208D01*
X118471198Y-95670700D01*
X118309300Y-95508802D01*
X118304792Y-95505645D01*
X118304789Y-95505643D01*
X118205310Y-95435987D01*
X118121749Y-95377477D01*
X118116767Y-95375154D01*
X118116762Y-95375151D01*
X118082543Y-95359195D01*
X118029258Y-95312278D01*
X118009797Y-95244001D01*
X118030339Y-95176041D01*
X118082543Y-95130805D01*
X118116762Y-95114849D01*
X118116767Y-95114846D01*
X118121749Y-95112523D01*
X118226611Y-95039098D01*
X118304789Y-94984357D01*
X118304792Y-94984355D01*
X118309300Y-94981198D01*
X118471198Y-94819300D01*
X118474361Y-94814784D01*
X118535259Y-94727812D01*
X118602523Y-94631749D01*
X118604846Y-94626767D01*
X118604849Y-94626762D01*
X118696961Y-94429225D01*
X118696961Y-94429224D01*
X118699284Y-94424243D01*
X118702098Y-94413743D01*
X118757119Y-94208402D01*
X118757119Y-94208400D01*
X118758543Y-94203087D01*
X118778498Y-93975000D01*
X118758543Y-93746913D01*
X118749442Y-93712947D01*
X118700707Y-93531067D01*
X118700706Y-93531065D01*
X118699284Y-93525757D01*
X118693940Y-93514297D01*
X118604849Y-93323238D01*
X118604846Y-93323233D01*
X118602523Y-93318251D01*
X118486761Y-93152926D01*
X118474357Y-93135211D01*
X118474355Y-93135208D01*
X118471198Y-93130700D01*
X118309300Y-92968802D01*
X118304792Y-92965645D01*
X118304789Y-92965643D01*
X118201716Y-92893471D01*
X118121749Y-92837477D01*
X118116767Y-92835154D01*
X118116762Y-92835151D01*
X118082543Y-92819195D01*
X118029258Y-92772278D01*
X118009797Y-92704001D01*
X118030339Y-92636041D01*
X118082543Y-92590805D01*
X118116762Y-92574849D01*
X118116767Y-92574846D01*
X118121749Y-92572523D01*
X118226611Y-92499098D01*
X118304789Y-92444357D01*
X118304792Y-92444355D01*
X118309300Y-92441198D01*
X118471198Y-92279300D01*
X118492422Y-92248990D01*
X118564522Y-92146020D01*
X118602523Y-92091749D01*
X118604846Y-92086767D01*
X118604849Y-92086762D01*
X118696961Y-91889225D01*
X118696961Y-91889224D01*
X118699284Y-91884243D01*
X118710444Y-91842596D01*
X118757119Y-91668402D01*
X118757119Y-91668400D01*
X118758543Y-91663087D01*
X118778498Y-91435000D01*
X118758543Y-91206913D01*
X118749442Y-91172947D01*
X118700707Y-90991067D01*
X118700706Y-90991065D01*
X118699284Y-90985757D01*
X118693171Y-90972647D01*
X118604849Y-90783238D01*
X118604846Y-90783233D01*
X118602523Y-90778251D01*
X118510058Y-90646197D01*
X118474357Y-90595211D01*
X118474355Y-90595208D01*
X118471198Y-90590700D01*
X118309300Y-90428802D01*
X118304792Y-90425645D01*
X118304789Y-90425643D01*
X118219434Y-90365877D01*
X118121749Y-90297477D01*
X118116767Y-90295154D01*
X118116762Y-90295151D01*
X118081951Y-90278919D01*
X118028666Y-90232002D01*
X118009205Y-90163725D01*
X118029747Y-90095765D01*
X118081951Y-90050529D01*
X118116511Y-90034414D01*
X118126007Y-90028931D01*
X118304467Y-89903972D01*
X118312875Y-89896916D01*
X118466916Y-89742875D01*
X118473972Y-89734467D01*
X118598931Y-89556007D01*
X118604414Y-89546511D01*
X118696490Y-89349053D01*
X118700236Y-89338761D01*
X118746394Y-89166497D01*
X118746058Y-89152401D01*
X118738116Y-89149000D01*
X116197033Y-89149000D01*
X116183502Y-89152973D01*
X116182273Y-89161522D01*
X116229764Y-89338761D01*
X116233510Y-89349053D01*
X116325586Y-89546511D01*
X116331069Y-89556007D01*
X116456028Y-89734467D01*
X116463084Y-89742875D01*
X116617125Y-89896916D01*
X116625533Y-89903972D01*
X116803993Y-90028931D01*
X116813489Y-90034414D01*
X116848049Y-90050529D01*
X116901334Y-90097446D01*
X116920795Y-90165723D01*
X116900253Y-90233683D01*
X116848049Y-90278919D01*
X116813238Y-90295151D01*
X116813233Y-90295154D01*
X116808251Y-90297477D01*
X116710566Y-90365877D01*
X116625211Y-90425643D01*
X116625208Y-90425645D01*
X116620700Y-90428802D01*
X116458802Y-90590700D01*
X116455645Y-90595208D01*
X116455643Y-90595211D01*
X116419942Y-90646197D01*
X116327477Y-90778251D01*
X116325154Y-90783233D01*
X116325151Y-90783238D01*
X116236829Y-90972647D01*
X116230716Y-90985757D01*
X116229294Y-90991065D01*
X116229293Y-90991067D01*
X116180558Y-91172947D01*
X116171457Y-91206913D01*
X116151502Y-91435000D01*
X116171457Y-91663087D01*
X116172881Y-91668400D01*
X116172881Y-91668402D01*
X116219557Y-91842596D01*
X116230716Y-91884243D01*
X116233039Y-91889224D01*
X116233039Y-91889225D01*
X116325151Y-92086762D01*
X116325154Y-92086767D01*
X116327477Y-92091749D01*
X116365478Y-92146020D01*
X116437579Y-92248990D01*
X116458802Y-92279300D01*
X116620700Y-92441198D01*
X116625208Y-92444355D01*
X116625211Y-92444357D01*
X116703389Y-92499098D01*
X116808251Y-92572523D01*
X116813233Y-92574846D01*
X116813238Y-92574849D01*
X116847457Y-92590805D01*
X116900742Y-92637722D01*
X116920203Y-92705999D01*
X116899661Y-92773959D01*
X116847457Y-92819195D01*
X116813238Y-92835151D01*
X116813233Y-92835154D01*
X116808251Y-92837477D01*
X116728284Y-92893471D01*
X116625211Y-92965643D01*
X116625208Y-92965645D01*
X116620700Y-92968802D01*
X116458802Y-93130700D01*
X116455645Y-93135208D01*
X116455643Y-93135211D01*
X116443239Y-93152926D01*
X116327477Y-93318251D01*
X116325154Y-93323233D01*
X116325151Y-93323238D01*
X116236060Y-93514297D01*
X116230716Y-93525757D01*
X116229294Y-93531065D01*
X116229293Y-93531067D01*
X116180558Y-93712947D01*
X116171457Y-93746913D01*
X116151502Y-93975000D01*
X116171457Y-94203087D01*
X116172881Y-94208400D01*
X116172881Y-94208402D01*
X116226247Y-94407566D01*
X116224557Y-94478542D01*
X116184763Y-94537338D01*
X116119499Y-94565286D01*
X116049485Y-94553513D01*
X116000433Y-94508319D01*
X115999868Y-94508758D01*
X115997259Y-94505394D01*
X115996085Y-94504313D01*
X115990973Y-94495669D01*
X115976652Y-94481348D01*
X115963811Y-94466314D01*
X115956562Y-94456337D01*
X115951903Y-94449924D01*
X115917826Y-94421733D01*
X115909047Y-94413743D01*
X112986522Y-91491217D01*
X112952496Y-91428905D01*
X112950307Y-91415292D01*
X112949404Y-91406695D01*
X112932942Y-91250072D01*
X112873927Y-91068444D01*
X112778440Y-90903056D01*
X112681903Y-90795840D01*
X112655075Y-90766045D01*
X112655074Y-90766044D01*
X112650653Y-90761134D01*
X112496152Y-90648882D01*
X112490124Y-90646198D01*
X112490122Y-90646197D01*
X112327719Y-90573891D01*
X112327718Y-90573891D01*
X112321688Y-90571206D01*
X112228287Y-90551353D01*
X112141344Y-90532872D01*
X112141339Y-90532872D01*
X112134887Y-90531500D01*
X111943913Y-90531500D01*
X111937461Y-90532872D01*
X111937456Y-90532872D01*
X111757112Y-90571206D01*
X111756586Y-90568732D01*
X111697000Y-90570444D01*
X111636196Y-90533792D01*
X111604860Y-90470085D01*
X111603011Y-90448578D01*
X111603011Y-88623503D01*
X116183606Y-88623503D01*
X116183942Y-88637599D01*
X116191884Y-88641000D01*
X117192885Y-88641000D01*
X117208124Y-88636525D01*
X117209329Y-88635135D01*
X117211000Y-88627452D01*
X117211000Y-88622885D01*
X117719000Y-88622885D01*
X117723475Y-88638124D01*
X117724865Y-88639329D01*
X117732548Y-88641000D01*
X118732967Y-88641000D01*
X118746498Y-88637027D01*
X118747727Y-88628478D01*
X118700236Y-88451239D01*
X118696490Y-88440947D01*
X118604414Y-88243489D01*
X118598931Y-88233993D01*
X118473972Y-88055533D01*
X118466916Y-88047125D01*
X118312875Y-87893084D01*
X118304467Y-87886028D01*
X118126007Y-87761069D01*
X118116511Y-87755586D01*
X117919053Y-87663510D01*
X117908761Y-87659764D01*
X117736497Y-87613606D01*
X117722401Y-87613942D01*
X117719000Y-87621884D01*
X117719000Y-88622885D01*
X117211000Y-88622885D01*
X117211000Y-87627033D01*
X117207027Y-87613502D01*
X117198478Y-87612273D01*
X117021239Y-87659764D01*
X117010947Y-87663510D01*
X116813489Y-87755586D01*
X116803993Y-87761069D01*
X116625533Y-87886028D01*
X116617125Y-87893084D01*
X116463084Y-88047125D01*
X116456028Y-88055533D01*
X116331069Y-88233993D01*
X116325586Y-88243489D01*
X116233510Y-88440947D01*
X116229764Y-88451239D01*
X116183606Y-88623503D01*
X111603011Y-88623503D01*
X111603011Y-87465084D01*
X111623013Y-87396963D01*
X111639916Y-87375988D01*
X112345501Y-86670404D01*
X112407813Y-86636379D01*
X112434596Y-86633500D01*
X112490487Y-86633500D01*
X112496939Y-86632128D01*
X112496944Y-86632128D01*
X112583887Y-86613647D01*
X112677288Y-86593794D01*
X112683319Y-86591109D01*
X112845722Y-86518803D01*
X112845724Y-86518802D01*
X112851752Y-86516118D01*
X113006253Y-86403866D01*
X113134040Y-86261944D01*
X113229527Y-86096556D01*
X113288542Y-85914928D01*
X113289311Y-85907617D01*
X113307814Y-85731565D01*
X113308504Y-85725000D01*
X113288542Y-85535072D01*
X113229527Y-85353444D01*
X113134040Y-85188056D01*
X113006253Y-85046134D01*
X112851752Y-84933882D01*
X112845724Y-84931198D01*
X112845722Y-84931197D01*
X112683319Y-84858891D01*
X112683318Y-84858891D01*
X112677288Y-84856206D01*
X112583888Y-84836353D01*
X112496944Y-84817872D01*
X112496939Y-84817872D01*
X112490487Y-84816500D01*
X112299513Y-84816500D01*
X112293061Y-84817872D01*
X112293056Y-84817872D01*
X112206112Y-84836353D01*
X112112712Y-84856206D01*
X112106682Y-84858891D01*
X112106681Y-84858891D01*
X111944278Y-84931197D01*
X111944276Y-84931198D01*
X111938248Y-84933882D01*
X111783747Y-85046134D01*
X111655960Y-85188056D01*
X111560473Y-85353444D01*
X111501458Y-85535072D01*
X111500768Y-85541633D01*
X111500768Y-85541635D01*
X111484093Y-85700292D01*
X111457080Y-85765949D01*
X111447878Y-85776218D01*
X110577253Y-86646842D01*
X110568974Y-86654376D01*
X110562493Y-86658489D01*
X110515868Y-86708140D01*
X110513113Y-86710982D01*
X110493376Y-86730719D01*
X110490896Y-86733916D01*
X110483193Y-86742936D01*
X110452925Y-86775168D01*
X110449106Y-86782114D01*
X110449104Y-86782117D01*
X110443163Y-86792923D01*
X110432312Y-86809442D01*
X110419897Y-86825448D01*
X110416752Y-86832717D01*
X110416749Y-86832721D01*
X110402337Y-86866026D01*
X110397120Y-86876676D01*
X110375816Y-86915429D01*
X110373845Y-86923104D01*
X110373845Y-86923105D01*
X110370778Y-86935051D01*
X110364374Y-86953755D01*
X110356330Y-86972344D01*
X110355091Y-86980167D01*
X110355088Y-86980177D01*
X110349412Y-87016013D01*
X110347006Y-87027633D01*
X110336011Y-87070459D01*
X110336011Y-87090713D01*
X110334460Y-87110423D01*
X110331291Y-87130432D01*
X110334372Y-87163020D01*
X110335452Y-87174450D01*
X110336011Y-87186308D01*
X110336011Y-87507701D01*
X110316009Y-87575822D01*
X110262353Y-87622315D01*
X110192079Y-87632419D01*
X110177407Y-87629410D01*
X110073087Y-87601457D01*
X109845000Y-87581502D01*
X109616913Y-87601457D01*
X109611600Y-87602881D01*
X109611598Y-87602881D01*
X109401067Y-87659293D01*
X109401065Y-87659294D01*
X109395757Y-87660716D01*
X109390776Y-87663039D01*
X109390775Y-87663039D01*
X109193238Y-87755151D01*
X109193233Y-87755154D01*
X109188251Y-87757477D01*
X109083389Y-87830902D01*
X109005211Y-87885643D01*
X109005208Y-87885645D01*
X109000700Y-87888802D01*
X108838802Y-88050700D01*
X108835645Y-88055208D01*
X108835643Y-88055211D01*
X108799942Y-88106197D01*
X108707477Y-88238251D01*
X108705154Y-88243233D01*
X108705151Y-88243238D01*
X108644621Y-88373047D01*
X108610716Y-88445757D01*
X108609294Y-88451065D01*
X108609293Y-88451067D01*
X108561756Y-88628478D01*
X108551457Y-88666913D01*
X108531502Y-88895000D01*
X108551457Y-89123087D01*
X108610716Y-89344243D01*
X108613039Y-89349224D01*
X108613039Y-89349225D01*
X108705151Y-89546762D01*
X108705154Y-89546767D01*
X108707477Y-89551749D01*
X108838802Y-89739300D01*
X109000700Y-89901198D01*
X109005208Y-89904355D01*
X109005211Y-89904357D01*
X109066742Y-89947441D01*
X109188251Y-90032523D01*
X109193233Y-90034846D01*
X109193238Y-90034849D01*
X109227457Y-90050805D01*
X109280742Y-90097722D01*
X109300203Y-90165999D01*
X109279661Y-90233959D01*
X109227457Y-90279195D01*
X109193238Y-90295151D01*
X109193233Y-90295154D01*
X109188251Y-90297477D01*
X109090566Y-90365877D01*
X109005211Y-90425643D01*
X109005208Y-90425645D01*
X109000700Y-90428802D01*
X108838802Y-90590700D01*
X108835645Y-90595208D01*
X108835643Y-90595211D01*
X108799942Y-90646197D01*
X108707477Y-90778251D01*
X108705154Y-90783233D01*
X108705151Y-90783238D01*
X108616829Y-90972647D01*
X108610716Y-90985757D01*
X108609294Y-90991065D01*
X108609293Y-90991067D01*
X108560558Y-91172947D01*
X108551457Y-91206913D01*
X108531502Y-91435000D01*
X108551457Y-91663087D01*
X108552881Y-91668400D01*
X108552881Y-91668402D01*
X108599557Y-91842596D01*
X108610716Y-91884243D01*
X108613039Y-91889224D01*
X108613039Y-91889225D01*
X108705151Y-92086762D01*
X108705154Y-92086767D01*
X108707477Y-92091749D01*
X108745478Y-92146020D01*
X108817579Y-92248990D01*
X108838802Y-92279300D01*
X109000700Y-92441198D01*
X109005208Y-92444355D01*
X109005211Y-92444357D01*
X109083389Y-92499098D01*
X109188251Y-92572523D01*
X109193233Y-92574846D01*
X109193238Y-92574849D01*
X109227457Y-92590805D01*
X109280742Y-92637722D01*
X109300203Y-92705999D01*
X109279661Y-92773959D01*
X109227457Y-92819195D01*
X109193238Y-92835151D01*
X109193233Y-92835154D01*
X109188251Y-92837477D01*
X109108284Y-92893471D01*
X109005211Y-92965643D01*
X109005208Y-92965645D01*
X109000700Y-92968802D01*
X108838802Y-93130700D01*
X108835645Y-93135208D01*
X108835643Y-93135211D01*
X108823239Y-93152926D01*
X108707477Y-93318251D01*
X108705154Y-93323233D01*
X108705151Y-93323238D01*
X108616060Y-93514297D01*
X108610716Y-93525757D01*
X108609294Y-93531065D01*
X108609293Y-93531067D01*
X108560558Y-93712947D01*
X108551457Y-93746913D01*
X108531502Y-93975000D01*
X108551457Y-94203087D01*
X108552881Y-94208400D01*
X108552881Y-94208402D01*
X108607903Y-94413743D01*
X108610716Y-94424243D01*
X108613039Y-94429224D01*
X108613039Y-94429225D01*
X108705151Y-94626762D01*
X108705154Y-94626767D01*
X108707477Y-94631749D01*
X108774741Y-94727812D01*
X108835640Y-94814784D01*
X108838802Y-94819300D01*
X109000700Y-94981198D01*
X109005208Y-94984355D01*
X109005211Y-94984357D01*
X109083389Y-95039098D01*
X109188251Y-95112523D01*
X109193233Y-95114846D01*
X109193238Y-95114849D01*
X109227457Y-95130805D01*
X109280742Y-95177722D01*
X109300203Y-95245999D01*
X109279661Y-95313959D01*
X109227457Y-95359195D01*
X109193238Y-95375151D01*
X109193233Y-95375154D01*
X109188251Y-95377477D01*
X109104690Y-95435987D01*
X109005211Y-95505643D01*
X109005208Y-95505645D01*
X109000700Y-95508802D01*
X108838802Y-95670700D01*
X108835645Y-95675208D01*
X108835643Y-95675211D01*
X108806264Y-95717169D01*
X108707477Y-95858251D01*
X108705154Y-95863233D01*
X108705151Y-95863238D01*
X108616060Y-96054297D01*
X108610716Y-96065757D01*
X108609294Y-96071065D01*
X108609293Y-96071067D01*
X108558779Y-96259588D01*
X108551457Y-96286913D01*
X108531502Y-96515000D01*
X108551457Y-96743087D01*
X108552881Y-96748400D01*
X108552881Y-96748402D01*
X108599557Y-96922596D01*
X108610716Y-96964243D01*
X108613039Y-96969224D01*
X108613039Y-96969225D01*
X108705151Y-97166762D01*
X108705154Y-97166767D01*
X108707477Y-97171749D01*
X108732050Y-97206843D01*
X108817579Y-97328990D01*
X108838802Y-97359300D01*
X109000700Y-97521198D01*
X109005208Y-97524355D01*
X109005211Y-97524357D01*
X109083389Y-97579098D01*
X109188251Y-97652523D01*
X109193233Y-97654846D01*
X109193238Y-97654849D01*
X109227457Y-97670805D01*
X109280742Y-97717722D01*
X109300203Y-97785999D01*
X109279661Y-97853959D01*
X109227457Y-97899195D01*
X109193238Y-97915151D01*
X109193233Y-97915154D01*
X109188251Y-97917477D01*
X109172906Y-97928222D01*
X109005211Y-98045643D01*
X109005208Y-98045645D01*
X109000700Y-98048802D01*
X108838802Y-98210700D01*
X108707477Y-98398251D01*
X108705154Y-98403233D01*
X108705151Y-98403238D01*
X108616665Y-98592999D01*
X108610716Y-98605757D01*
X108609294Y-98611065D01*
X108609293Y-98611067D01*
X108560558Y-98792947D01*
X108551457Y-98826913D01*
X108531502Y-99055000D01*
X108551457Y-99283087D01*
X108552879Y-99288392D01*
X108552881Y-99288406D01*
X108568459Y-99346539D01*
X108566771Y-99417516D01*
X108535848Y-99468248D01*
X108428066Y-99576029D01*
X108328231Y-99675864D01*
X108319952Y-99683398D01*
X108313471Y-99687511D01*
X108284018Y-99718876D01*
X108266846Y-99737162D01*
X108264091Y-99740004D01*
X108244354Y-99759741D01*
X108241874Y-99762938D01*
X108234171Y-99771958D01*
X108203903Y-99804190D01*
X108200084Y-99811136D01*
X108200082Y-99811139D01*
X108194141Y-99821945D01*
X108183290Y-99838464D01*
X108170875Y-99854470D01*
X108167730Y-99861739D01*
X108167727Y-99861743D01*
X108153315Y-99895048D01*
X108148098Y-99905698D01*
X108126794Y-99944451D01*
X108124823Y-99952126D01*
X108124823Y-99952127D01*
X108121756Y-99964073D01*
X108115352Y-99982777D01*
X108107308Y-100001366D01*
X108106069Y-100009189D01*
X108106066Y-100009199D01*
X108100390Y-100045035D01*
X108097984Y-100056655D01*
X108096818Y-100061198D01*
X108086989Y-100099481D01*
X108086989Y-100119735D01*
X108085438Y-100139445D01*
X108082269Y-100159454D01*
X108083015Y-100167346D01*
X108086430Y-100203472D01*
X108086989Y-100215330D01*
X108086989Y-100846967D01*
X108066987Y-100915088D01*
X108013331Y-100961581D01*
X107943057Y-100971685D01*
X107878477Y-100942191D01*
X107855197Y-100915407D01*
X107762822Y-100772617D01*
X107762820Y-100772614D01*
X107760014Y-100768277D01*
X107609670Y-100603051D01*
X107605619Y-100599852D01*
X107605615Y-100599848D01*
X107438414Y-100467800D01*
X107438410Y-100467798D01*
X107434359Y-100464598D01*
X107392569Y-100441529D01*
X107342598Y-100391097D01*
X107327826Y-100321654D01*
X107352942Y-100255248D01*
X107380294Y-100228641D01*
X107555328Y-100103792D01*
X107563200Y-100097139D01*
X107714052Y-99946812D01*
X107720730Y-99938965D01*
X107845003Y-99766020D01*
X107850313Y-99757183D01*
X107944670Y-99566267D01*
X107948469Y-99556672D01*
X108010377Y-99352910D01*
X108012555Y-99342837D01*
X108013986Y-99331962D01*
X108011775Y-99317778D01*
X107998617Y-99314000D01*
X104412115Y-99314000D01*
X104396876Y-99318475D01*
X104395671Y-99319865D01*
X104394000Y-99327548D01*
X104394000Y-101728000D01*
X104373998Y-101796121D01*
X104320342Y-101842614D01*
X104268000Y-101854000D01*
X102823225Y-101854000D01*
X102809694Y-101857973D01*
X102808257Y-101867966D01*
X102838565Y-102002446D01*
X102841645Y-102012275D01*
X102921770Y-102209603D01*
X102926413Y-102218794D01*
X103037694Y-102400388D01*
X103043777Y-102408699D01*
X103183213Y-102569667D01*
X103190580Y-102576883D01*
X103354434Y-102712916D01*
X103362881Y-102718831D01*
X103431969Y-102759203D01*
X103480693Y-102810842D01*
X103493764Y-102880625D01*
X103467033Y-102946396D01*
X103426584Y-102979752D01*
X103413607Y-102986507D01*
X103409474Y-102989610D01*
X103409471Y-102989612D01*
X103239685Y-103117091D01*
X103234965Y-103120635D01*
X103223436Y-103132699D01*
X103091018Y-103271267D01*
X103080629Y-103282138D01*
X103077720Y-103286403D01*
X103077714Y-103286411D01*
X103036931Y-103346197D01*
X102954743Y-103466680D01*
X102860688Y-103669305D01*
X102800989Y-103884570D01*
X102777251Y-104106695D01*
X102777548Y-104111848D01*
X102777548Y-104111851D01*
X102783011Y-104206590D01*
X102790110Y-104329715D01*
X102791247Y-104334761D01*
X102791248Y-104334767D01*
X102811119Y-104422939D01*
X102839222Y-104547639D01*
X102923266Y-104754616D01*
X102965018Y-104822749D01*
X103037291Y-104940688D01*
X103039987Y-104945088D01*
X103186250Y-105113938D01*
X103358126Y-105256632D01*
X103416606Y-105290805D01*
X103431445Y-105299476D01*
X103480169Y-105351114D01*
X103493240Y-105420897D01*
X103466509Y-105486669D01*
X103426055Y-105520027D01*
X103413607Y-105526507D01*
X103409474Y-105529610D01*
X103409471Y-105529612D01*
X103385247Y-105547800D01*
X103234965Y-105660635D01*
X103080629Y-105822138D01*
X103077720Y-105826403D01*
X103077714Y-105826411D01*
X103017258Y-105915036D01*
X102954743Y-106006680D01*
X102860688Y-106209305D01*
X102800989Y-106424570D01*
X102777251Y-106646695D01*
X102777548Y-106651848D01*
X102777548Y-106651851D01*
X102783011Y-106746590D01*
X102790110Y-106869715D01*
X102791247Y-106874761D01*
X102791248Y-106874767D01*
X102811119Y-106962939D01*
X102839222Y-107087639D01*
X102877461Y-107181811D01*
X102915925Y-107276536D01*
X102923266Y-107294616D01*
X102965018Y-107362749D01*
X103037291Y-107480688D01*
X103039987Y-107485088D01*
X103186250Y-107653938D01*
X103358126Y-107796632D01*
X103416606Y-107830805D01*
X103431445Y-107839476D01*
X103480169Y-107891114D01*
X103493240Y-107960897D01*
X103466509Y-108026669D01*
X103426055Y-108060027D01*
X103413607Y-108066507D01*
X103409474Y-108069610D01*
X103409471Y-108069612D01*
X103239100Y-108197530D01*
X103234965Y-108200635D01*
X103080629Y-108362138D01*
X103077720Y-108366403D01*
X103077714Y-108366411D01*
X103071488Y-108375538D01*
X102954743Y-108546680D01*
X102907715Y-108647993D01*
X102866245Y-108737334D01*
X102860688Y-108749305D01*
X102800989Y-108964570D01*
X102777251Y-109186695D01*
X102777548Y-109191848D01*
X102777548Y-109191851D01*
X102783011Y-109286590D01*
X102790110Y-109409715D01*
X102791247Y-109414761D01*
X102791248Y-109414767D01*
X102811119Y-109502939D01*
X102839222Y-109627639D01*
X102884693Y-109739621D01*
X102916050Y-109816844D01*
X102923266Y-109834616D01*
X102967084Y-109906121D01*
X103037291Y-110020688D01*
X103039987Y-110025088D01*
X103186250Y-110193938D01*
X103358126Y-110336632D01*
X103395744Y-110358614D01*
X103431445Y-110379476D01*
X103480169Y-110431114D01*
X103493240Y-110500897D01*
X103466509Y-110566669D01*
X103426055Y-110600027D01*
X103413607Y-110606507D01*
X103409474Y-110609610D01*
X103409471Y-110609612D01*
X103259598Y-110722140D01*
X103234965Y-110740635D01*
X103080629Y-110902138D01*
X103077720Y-110906403D01*
X103077714Y-110906411D01*
X103055128Y-110939521D01*
X102954743Y-111086680D01*
X102926709Y-111147075D01*
X102870249Y-111268708D01*
X102860688Y-111289305D01*
X102800989Y-111504570D01*
X102777251Y-111726695D01*
X102777548Y-111731848D01*
X102777548Y-111731851D01*
X102786799Y-111892292D01*
X102790110Y-111949715D01*
X102791247Y-111954762D01*
X102791248Y-111954766D01*
X102799752Y-111992501D01*
X102836884Y-112157262D01*
X102838988Y-112166599D01*
X102834452Y-112237450D01*
X102792331Y-112294602D01*
X102725997Y-112319908D01*
X102716071Y-112320300D01*
X102449968Y-112320300D01*
X102438785Y-112319773D01*
X102431292Y-112318098D01*
X102423366Y-112318347D01*
X102423365Y-112318347D01*
X102363202Y-112320238D01*
X102359244Y-112320300D01*
X102331344Y-112320300D01*
X102327354Y-112320804D01*
X102315520Y-112321736D01*
X102271311Y-112323126D01*
X102263695Y-112325339D01*
X102263693Y-112325339D01*
X102251852Y-112328779D01*
X102232493Y-112332788D01*
X102231183Y-112332954D01*
X102212403Y-112335326D01*
X102205037Y-112338242D01*
X102205031Y-112338244D01*
X102171298Y-112351600D01*
X102160068Y-112355445D01*
X102125217Y-112365570D01*
X102117607Y-112367781D01*
X102110784Y-112371816D01*
X102100166Y-112378095D01*
X102082413Y-112386792D01*
X102074768Y-112389819D01*
X102063583Y-112394248D01*
X102057168Y-112398909D01*
X102027812Y-112420237D01*
X102017895Y-112426751D01*
X101979838Y-112449258D01*
X101965517Y-112463579D01*
X101950484Y-112476419D01*
X101934093Y-112488328D01*
X101929042Y-112494434D01*
X101905902Y-112522405D01*
X101897912Y-112531184D01*
X96967345Y-117461750D01*
X96905033Y-117495776D01*
X96856154Y-117496702D01*
X96643373Y-117458800D01*
X96643367Y-117458799D01*
X96638284Y-117457894D01*
X96564452Y-117456992D01*
X96420081Y-117455228D01*
X96420079Y-117455228D01*
X96414911Y-117455165D01*
X96194091Y-117488955D01*
X95981756Y-117558357D01*
X95908071Y-117596715D01*
X95807975Y-117648822D01*
X95783607Y-117661507D01*
X95779474Y-117664610D01*
X95779471Y-117664612D01*
X95609100Y-117792530D01*
X95604965Y-117795635D01*
X95450629Y-117957138D01*
X95447720Y-117961403D01*
X95447714Y-117961411D01*
X95353088Y-118100128D01*
X95298177Y-118145131D01*
X95227652Y-118153302D01*
X95163905Y-118122048D01*
X95127175Y-118061291D01*
X95123000Y-118029124D01*
X95123000Y-117102610D01*
X95143002Y-117034489D01*
X95159905Y-117013515D01*
X100003990Y-112169430D01*
X100013519Y-112161817D01*
X100013204Y-112161447D01*
X100020039Y-112155630D01*
X100027631Y-112150840D01*
X100063235Y-112110526D01*
X100068581Y-112104839D01*
X100080003Y-112093417D01*
X100086271Y-112085054D01*
X100092644Y-112077226D01*
X100114020Y-112053023D01*
X100123956Y-112041772D01*
X100127771Y-112033646D01*
X100129422Y-112031133D01*
X100138363Y-112016252D01*
X100139793Y-112013641D01*
X100145173Y-112006462D01*
X100148321Y-111998064D01*
X100148323Y-111998061D01*
X100161777Y-111962172D01*
X100165704Y-111952854D01*
X100181982Y-111918182D01*
X100185799Y-111910052D01*
X100187181Y-111901177D01*
X100188062Y-111898294D01*
X100192455Y-111881549D01*
X100193100Y-111878614D01*
X100196252Y-111870207D01*
X100199270Y-111829598D01*
X100199757Y-111823049D01*
X100200909Y-111813009D01*
X100202252Y-111804381D01*
X100203000Y-111799577D01*
X100203000Y-111784085D01*
X100203346Y-111774747D01*
X100206371Y-111734044D01*
X100206371Y-111734043D01*
X100207036Y-111725093D01*
X100205161Y-111716311D01*
X100204594Y-111707997D01*
X100203000Y-111692890D01*
X100203000Y-101334183D01*
X102804389Y-101334183D01*
X102805912Y-101342607D01*
X102818292Y-101346000D01*
X103867885Y-101346000D01*
X103883124Y-101341525D01*
X103884329Y-101340135D01*
X103886000Y-101332452D01*
X103886000Y-99332115D01*
X103881525Y-99316876D01*
X103880135Y-99315671D01*
X103872452Y-99314000D01*
X102823225Y-99314000D01*
X102809694Y-99317973D01*
X102808257Y-99327966D01*
X102838565Y-99462446D01*
X102841645Y-99472275D01*
X102921770Y-99669603D01*
X102926413Y-99678794D01*
X103037694Y-99860388D01*
X103043777Y-99868699D01*
X103183213Y-100029667D01*
X103190580Y-100036883D01*
X103354434Y-100172916D01*
X103362881Y-100178831D01*
X103432479Y-100219501D01*
X103481203Y-100271140D01*
X103494274Y-100340923D01*
X103467543Y-100406694D01*
X103427087Y-100440053D01*
X103418462Y-100444542D01*
X103409738Y-100450036D01*
X103239433Y-100577905D01*
X103231726Y-100584748D01*
X103084590Y-100738717D01*
X103078104Y-100746727D01*
X102958098Y-100922649D01*
X102953000Y-100931623D01*
X102863338Y-101124783D01*
X102859775Y-101134470D01*
X102804389Y-101334183D01*
X100203000Y-101334183D01*
X100203000Y-96486695D01*
X102777251Y-96486695D01*
X102777548Y-96491848D01*
X102777548Y-96491851D01*
X102783011Y-96586590D01*
X102790110Y-96709715D01*
X102791247Y-96714761D01*
X102791248Y-96714767D01*
X102811119Y-96802939D01*
X102839222Y-96927639D01*
X102923266Y-97134616D01*
X102965018Y-97202749D01*
X103037291Y-97320688D01*
X103039987Y-97325088D01*
X103186250Y-97493938D01*
X103358126Y-97636632D01*
X103389301Y-97654849D01*
X103431955Y-97679774D01*
X103480679Y-97731412D01*
X103493750Y-97801195D01*
X103467019Y-97866967D01*
X103426562Y-97900327D01*
X103418457Y-97904546D01*
X103409738Y-97910036D01*
X103239433Y-98037905D01*
X103231726Y-98044748D01*
X103084590Y-98198717D01*
X103078104Y-98206727D01*
X102958098Y-98382649D01*
X102953000Y-98391623D01*
X102863338Y-98584783D01*
X102859775Y-98594470D01*
X102804389Y-98794183D01*
X102805912Y-98802607D01*
X102818292Y-98806000D01*
X107998344Y-98806000D01*
X108011875Y-98802027D01*
X108013180Y-98792947D01*
X107971214Y-98625875D01*
X107967894Y-98616124D01*
X107882972Y-98420814D01*
X107878105Y-98411739D01*
X107762426Y-98232926D01*
X107756136Y-98224757D01*
X107612806Y-98067240D01*
X107605273Y-98060215D01*
X107438139Y-97928222D01*
X107429556Y-97922520D01*
X107392602Y-97902120D01*
X107342631Y-97851687D01*
X107327859Y-97782245D01*
X107352975Y-97715839D01*
X107380327Y-97689232D01*
X107440921Y-97646011D01*
X107559860Y-97561173D01*
X107581492Y-97539617D01*
X107714435Y-97407137D01*
X107718096Y-97403489D01*
X107727670Y-97390166D01*
X107845435Y-97226277D01*
X107848453Y-97222077D01*
X107855220Y-97208386D01*
X107945136Y-97026453D01*
X107945137Y-97026451D01*
X107947430Y-97021811D01*
X108012370Y-96808069D01*
X108041529Y-96586590D01*
X108041905Y-96571217D01*
X108043074Y-96523365D01*
X108043074Y-96523361D01*
X108043156Y-96520000D01*
X108024852Y-96297361D01*
X107970431Y-96080702D01*
X107881354Y-95875840D01*
X107833826Y-95802373D01*
X107762822Y-95692617D01*
X107762820Y-95692614D01*
X107760014Y-95688277D01*
X107609670Y-95523051D01*
X107605619Y-95519852D01*
X107605615Y-95519848D01*
X107438414Y-95387800D01*
X107438410Y-95387798D01*
X107434359Y-95384598D01*
X107392569Y-95361529D01*
X107342598Y-95311097D01*
X107327826Y-95241654D01*
X107352942Y-95175248D01*
X107380294Y-95148641D01*
X107555328Y-95023792D01*
X107563200Y-95017139D01*
X107714052Y-94866812D01*
X107720730Y-94858965D01*
X107845003Y-94686020D01*
X107850313Y-94677183D01*
X107944670Y-94486267D01*
X107948469Y-94476672D01*
X108010377Y-94272910D01*
X108012555Y-94262837D01*
X108013986Y-94251962D01*
X108011775Y-94237778D01*
X107998617Y-94234000D01*
X106552000Y-94234000D01*
X106483879Y-94213998D01*
X106437386Y-94160342D01*
X106426000Y-94108000D01*
X106426000Y-93707885D01*
X106934000Y-93707885D01*
X106938475Y-93723124D01*
X106939865Y-93724329D01*
X106947548Y-93726000D01*
X107998344Y-93726000D01*
X108011875Y-93722027D01*
X108013180Y-93712947D01*
X107971214Y-93545875D01*
X107967894Y-93536124D01*
X107882972Y-93340814D01*
X107878105Y-93331739D01*
X107762426Y-93152926D01*
X107756136Y-93144757D01*
X107612806Y-92987240D01*
X107605273Y-92980215D01*
X107438139Y-92848222D01*
X107429552Y-92842517D01*
X107392116Y-92821851D01*
X107342146Y-92771419D01*
X107327374Y-92701976D01*
X107352490Y-92635571D01*
X107379842Y-92608964D01*
X107555327Y-92483792D01*
X107563200Y-92477139D01*
X107714052Y-92326812D01*
X107720730Y-92318965D01*
X107845003Y-92146020D01*
X107850313Y-92137183D01*
X107944670Y-91946267D01*
X107948469Y-91936672D01*
X108010377Y-91732910D01*
X108012555Y-91722837D01*
X108013986Y-91711962D01*
X108011775Y-91697778D01*
X107998617Y-91694000D01*
X106952115Y-91694000D01*
X106936876Y-91698475D01*
X106935671Y-91699865D01*
X106934000Y-91707548D01*
X106934000Y-93707885D01*
X106426000Y-93707885D01*
X106426000Y-91312000D01*
X106446002Y-91243879D01*
X106499658Y-91197386D01*
X106552000Y-91186000D01*
X107998344Y-91186000D01*
X108011875Y-91182027D01*
X108013180Y-91172947D01*
X107971214Y-91005875D01*
X107967894Y-90996124D01*
X107882972Y-90800814D01*
X107878105Y-90791739D01*
X107762426Y-90612926D01*
X107756136Y-90604757D01*
X107612806Y-90447240D01*
X107605273Y-90440215D01*
X107438139Y-90308222D01*
X107429556Y-90302520D01*
X107392602Y-90282120D01*
X107342631Y-90231687D01*
X107327859Y-90162245D01*
X107352975Y-90095839D01*
X107380327Y-90069232D01*
X107436827Y-90028931D01*
X107559860Y-89941173D01*
X107718096Y-89783489D01*
X107773823Y-89705937D01*
X107845435Y-89606277D01*
X107848453Y-89602077D01*
X107870074Y-89558331D01*
X107945136Y-89406453D01*
X107945137Y-89406451D01*
X107947430Y-89401811D01*
X108012370Y-89188069D01*
X108041529Y-88966590D01*
X108041905Y-88951218D01*
X108043074Y-88903365D01*
X108043074Y-88903361D01*
X108043156Y-88900000D01*
X108024852Y-88677361D01*
X107970431Y-88460702D01*
X107881354Y-88255840D01*
X107830267Y-88176871D01*
X107762822Y-88072617D01*
X107762820Y-88072614D01*
X107760014Y-88068277D01*
X107609670Y-87903051D01*
X107605619Y-87899852D01*
X107605615Y-87899848D01*
X107438414Y-87767800D01*
X107438410Y-87767798D01*
X107434359Y-87764598D01*
X107427967Y-87761069D01*
X107382136Y-87735769D01*
X107238789Y-87656638D01*
X107233920Y-87654914D01*
X107233916Y-87654912D01*
X107033087Y-87583795D01*
X107033083Y-87583794D01*
X107028212Y-87582069D01*
X107023119Y-87581162D01*
X107023116Y-87581161D01*
X106813373Y-87543800D01*
X106813367Y-87543799D01*
X106808284Y-87542894D01*
X106734452Y-87541992D01*
X106590081Y-87540228D01*
X106590079Y-87540228D01*
X106584911Y-87540165D01*
X106364091Y-87573955D01*
X106151756Y-87643357D01*
X105953607Y-87746507D01*
X105949474Y-87749610D01*
X105949471Y-87749612D01*
X105818496Y-87847951D01*
X105774965Y-87880635D01*
X105718537Y-87939684D01*
X105694283Y-87965064D01*
X105632759Y-88000494D01*
X105561846Y-87997037D01*
X105504060Y-87955791D01*
X105485207Y-87922243D01*
X105443767Y-87811703D01*
X105440615Y-87803295D01*
X105353261Y-87686739D01*
X105236705Y-87599385D01*
X105100316Y-87548255D01*
X105038134Y-87541500D01*
X103241866Y-87541500D01*
X103179684Y-87548255D01*
X103043295Y-87599385D01*
X102926739Y-87686739D01*
X102839385Y-87803295D01*
X102788255Y-87939684D01*
X102781500Y-88001866D01*
X102781500Y-89798134D01*
X102788255Y-89860316D01*
X102839385Y-89996705D01*
X102926739Y-90113261D01*
X103043295Y-90200615D01*
X103051704Y-90203767D01*
X103051705Y-90203768D01*
X103160451Y-90244535D01*
X103217216Y-90287176D01*
X103241916Y-90353738D01*
X103226709Y-90423087D01*
X103207316Y-90449568D01*
X103126830Y-90533792D01*
X103080629Y-90582138D01*
X103077715Y-90586410D01*
X103077714Y-90586411D01*
X103059838Y-90612617D01*
X102954743Y-90766680D01*
X102938899Y-90800814D01*
X102891597Y-90902718D01*
X102860688Y-90969305D01*
X102800989Y-91184570D01*
X102777251Y-91406695D01*
X102777548Y-91411848D01*
X102777548Y-91411851D01*
X102781532Y-91480949D01*
X102790110Y-91629715D01*
X102791247Y-91634761D01*
X102791248Y-91634767D01*
X102804597Y-91694000D01*
X102839222Y-91847639D01*
X102923266Y-92054616D01*
X103039987Y-92245088D01*
X103186250Y-92413938D01*
X103358126Y-92556632D01*
X103416606Y-92590805D01*
X103431445Y-92599476D01*
X103480169Y-92651114D01*
X103493240Y-92720897D01*
X103466509Y-92786669D01*
X103426055Y-92820027D01*
X103413607Y-92826507D01*
X103409474Y-92829610D01*
X103409471Y-92829612D01*
X103239100Y-92957530D01*
X103234965Y-92960635D01*
X103080629Y-93122138D01*
X103077715Y-93126410D01*
X103077714Y-93126411D01*
X102992556Y-93251249D01*
X102954743Y-93306680D01*
X102860688Y-93509305D01*
X102800989Y-93724570D01*
X102777251Y-93946695D01*
X102777548Y-93951848D01*
X102777548Y-93951851D01*
X102781532Y-94020949D01*
X102790110Y-94169715D01*
X102791247Y-94174761D01*
X102791248Y-94174767D01*
X102804597Y-94234000D01*
X102839222Y-94387639D01*
X102923266Y-94594616D01*
X102962638Y-94658866D01*
X103037291Y-94780688D01*
X103039987Y-94785088D01*
X103186250Y-94953938D01*
X103358126Y-95096632D01*
X103385334Y-95112531D01*
X103431445Y-95139476D01*
X103480169Y-95191114D01*
X103493240Y-95260897D01*
X103466509Y-95326669D01*
X103426055Y-95360027D01*
X103413607Y-95366507D01*
X103409474Y-95369610D01*
X103409471Y-95369612D01*
X103239100Y-95497530D01*
X103234965Y-95500635D01*
X103216605Y-95519848D01*
X103114233Y-95626974D01*
X103080629Y-95662138D01*
X102954743Y-95846680D01*
X102860688Y-96049305D01*
X102800989Y-96264570D01*
X102777251Y-96486695D01*
X100203000Y-96486695D01*
X100203000Y-71402277D01*
X100897009Y-71402277D01*
X100922625Y-71670769D01*
X100923710Y-71675203D01*
X100923711Y-71675209D01*
X100985645Y-71928312D01*
X100986731Y-71932750D01*
X101087985Y-72182733D01*
X101224265Y-72415482D01*
X101227118Y-72419049D01*
X101344686Y-72566060D01*
X101392716Y-72626119D01*
X101589809Y-72810234D01*
X101811416Y-72963968D01*
X101815499Y-72965999D01*
X101815502Y-72966001D01*
X101931013Y-73023466D01*
X102052894Y-73084101D01*
X102057228Y-73085522D01*
X102057231Y-73085523D01*
X102304853Y-73166698D01*
X102304859Y-73166699D01*
X102309186Y-73168118D01*
X102313677Y-73168898D01*
X102313678Y-73168898D01*
X102571140Y-73213601D01*
X102571148Y-73213602D01*
X102574921Y-73214257D01*
X102578758Y-73214448D01*
X102658578Y-73218422D01*
X102658586Y-73218422D01*
X102660149Y-73218500D01*
X102828512Y-73218500D01*
X102830780Y-73218335D01*
X102830792Y-73218335D01*
X102961884Y-73208823D01*
X103029004Y-73203953D01*
X103033459Y-73202969D01*
X103033462Y-73202969D01*
X103287912Y-73146791D01*
X103287916Y-73146790D01*
X103292372Y-73145806D01*
X103418480Y-73098028D01*
X103540318Y-73051868D01*
X103540321Y-73051867D01*
X103544588Y-73050250D01*
X103780368Y-72919286D01*
X103994773Y-72755657D01*
X104183312Y-72562792D01*
X104342034Y-72344730D01*
X104425190Y-72186676D01*
X104465490Y-72110079D01*
X104465493Y-72110073D01*
X104467615Y-72106039D01*
X104530378Y-71928312D01*
X104555902Y-71856033D01*
X104555902Y-71856032D01*
X104557425Y-71851720D01*
X104609581Y-71587100D01*
X104618782Y-71402277D01*
X104622764Y-71322292D01*
X104622764Y-71322286D01*
X104622991Y-71317723D01*
X104597375Y-71049231D01*
X104552042Y-70863967D01*
X104534355Y-70791688D01*
X104533269Y-70787250D01*
X104432015Y-70537267D01*
X104295735Y-70304518D01*
X104177928Y-70157208D01*
X104130136Y-70097447D01*
X104130135Y-70097445D01*
X104127284Y-70093881D01*
X103930191Y-69909766D01*
X103708584Y-69756032D01*
X103704501Y-69754001D01*
X103704498Y-69753999D01*
X103539606Y-69671967D01*
X103467106Y-69635899D01*
X103462772Y-69634478D01*
X103462769Y-69634477D01*
X103215147Y-69553302D01*
X103215141Y-69553301D01*
X103210814Y-69551882D01*
X103206322Y-69551102D01*
X102948860Y-69506399D01*
X102948852Y-69506398D01*
X102945079Y-69505743D01*
X102933817Y-69505182D01*
X102861422Y-69501578D01*
X102861414Y-69501578D01*
X102859851Y-69501500D01*
X102691488Y-69501500D01*
X102689220Y-69501665D01*
X102689208Y-69501665D01*
X102558116Y-69511177D01*
X102490996Y-69516047D01*
X102486541Y-69517031D01*
X102486538Y-69517031D01*
X102232088Y-69573209D01*
X102232084Y-69573210D01*
X102227628Y-69574194D01*
X102101520Y-69621972D01*
X101979682Y-69668132D01*
X101979679Y-69668133D01*
X101975412Y-69669750D01*
X101739632Y-69800714D01*
X101736000Y-69803486D01*
X101570500Y-69929792D01*
X101525227Y-69964343D01*
X101336688Y-70157208D01*
X101177966Y-70375270D01*
X101175844Y-70379304D01*
X101054510Y-70609921D01*
X101054507Y-70609927D01*
X101052385Y-70613961D01*
X101050865Y-70618266D01*
X101050863Y-70618270D01*
X100983022Y-70810380D01*
X100962575Y-70868280D01*
X100961692Y-70872762D01*
X100912004Y-71124859D01*
X100910419Y-71132900D01*
X100910192Y-71137453D01*
X100910192Y-71137456D01*
X100900991Y-71322292D01*
X100897009Y-71402277D01*
X100203000Y-71402277D01*
X100203000Y-71173207D01*
X100204746Y-71152303D01*
X100207264Y-71137335D01*
X100208071Y-71132539D01*
X100208224Y-71120000D01*
X100206306Y-71106608D01*
X100205247Y-71081423D01*
X100220606Y-70817708D01*
X100222307Y-70803154D01*
X100273615Y-70512174D01*
X100276994Y-70497917D01*
X100361736Y-70214859D01*
X100366748Y-70201090D01*
X100411456Y-70097447D01*
X100483776Y-69929791D01*
X100490351Y-69916698D01*
X100635252Y-69665721D01*
X100638087Y-69660811D01*
X100646128Y-69648585D01*
X100822578Y-69411570D01*
X100831996Y-69400346D01*
X101034759Y-69185431D01*
X101045417Y-69175377D01*
X101271755Y-68985456D01*
X101283508Y-68976705D01*
X101530369Y-68814343D01*
X101543058Y-68807017D01*
X101807100Y-68674410D01*
X101820554Y-68668607D01*
X102098195Y-68567554D01*
X102112232Y-68563351D01*
X102399742Y-68495210D01*
X102414172Y-68492666D01*
X102707639Y-68458364D01*
X102722267Y-68457512D01*
X103017733Y-68457512D01*
X103032361Y-68458364D01*
G37*
%TD.AperFunction*%
%TD*%
M02*
