%TF.GenerationSoftware,KiCad,Pcbnew,(6.0.0)*%
%TF.CreationDate,2022-03-13T18:37:57-04:00*%
%TF.ProjectId,buffer PCB,62756666-6572-4205-9043-422e6b696361,rev?*%
%TF.SameCoordinates,Original*%
%TF.FileFunction,Legend,Top*%
%TF.FilePolarity,Positive*%
%FSLAX46Y46*%
G04 Gerber Fmt 4.6, Leading zero omitted, Abs format (unit mm)*
G04 Created by KiCad (PCBNEW (6.0.0)) date 2022-03-13 18:37:57*
%MOMM*%
%LPD*%
G01*
G04 APERTURE LIST*
%ADD10C,0.150000*%
%ADD11C,0.120000*%
%ADD12R,1.700000X1.700000*%
%ADD13O,1.700000X1.700000*%
%ADD14C,2.700000*%
%ADD15R,1.600000X1.600000*%
%ADD16O,1.600000X1.600000*%
G04 APERTURE END LIST*
D10*
X122552676Y-81232180D02*
X121981247Y-81232180D01*
X122266961Y-81232180D02*
X122266961Y-80232180D01*
X122171723Y-80375038D01*
X122076485Y-80470276D01*
X121981247Y-80517895D01*
X123409819Y-80232180D02*
X123219342Y-80232180D01*
X123124104Y-80279800D01*
X123076485Y-80327419D01*
X122981247Y-80470276D01*
X122933628Y-80660752D01*
X122933628Y-81041704D01*
X122981247Y-81136942D01*
X123028866Y-81184561D01*
X123124104Y-81232180D01*
X123314580Y-81232180D01*
X123409819Y-81184561D01*
X123457438Y-81136942D01*
X123505057Y-81041704D01*
X123505057Y-80803609D01*
X123457438Y-80708371D01*
X123409819Y-80660752D01*
X123314580Y-80613133D01*
X123124104Y-80613133D01*
X123028866Y-80660752D01*
X122981247Y-80708371D01*
X122933628Y-80803609D01*
X124362200Y-81184561D02*
X124266961Y-81232180D01*
X124076485Y-81232180D01*
X123981247Y-81184561D01*
X123933628Y-81136942D01*
X123886009Y-81041704D01*
X123886009Y-80755990D01*
X123933628Y-80660752D01*
X123981247Y-80613133D01*
X124076485Y-80565514D01*
X124266961Y-80565514D01*
X124362200Y-80613133D01*
X124790771Y-81232180D02*
X124790771Y-80232180D01*
X125219342Y-81232180D02*
X125219342Y-80708371D01*
X125171723Y-80613133D01*
X125076485Y-80565514D01*
X124933628Y-80565514D01*
X124838390Y-80613133D01*
X124790771Y-80660752D01*
X126600295Y-81232180D02*
X126505057Y-81184561D01*
X126457438Y-81089323D01*
X126457438Y-80232180D01*
X127124104Y-81232180D02*
X127028866Y-81184561D01*
X126981247Y-81136942D01*
X126933628Y-81041704D01*
X126933628Y-80755990D01*
X126981247Y-80660752D01*
X127028866Y-80613133D01*
X127124104Y-80565514D01*
X127266961Y-80565514D01*
X127362200Y-80613133D01*
X127409819Y-80660752D01*
X127457438Y-80755990D01*
X127457438Y-81041704D01*
X127409819Y-81136942D01*
X127362200Y-81184561D01*
X127266961Y-81232180D01*
X127124104Y-81232180D01*
X128314580Y-80565514D02*
X128314580Y-81375038D01*
X128266961Y-81470276D01*
X128219342Y-81517895D01*
X128124104Y-81565514D01*
X127981247Y-81565514D01*
X127886009Y-81517895D01*
X128314580Y-81184561D02*
X128219342Y-81232180D01*
X128028866Y-81232180D01*
X127933628Y-81184561D01*
X127886009Y-81136942D01*
X127838390Y-81041704D01*
X127838390Y-80755990D01*
X127886009Y-80660752D01*
X127933628Y-80613133D01*
X128028866Y-80565514D01*
X128219342Y-80565514D01*
X128314580Y-80613133D01*
X128790771Y-81232180D02*
X128790771Y-80565514D01*
X128790771Y-80232180D02*
X128743152Y-80279800D01*
X128790771Y-80327419D01*
X128838390Y-80279800D01*
X128790771Y-80232180D01*
X128790771Y-80327419D01*
X129695533Y-81184561D02*
X129600295Y-81232180D01*
X129409819Y-81232180D01*
X129314580Y-81184561D01*
X129266961Y-81136942D01*
X129219342Y-81041704D01*
X129219342Y-80755990D01*
X129266961Y-80660752D01*
X129314580Y-80613133D01*
X129409819Y-80565514D01*
X129600295Y-80565514D01*
X129695533Y-80613133D01*
X131314580Y-81232180D02*
X131314580Y-80708371D01*
X131266961Y-80613133D01*
X131171723Y-80565514D01*
X130981247Y-80565514D01*
X130886009Y-80613133D01*
X131314580Y-81184561D02*
X131219342Y-81232180D01*
X130981247Y-81232180D01*
X130886009Y-81184561D01*
X130838390Y-81089323D01*
X130838390Y-80994085D01*
X130886009Y-80898847D01*
X130981247Y-80851228D01*
X131219342Y-80851228D01*
X131314580Y-80803609D01*
X131790771Y-80565514D02*
X131790771Y-81232180D01*
X131790771Y-80660752D02*
X131838390Y-80613133D01*
X131933628Y-80565514D01*
X132076485Y-80565514D01*
X132171723Y-80613133D01*
X132219342Y-80708371D01*
X132219342Y-81232180D01*
X133124104Y-81232180D02*
X133124104Y-80708371D01*
X133076485Y-80613133D01*
X132981247Y-80565514D01*
X132790771Y-80565514D01*
X132695533Y-80613133D01*
X133124104Y-81184561D02*
X133028866Y-81232180D01*
X132790771Y-81232180D01*
X132695533Y-81184561D01*
X132647914Y-81089323D01*
X132647914Y-80994085D01*
X132695533Y-80898847D01*
X132790771Y-80851228D01*
X133028866Y-80851228D01*
X133124104Y-80803609D01*
X133743152Y-81232180D02*
X133647914Y-81184561D01*
X133600295Y-81089323D01*
X133600295Y-80232180D01*
X134028866Y-80565514D02*
X134266961Y-81232180D01*
X134505057Y-80565514D02*
X134266961Y-81232180D01*
X134171723Y-81470276D01*
X134124104Y-81517895D01*
X134028866Y-81565514D01*
X134790771Y-80565514D02*
X135314580Y-80565514D01*
X134790771Y-81232180D01*
X135314580Y-81232180D01*
X136076485Y-81184561D02*
X135981247Y-81232180D01*
X135790771Y-81232180D01*
X135695533Y-81184561D01*
X135647914Y-81089323D01*
X135647914Y-80708371D01*
X135695533Y-80613133D01*
X135790771Y-80565514D01*
X135981247Y-80565514D01*
X136076485Y-80613133D01*
X136124104Y-80708371D01*
X136124104Y-80803609D01*
X135647914Y-80898847D01*
X136552676Y-81232180D02*
X136552676Y-80565514D01*
X136552676Y-80755990D02*
X136600295Y-80660752D01*
X136647914Y-80613133D01*
X136743152Y-80565514D01*
X136838390Y-80565514D01*
X124886009Y-82842180D02*
X124886009Y-81842180D01*
X124886009Y-82223133D02*
X124981247Y-82175514D01*
X125171723Y-82175514D01*
X125266961Y-82223133D01*
X125314580Y-82270752D01*
X125362200Y-82365990D01*
X125362200Y-82651704D01*
X125314580Y-82746942D01*
X125266961Y-82794561D01*
X125171723Y-82842180D01*
X124981247Y-82842180D01*
X124886009Y-82794561D01*
X126219342Y-82175514D02*
X126219342Y-82842180D01*
X125790771Y-82175514D02*
X125790771Y-82699323D01*
X125838390Y-82794561D01*
X125933628Y-82842180D01*
X126076485Y-82842180D01*
X126171723Y-82794561D01*
X126219342Y-82746942D01*
X126552676Y-82175514D02*
X126933628Y-82175514D01*
X126695533Y-82842180D02*
X126695533Y-81985038D01*
X126743152Y-81889800D01*
X126838390Y-81842180D01*
X126933628Y-81842180D01*
X127124104Y-82175514D02*
X127505057Y-82175514D01*
X127266961Y-82842180D02*
X127266961Y-81985038D01*
X127314580Y-81889800D01*
X127409819Y-81842180D01*
X127505057Y-81842180D01*
X128219342Y-82794561D02*
X128124104Y-82842180D01*
X127933628Y-82842180D01*
X127838390Y-82794561D01*
X127790771Y-82699323D01*
X127790771Y-82318371D01*
X127838390Y-82223133D01*
X127933628Y-82175514D01*
X128124104Y-82175514D01*
X128219342Y-82223133D01*
X128266961Y-82318371D01*
X128266961Y-82413609D01*
X127790771Y-82508847D01*
X128695533Y-82842180D02*
X128695533Y-82175514D01*
X128695533Y-82365990D02*
X128743152Y-82270752D01*
X128790771Y-82223133D01*
X128886009Y-82175514D01*
X128981247Y-82175514D01*
X130076485Y-82842180D02*
X130076485Y-81842180D01*
X130076485Y-82223133D02*
X130171723Y-82175514D01*
X130362200Y-82175514D01*
X130457438Y-82223133D01*
X130505057Y-82270752D01*
X130552676Y-82365990D01*
X130552676Y-82651704D01*
X130505057Y-82746942D01*
X130457438Y-82794561D01*
X130362200Y-82842180D01*
X130171723Y-82842180D01*
X130076485Y-82794561D01*
X131124104Y-82842180D02*
X131028866Y-82794561D01*
X130981247Y-82746942D01*
X130933628Y-82651704D01*
X130933628Y-82365990D01*
X130981247Y-82270752D01*
X131028866Y-82223133D01*
X131124104Y-82175514D01*
X131266961Y-82175514D01*
X131362200Y-82223133D01*
X131409819Y-82270752D01*
X131457438Y-82365990D01*
X131457438Y-82651704D01*
X131409819Y-82746942D01*
X131362200Y-82794561D01*
X131266961Y-82842180D01*
X131124104Y-82842180D01*
X132314580Y-82842180D02*
X132314580Y-82318371D01*
X132266961Y-82223133D01*
X132171723Y-82175514D01*
X131981247Y-82175514D01*
X131886009Y-82223133D01*
X132314580Y-82794561D02*
X132219342Y-82842180D01*
X131981247Y-82842180D01*
X131886009Y-82794561D01*
X131838390Y-82699323D01*
X131838390Y-82604085D01*
X131886009Y-82508847D01*
X131981247Y-82461228D01*
X132219342Y-82461228D01*
X132314580Y-82413609D01*
X132790771Y-82842180D02*
X132790771Y-82175514D01*
X132790771Y-82365990D02*
X132838390Y-82270752D01*
X132886009Y-82223133D01*
X132981247Y-82175514D01*
X133076485Y-82175514D01*
X133838390Y-82842180D02*
X133838390Y-81842180D01*
X133838390Y-82794561D02*
X133743152Y-82842180D01*
X133552676Y-82842180D01*
X133457438Y-82794561D01*
X133409819Y-82746942D01*
X133362200Y-82651704D01*
X133362200Y-82365990D01*
X133409819Y-82270752D01*
X133457438Y-82223133D01*
X133552676Y-82175514D01*
X133743152Y-82175514D01*
X133838390Y-82223133D01*
X101328057Y-80614780D02*
X101328057Y-80090971D01*
X101280438Y-79995733D01*
X101185200Y-79948114D01*
X100994723Y-79948114D01*
X100899485Y-79995733D01*
X101328057Y-80567161D02*
X101232819Y-80614780D01*
X100994723Y-80614780D01*
X100899485Y-80567161D01*
X100851866Y-80471923D01*
X100851866Y-80376685D01*
X100899485Y-80281447D01*
X100994723Y-80233828D01*
X101232819Y-80233828D01*
X101328057Y-80186209D01*
X101804247Y-80614780D02*
X101804247Y-79614780D01*
X101804247Y-79995733D02*
X101899485Y-79948114D01*
X102089961Y-79948114D01*
X102185200Y-79995733D01*
X102232819Y-80043352D01*
X102280438Y-80138590D01*
X102280438Y-80424304D01*
X102232819Y-80519542D01*
X102185200Y-80567161D01*
X102089961Y-80614780D01*
X101899485Y-80614780D01*
X101804247Y-80567161D01*
X102613771Y-79948114D02*
X103137580Y-79948114D01*
X102613771Y-80614780D01*
X103137580Y-80614780D01*
X103518533Y-80614780D02*
X103518533Y-79948114D01*
X103518533Y-80043352D02*
X103566152Y-79995733D01*
X103661390Y-79948114D01*
X103804247Y-79948114D01*
X103899485Y-79995733D01*
X103947104Y-80090971D01*
X103947104Y-80614780D01*
X103947104Y-80090971D02*
X103994723Y-79995733D01*
X104089961Y-79948114D01*
X104232819Y-79948114D01*
X104328057Y-79995733D01*
X104375676Y-80090971D01*
X104375676Y-80614780D01*
X105280438Y-80614780D02*
X105280438Y-80090971D01*
X105232819Y-79995733D01*
X105137580Y-79948114D01*
X104947104Y-79948114D01*
X104851866Y-79995733D01*
X105280438Y-80567161D02*
X105185200Y-80614780D01*
X104947104Y-80614780D01*
X104851866Y-80567161D01*
X104804247Y-80471923D01*
X104804247Y-80376685D01*
X104851866Y-80281447D01*
X104947104Y-80233828D01*
X105185200Y-80233828D01*
X105280438Y-80186209D01*
X105756628Y-79948114D02*
X105756628Y-80614780D01*
X105756628Y-80043352D02*
X105804247Y-79995733D01*
X105899485Y-79948114D01*
X106042342Y-79948114D01*
X106137580Y-79995733D01*
X106185200Y-80090971D01*
X106185200Y-80614780D01*
X106613771Y-79710019D02*
X106661390Y-79662400D01*
X106756628Y-79614780D01*
X106994723Y-79614780D01*
X107089961Y-79662400D01*
X107137580Y-79710019D01*
X107185200Y-79805257D01*
X107185200Y-79900495D01*
X107137580Y-80043352D01*
X106566152Y-80614780D01*
X107185200Y-80614780D01*
X107613771Y-80614780D02*
X107613771Y-79614780D01*
X107709009Y-80233828D02*
X107994723Y-80614780D01*
X107994723Y-79948114D02*
X107613771Y-80329066D01*
X108423295Y-80519542D02*
X108470914Y-80567161D01*
X108423295Y-80614780D01*
X108375676Y-80567161D01*
X108423295Y-80519542D01*
X108423295Y-80614780D01*
X108804247Y-79948114D02*
X108994723Y-80614780D01*
X109185200Y-80138590D01*
X109375676Y-80614780D01*
X109566152Y-79948114D01*
X110089961Y-80614780D02*
X109994723Y-80567161D01*
X109947104Y-80519542D01*
X109899485Y-80424304D01*
X109899485Y-80138590D01*
X109947104Y-80043352D01*
X109994723Y-79995733D01*
X110089961Y-79948114D01*
X110232819Y-79948114D01*
X110328057Y-79995733D01*
X110375676Y-80043352D01*
X110423295Y-80138590D01*
X110423295Y-80424304D01*
X110375676Y-80519542D01*
X110328057Y-80567161D01*
X110232819Y-80614780D01*
X110089961Y-80614780D01*
X110851866Y-80614780D02*
X110851866Y-79948114D01*
X110851866Y-80138590D02*
X110899485Y-80043352D01*
X110947104Y-79995733D01*
X111042342Y-79948114D01*
X111137580Y-79948114D01*
X111899485Y-80614780D02*
X111899485Y-79614780D01*
X111899485Y-80567161D02*
X111804247Y-80614780D01*
X111613771Y-80614780D01*
X111518533Y-80567161D01*
X111470914Y-80519542D01*
X111423295Y-80424304D01*
X111423295Y-80138590D01*
X111470914Y-80043352D01*
X111518533Y-79995733D01*
X111613771Y-79948114D01*
X111804247Y-79948114D01*
X111899485Y-79995733D01*
X112375676Y-79948114D02*
X112375676Y-80948114D01*
X112375676Y-79995733D02*
X112470914Y-79948114D01*
X112661390Y-79948114D01*
X112756628Y-79995733D01*
X112804247Y-80043352D01*
X112851866Y-80138590D01*
X112851866Y-80424304D01*
X112804247Y-80519542D01*
X112756628Y-80567161D01*
X112661390Y-80614780D01*
X112470914Y-80614780D01*
X112375676Y-80567161D01*
X113280438Y-80614780D02*
X113280438Y-79948114D01*
X113280438Y-80138590D02*
X113328057Y-80043352D01*
X113375676Y-79995733D01*
X113470914Y-79948114D01*
X113566152Y-79948114D01*
X114280438Y-80567161D02*
X114185200Y-80614780D01*
X113994723Y-80614780D01*
X113899485Y-80567161D01*
X113851866Y-80471923D01*
X113851866Y-80090971D01*
X113899485Y-79995733D01*
X113994723Y-79948114D01*
X114185200Y-79948114D01*
X114280438Y-79995733D01*
X114328057Y-80090971D01*
X114328057Y-80186209D01*
X113851866Y-80281447D01*
X114709009Y-80567161D02*
X114804247Y-80614780D01*
X114994723Y-80614780D01*
X115089961Y-80567161D01*
X115137580Y-80471923D01*
X115137580Y-80424304D01*
X115089961Y-80329066D01*
X114994723Y-80281447D01*
X114851866Y-80281447D01*
X114756628Y-80233828D01*
X114709009Y-80138590D01*
X114709009Y-80090971D01*
X114756628Y-79995733D01*
X114851866Y-79948114D01*
X114994723Y-79948114D01*
X115089961Y-79995733D01*
X115518533Y-80567161D02*
X115613771Y-80614780D01*
X115804247Y-80614780D01*
X115899485Y-80567161D01*
X115947104Y-80471923D01*
X115947104Y-80424304D01*
X115899485Y-80329066D01*
X115804247Y-80281447D01*
X115661390Y-80281447D01*
X115566152Y-80233828D01*
X115518533Y-80138590D01*
X115518533Y-80090971D01*
X115566152Y-79995733D01*
X115661390Y-79948114D01*
X115804247Y-79948114D01*
X115899485Y-79995733D01*
X116375676Y-80519542D02*
X116423295Y-80567161D01*
X116375676Y-80614780D01*
X116328057Y-80567161D01*
X116375676Y-80519542D01*
X116375676Y-80614780D01*
X117280438Y-80567161D02*
X117185200Y-80614780D01*
X116994723Y-80614780D01*
X116899485Y-80567161D01*
X116851866Y-80519542D01*
X116804247Y-80424304D01*
X116804247Y-80138590D01*
X116851866Y-80043352D01*
X116899485Y-79995733D01*
X116994723Y-79948114D01*
X117185200Y-79948114D01*
X117280438Y-79995733D01*
X117851866Y-80614780D02*
X117756628Y-80567161D01*
X117709009Y-80519542D01*
X117661390Y-80424304D01*
X117661390Y-80138590D01*
X117709009Y-80043352D01*
X117756628Y-79995733D01*
X117851866Y-79948114D01*
X117994723Y-79948114D01*
X118089961Y-79995733D01*
X118137580Y-80043352D01*
X118185200Y-80138590D01*
X118185200Y-80424304D01*
X118137580Y-80519542D01*
X118089961Y-80567161D01*
X117994723Y-80614780D01*
X117851866Y-80614780D01*
X118613771Y-80614780D02*
X118613771Y-79948114D01*
X118613771Y-80043352D02*
X118661390Y-79995733D01*
X118756628Y-79948114D01*
X118899485Y-79948114D01*
X118994723Y-79995733D01*
X119042342Y-80090971D01*
X119042342Y-80614780D01*
X119042342Y-80090971D02*
X119089961Y-79995733D01*
X119185200Y-79948114D01*
X119328057Y-79948114D01*
X119423295Y-79995733D01*
X119470914Y-80090971D01*
X119470914Y-80614780D01*
X133634409Y-75364780D02*
X133634409Y-74364780D01*
X134015361Y-74364780D01*
X134110600Y-74412400D01*
X134158219Y-74460019D01*
X134205838Y-74555257D01*
X134205838Y-74698114D01*
X134158219Y-74793352D01*
X134110600Y-74840971D01*
X134015361Y-74888590D01*
X133634409Y-74888590D01*
X134777266Y-75364780D02*
X134682028Y-75317161D01*
X134634409Y-75269542D01*
X134586790Y-75174304D01*
X134586790Y-74888590D01*
X134634409Y-74793352D01*
X134682028Y-74745733D01*
X134777266Y-74698114D01*
X134920123Y-74698114D01*
X135015361Y-74745733D01*
X135062980Y-74793352D01*
X135110600Y-74888590D01*
X135110600Y-75174304D01*
X135062980Y-75269542D01*
X135015361Y-75317161D01*
X134920123Y-75364780D01*
X134777266Y-75364780D01*
X135443933Y-74698114D02*
X135634409Y-75364780D01*
X135824885Y-74888590D01*
X136015361Y-75364780D01*
X136205838Y-74698114D01*
X136967742Y-75317161D02*
X136872504Y-75364780D01*
X136682028Y-75364780D01*
X136586790Y-75317161D01*
X136539171Y-75221923D01*
X136539171Y-74840971D01*
X136586790Y-74745733D01*
X136682028Y-74698114D01*
X136872504Y-74698114D01*
X136967742Y-74745733D01*
X137015361Y-74840971D01*
X137015361Y-74936209D01*
X136539171Y-75031447D01*
X137443933Y-75364780D02*
X137443933Y-74698114D01*
X137443933Y-74888590D02*
X137491552Y-74793352D01*
X137539171Y-74745733D01*
X137634409Y-74698114D01*
X137729647Y-74698114D01*
X133753457Y-76450971D02*
X133896314Y-76498590D01*
X133943933Y-76546209D01*
X133991552Y-76641447D01*
X133991552Y-76784304D01*
X133943933Y-76879542D01*
X133896314Y-76927161D01*
X133801076Y-76974780D01*
X133420123Y-76974780D01*
X133420123Y-75974780D01*
X133753457Y-75974780D01*
X133848695Y-76022400D01*
X133896314Y-76070019D01*
X133943933Y-76165257D01*
X133943933Y-76260495D01*
X133896314Y-76355733D01*
X133848695Y-76403352D01*
X133753457Y-76450971D01*
X133420123Y-76450971D01*
X134848695Y-76308114D02*
X134848695Y-76974780D01*
X134420123Y-76308114D02*
X134420123Y-76831923D01*
X134467742Y-76927161D01*
X134562980Y-76974780D01*
X134705838Y-76974780D01*
X134801076Y-76927161D01*
X134848695Y-76879542D01*
X135182028Y-76308114D02*
X135562980Y-76308114D01*
X135324885Y-75974780D02*
X135324885Y-76831923D01*
X135372504Y-76927161D01*
X135467742Y-76974780D01*
X135562980Y-76974780D01*
X135753457Y-76308114D02*
X136134409Y-76308114D01*
X135896314Y-75974780D02*
X135896314Y-76831923D01*
X135943933Y-76927161D01*
X136039171Y-76974780D01*
X136134409Y-76974780D01*
X136610600Y-76974780D02*
X136515361Y-76927161D01*
X136467742Y-76879542D01*
X136420123Y-76784304D01*
X136420123Y-76498590D01*
X136467742Y-76403352D01*
X136515361Y-76355733D01*
X136610600Y-76308114D01*
X136753457Y-76308114D01*
X136848695Y-76355733D01*
X136896314Y-76403352D01*
X136943933Y-76498590D01*
X136943933Y-76784304D01*
X136896314Y-76879542D01*
X136848695Y-76927161D01*
X136753457Y-76974780D01*
X136610600Y-76974780D01*
X137372504Y-76308114D02*
X137372504Y-76974780D01*
X137372504Y-76403352D02*
X137420123Y-76355733D01*
X137515361Y-76308114D01*
X137658219Y-76308114D01*
X137753457Y-76355733D01*
X137801076Y-76450971D01*
X137801076Y-76974780D01*
X120852657Y-84061171D02*
X120519323Y-84061171D01*
X120519323Y-84584980D02*
X120519323Y-83584980D01*
X120995514Y-83584980D01*
X121519323Y-84584980D02*
X121424085Y-84537361D01*
X121376466Y-84489742D01*
X121328847Y-84394504D01*
X121328847Y-84108790D01*
X121376466Y-84013552D01*
X121424085Y-83965933D01*
X121519323Y-83918314D01*
X121662180Y-83918314D01*
X121757419Y-83965933D01*
X121805038Y-84013552D01*
X121852657Y-84108790D01*
X121852657Y-84394504D01*
X121805038Y-84489742D01*
X121757419Y-84537361D01*
X121662180Y-84584980D01*
X121519323Y-84584980D01*
X122281228Y-84584980D02*
X122281228Y-83918314D01*
X122281228Y-84108790D02*
X122328847Y-84013552D01*
X122376466Y-83965933D01*
X122471704Y-83918314D01*
X122566942Y-83918314D01*
X124138371Y-84584980D02*
X123662180Y-84584980D01*
X123662180Y-83584980D01*
X124900276Y-84537361D02*
X124805038Y-84584980D01*
X124614561Y-84584980D01*
X124519323Y-84537361D01*
X124471704Y-84489742D01*
X124424085Y-84394504D01*
X124424085Y-84108790D01*
X124471704Y-84013552D01*
X124519323Y-83965933D01*
X124614561Y-83918314D01*
X124805038Y-83918314D01*
X124900276Y-83965933D01*
X125281228Y-84537361D02*
X125376466Y-84584980D01*
X125566942Y-84584980D01*
X125662180Y-84537361D01*
X125709800Y-84442123D01*
X125709800Y-84394504D01*
X125662180Y-84299266D01*
X125566942Y-84251647D01*
X125424085Y-84251647D01*
X125328847Y-84204028D01*
X125281228Y-84108790D01*
X125281228Y-84061171D01*
X125328847Y-83965933D01*
X125424085Y-83918314D01*
X125566942Y-83918314D01*
X125662180Y-83965933D01*
X126281228Y-84584980D02*
X126185990Y-84537361D01*
X126138371Y-84489742D01*
X126090752Y-84394504D01*
X126090752Y-84108790D01*
X126138371Y-84013552D01*
X126185990Y-83965933D01*
X126281228Y-83918314D01*
X126424085Y-83918314D01*
X126519323Y-83965933D01*
X126566942Y-84013552D01*
X126614561Y-84108790D01*
X126614561Y-84394504D01*
X126566942Y-84489742D01*
X126519323Y-84537361D01*
X126424085Y-84584980D01*
X126281228Y-84584980D01*
X126900276Y-83918314D02*
X127281228Y-83918314D01*
X127043133Y-84584980D02*
X127043133Y-83727838D01*
X127090752Y-83632600D01*
X127185990Y-83584980D01*
X127281228Y-83584980D01*
X127471704Y-83918314D02*
X127852657Y-83918314D01*
X127614561Y-83584980D02*
X127614561Y-84442123D01*
X127662180Y-84537361D01*
X127757419Y-84584980D01*
X127852657Y-84584980D01*
X129519323Y-84489742D02*
X129471704Y-84537361D01*
X129328847Y-84584980D01*
X129233609Y-84584980D01*
X129090752Y-84537361D01*
X128995514Y-84442123D01*
X128947895Y-84346885D01*
X128900276Y-84156409D01*
X128900276Y-84013552D01*
X128947895Y-83823076D01*
X128995514Y-83727838D01*
X129090752Y-83632600D01*
X129233609Y-83584980D01*
X129328847Y-83584980D01*
X129471704Y-83632600D01*
X129519323Y-83680219D01*
X130138371Y-84108790D02*
X130138371Y-84584980D01*
X129805038Y-83584980D02*
X130138371Y-84108790D01*
X130471704Y-83584980D01*
X130709800Y-83584980D02*
X131376466Y-83584980D01*
X130947895Y-84584980D01*
X132328847Y-84489742D02*
X132281228Y-84537361D01*
X132138371Y-84584980D01*
X132043133Y-84584980D01*
X131900276Y-84537361D01*
X131805038Y-84442123D01*
X131757419Y-84346885D01*
X131709800Y-84156409D01*
X131709800Y-84013552D01*
X131757419Y-83823076D01*
X131805038Y-83727838D01*
X131900276Y-83632600D01*
X132043133Y-83584980D01*
X132138371Y-83584980D01*
X132281228Y-83632600D01*
X132328847Y-83680219D01*
X133185990Y-83584980D02*
X132995514Y-83584980D01*
X132900276Y-83632600D01*
X132852657Y-83680219D01*
X132757419Y-83823076D01*
X132709800Y-84013552D01*
X132709800Y-84394504D01*
X132757419Y-84489742D01*
X132805038Y-84537361D01*
X132900276Y-84584980D01*
X133090752Y-84584980D01*
X133185990Y-84537361D01*
X133233609Y-84489742D01*
X133281228Y-84394504D01*
X133281228Y-84156409D01*
X133233609Y-84061171D01*
X133185990Y-84013552D01*
X133090752Y-83965933D01*
X132900276Y-83965933D01*
X132805038Y-84013552D01*
X132757419Y-84061171D01*
X132709800Y-84156409D01*
X133852657Y-84013552D02*
X133757419Y-83965933D01*
X133709800Y-83918314D01*
X133662180Y-83823076D01*
X133662180Y-83775457D01*
X133709800Y-83680219D01*
X133757419Y-83632600D01*
X133852657Y-83584980D01*
X134043133Y-83584980D01*
X134138371Y-83632600D01*
X134185990Y-83680219D01*
X134233609Y-83775457D01*
X134233609Y-83823076D01*
X134185990Y-83918314D01*
X134138371Y-83965933D01*
X134043133Y-84013552D01*
X133852657Y-84013552D01*
X133757419Y-84061171D01*
X133709800Y-84108790D01*
X133662180Y-84204028D01*
X133662180Y-84394504D01*
X133709800Y-84489742D01*
X133757419Y-84537361D01*
X133852657Y-84584980D01*
X134043133Y-84584980D01*
X134138371Y-84537361D01*
X134185990Y-84489742D01*
X134233609Y-84394504D01*
X134233609Y-84204028D01*
X134185990Y-84108790D01*
X134138371Y-84061171D01*
X134043133Y-84013552D01*
X134852657Y-83584980D02*
X134947895Y-83584980D01*
X135043133Y-83632600D01*
X135090752Y-83680219D01*
X135138371Y-83775457D01*
X135185990Y-83965933D01*
X135185990Y-84204028D01*
X135138371Y-84394504D01*
X135090752Y-84489742D01*
X135043133Y-84537361D01*
X134947895Y-84584980D01*
X134852657Y-84584980D01*
X134757419Y-84537361D01*
X134709800Y-84489742D01*
X134662180Y-84394504D01*
X134614561Y-84204028D01*
X134614561Y-83965933D01*
X134662180Y-83775457D01*
X134709800Y-83680219D01*
X134757419Y-83632600D01*
X134852657Y-83584980D01*
X136138371Y-84584980D02*
X135566942Y-84584980D01*
X135852657Y-84584980D02*
X135852657Y-83584980D01*
X135757419Y-83727838D01*
X135662180Y-83823076D01*
X135566942Y-83870695D01*
X136471704Y-83584980D02*
X137090752Y-83584980D01*
X136757419Y-83965933D01*
X136900276Y-83965933D01*
X136995514Y-84013552D01*
X137043133Y-84061171D01*
X137090752Y-84156409D01*
X137090752Y-84394504D01*
X137043133Y-84489742D01*
X136995514Y-84537361D01*
X136900276Y-84584980D01*
X136614561Y-84584980D01*
X136519323Y-84537361D01*
X136471704Y-84489742D01*
X137471704Y-84299266D02*
X137947895Y-84299266D01*
X137376466Y-84584980D02*
X137709800Y-83584980D01*
X138043133Y-84584980D01*
X125400276Y-86194980D02*
X125400276Y-85194980D01*
X125733609Y-85909266D01*
X126066942Y-85194980D01*
X126066942Y-86194980D01*
X126543133Y-86194980D02*
X126543133Y-85528314D01*
X126543133Y-85194980D02*
X126495514Y-85242600D01*
X126543133Y-85290219D01*
X126590752Y-85242600D01*
X126543133Y-85194980D01*
X126543133Y-85290219D01*
X127019323Y-85528314D02*
X127019323Y-86194980D01*
X127019323Y-85623552D02*
X127066942Y-85575933D01*
X127162180Y-85528314D01*
X127305038Y-85528314D01*
X127400276Y-85575933D01*
X127447895Y-85671171D01*
X127447895Y-86194980D01*
X127924085Y-86194980D02*
X127924085Y-85528314D01*
X127924085Y-85194980D02*
X127876466Y-85242600D01*
X127924085Y-85290219D01*
X127971704Y-85242600D01*
X127924085Y-85194980D01*
X127924085Y-85290219D01*
X129495514Y-85671171D02*
X129638371Y-85718790D01*
X129685990Y-85766409D01*
X129733609Y-85861647D01*
X129733609Y-86004504D01*
X129685990Y-86099742D01*
X129638371Y-86147361D01*
X129543133Y-86194980D01*
X129162180Y-86194980D01*
X129162180Y-85194980D01*
X129495514Y-85194980D01*
X129590752Y-85242600D01*
X129638371Y-85290219D01*
X129685990Y-85385457D01*
X129685990Y-85480695D01*
X129638371Y-85575933D01*
X129590752Y-85623552D01*
X129495514Y-85671171D01*
X129162180Y-85671171D01*
X130305038Y-86194980D02*
X130209800Y-86147361D01*
X130162180Y-86099742D01*
X130114561Y-86004504D01*
X130114561Y-85718790D01*
X130162180Y-85623552D01*
X130209800Y-85575933D01*
X130305038Y-85528314D01*
X130447895Y-85528314D01*
X130543133Y-85575933D01*
X130590752Y-85623552D01*
X130638371Y-85718790D01*
X130638371Y-86004504D01*
X130590752Y-86099742D01*
X130543133Y-86147361D01*
X130447895Y-86194980D01*
X130305038Y-86194980D01*
X131495514Y-86194980D02*
X131495514Y-85671171D01*
X131447895Y-85575933D01*
X131352657Y-85528314D01*
X131162180Y-85528314D01*
X131066942Y-85575933D01*
X131495514Y-86147361D02*
X131400276Y-86194980D01*
X131162180Y-86194980D01*
X131066942Y-86147361D01*
X131019323Y-86052123D01*
X131019323Y-85956885D01*
X131066942Y-85861647D01*
X131162180Y-85814028D01*
X131400276Y-85814028D01*
X131495514Y-85766409D01*
X131971704Y-86194980D02*
X131971704Y-85528314D01*
X131971704Y-85718790D02*
X132019323Y-85623552D01*
X132066942Y-85575933D01*
X132162180Y-85528314D01*
X132257419Y-85528314D01*
X133019323Y-86194980D02*
X133019323Y-85194980D01*
X133019323Y-86147361D02*
X132924085Y-86194980D01*
X132733609Y-86194980D01*
X132638371Y-86147361D01*
X132590752Y-86099742D01*
X132543133Y-86004504D01*
X132543133Y-85718790D01*
X132590752Y-85623552D01*
X132638371Y-85575933D01*
X132733609Y-85528314D01*
X132924085Y-85528314D01*
X133019323Y-85575933D01*
X101946961Y-114410942D02*
X101899342Y-114458561D01*
X101756485Y-114506180D01*
X101661247Y-114506180D01*
X101518390Y-114458561D01*
X101423152Y-114363323D01*
X101375533Y-114268085D01*
X101327914Y-114077609D01*
X101327914Y-113934752D01*
X101375533Y-113744276D01*
X101423152Y-113649038D01*
X101518390Y-113553800D01*
X101661247Y-113506180D01*
X101756485Y-113506180D01*
X101899342Y-113553800D01*
X101946961Y-113601419D01*
X102804104Y-113839514D02*
X102804104Y-114506180D01*
X102375533Y-113839514D02*
X102375533Y-114363323D01*
X102423152Y-114458561D01*
X102518390Y-114506180D01*
X102661247Y-114506180D01*
X102756485Y-114458561D01*
X102804104Y-114410942D01*
X103137438Y-113839514D02*
X103518390Y-113839514D01*
X103280295Y-113506180D02*
X103280295Y-114363323D01*
X103327914Y-114458561D01*
X103423152Y-114506180D01*
X103518390Y-114506180D01*
X104613628Y-114506180D02*
X104613628Y-113506180D01*
X105042200Y-114506180D02*
X105042200Y-113982371D01*
X104994580Y-113887133D01*
X104899342Y-113839514D01*
X104756485Y-113839514D01*
X104661247Y-113887133D01*
X104613628Y-113934752D01*
X105899342Y-114458561D02*
X105804104Y-114506180D01*
X105613628Y-114506180D01*
X105518390Y-114458561D01*
X105470771Y-114363323D01*
X105470771Y-113982371D01*
X105518390Y-113887133D01*
X105613628Y-113839514D01*
X105804104Y-113839514D01*
X105899342Y-113887133D01*
X105946961Y-113982371D01*
X105946961Y-114077609D01*
X105470771Y-114172847D01*
X106375533Y-114506180D02*
X106375533Y-113839514D01*
X106375533Y-114029990D02*
X106423152Y-113934752D01*
X106470771Y-113887133D01*
X106566009Y-113839514D01*
X106661247Y-113839514D01*
X107375533Y-114458561D02*
X107280295Y-114506180D01*
X107089819Y-114506180D01*
X106994580Y-114458561D01*
X106946961Y-114363323D01*
X106946961Y-113982371D01*
X106994580Y-113887133D01*
X107089819Y-113839514D01*
X107280295Y-113839514D01*
X107375533Y-113887133D01*
X107423152Y-113982371D01*
X107423152Y-114077609D01*
X106946961Y-114172847D01*
X109042200Y-114506180D02*
X109042200Y-113982371D01*
X108994580Y-113887133D01*
X108899342Y-113839514D01*
X108708866Y-113839514D01*
X108613628Y-113887133D01*
X109042200Y-114458561D02*
X108946961Y-114506180D01*
X108708866Y-114506180D01*
X108613628Y-114458561D01*
X108566009Y-114363323D01*
X108566009Y-114268085D01*
X108613628Y-114172847D01*
X108708866Y-114125228D01*
X108946961Y-114125228D01*
X109042200Y-114077609D01*
X109518390Y-113839514D02*
X109518390Y-114506180D01*
X109518390Y-113934752D02*
X109566009Y-113887133D01*
X109661247Y-113839514D01*
X109804104Y-113839514D01*
X109899342Y-113887133D01*
X109946961Y-113982371D01*
X109946961Y-114506180D01*
X110851723Y-114506180D02*
X110851723Y-113506180D01*
X110851723Y-114458561D02*
X110756485Y-114506180D01*
X110566009Y-114506180D01*
X110470771Y-114458561D01*
X110423152Y-114410942D01*
X110375533Y-114315704D01*
X110375533Y-114029990D01*
X110423152Y-113934752D01*
X110470771Y-113887133D01*
X110566009Y-113839514D01*
X110756485Y-113839514D01*
X110851723Y-113887133D01*
X112089819Y-113839514D02*
X112089819Y-114696657D01*
X112042200Y-114791895D01*
X111946961Y-114839514D01*
X111899342Y-114839514D01*
X112089819Y-113506180D02*
X112042200Y-113553800D01*
X112089819Y-113601419D01*
X112137438Y-113553800D01*
X112089819Y-113506180D01*
X112089819Y-113601419D01*
X112994580Y-113839514D02*
X112994580Y-114506180D01*
X112566009Y-113839514D02*
X112566009Y-114363323D01*
X112613628Y-114458561D01*
X112708866Y-114506180D01*
X112851723Y-114506180D01*
X112946961Y-114458561D01*
X112994580Y-114410942D01*
X113470771Y-114506180D02*
X113470771Y-113839514D01*
X113470771Y-113934752D02*
X113518390Y-113887133D01*
X113613628Y-113839514D01*
X113756485Y-113839514D01*
X113851723Y-113887133D01*
X113899342Y-113982371D01*
X113899342Y-114506180D01*
X113899342Y-113982371D02*
X113946961Y-113887133D01*
X114042200Y-113839514D01*
X114185057Y-113839514D01*
X114280295Y-113887133D01*
X114327914Y-113982371D01*
X114327914Y-114506180D01*
X114804104Y-113839514D02*
X114804104Y-114839514D01*
X114804104Y-113887133D02*
X114899342Y-113839514D01*
X115089819Y-113839514D01*
X115185057Y-113887133D01*
X115232676Y-113934752D01*
X115280295Y-114029990D01*
X115280295Y-114315704D01*
X115232676Y-114410942D01*
X115185057Y-114458561D01*
X115089819Y-114506180D01*
X114899342Y-114506180D01*
X114804104Y-114458561D01*
X116089819Y-114458561D02*
X115994580Y-114506180D01*
X115804104Y-114506180D01*
X115708866Y-114458561D01*
X115661247Y-114363323D01*
X115661247Y-113982371D01*
X115708866Y-113887133D01*
X115804104Y-113839514D01*
X115994580Y-113839514D01*
X116089819Y-113887133D01*
X116137438Y-113982371D01*
X116137438Y-114077609D01*
X115661247Y-114172847D01*
X116566009Y-114506180D02*
X116566009Y-113839514D01*
X116566009Y-114029990D02*
X116613628Y-113934752D01*
X116661247Y-113887133D01*
X116756485Y-113839514D01*
X116851723Y-113839514D01*
X102518390Y-115449514D02*
X102899342Y-115449514D01*
X102661247Y-115116180D02*
X102661247Y-115973323D01*
X102708866Y-116068561D01*
X102804104Y-116116180D01*
X102899342Y-116116180D01*
X103375533Y-116116180D02*
X103280295Y-116068561D01*
X103232676Y-116020942D01*
X103185057Y-115925704D01*
X103185057Y-115639990D01*
X103232676Y-115544752D01*
X103280295Y-115497133D01*
X103375533Y-115449514D01*
X103518390Y-115449514D01*
X103613628Y-115497133D01*
X103661247Y-115544752D01*
X103708866Y-115639990D01*
X103708866Y-115925704D01*
X103661247Y-116020942D01*
X103613628Y-116068561D01*
X103518390Y-116116180D01*
X103375533Y-116116180D01*
X104899342Y-115449514D02*
X104899342Y-116449514D01*
X104899342Y-115497133D02*
X104994580Y-115449514D01*
X105185057Y-115449514D01*
X105280295Y-115497133D01*
X105327914Y-115544752D01*
X105375533Y-115639990D01*
X105375533Y-115925704D01*
X105327914Y-116020942D01*
X105280295Y-116068561D01*
X105185057Y-116116180D01*
X104994580Y-116116180D01*
X104899342Y-116068561D01*
X105946961Y-116116180D02*
X105851723Y-116068561D01*
X105804104Y-116020942D01*
X105756485Y-115925704D01*
X105756485Y-115639990D01*
X105804104Y-115544752D01*
X105851723Y-115497133D01*
X105946961Y-115449514D01*
X106089819Y-115449514D01*
X106185057Y-115497133D01*
X106232676Y-115544752D01*
X106280295Y-115639990D01*
X106280295Y-115925704D01*
X106232676Y-116020942D01*
X106185057Y-116068561D01*
X106089819Y-116116180D01*
X105946961Y-116116180D01*
X106613628Y-115449514D02*
X106804104Y-116116180D01*
X106994580Y-115639990D01*
X107185057Y-116116180D01*
X107375533Y-115449514D01*
X108137438Y-116068561D02*
X108042199Y-116116180D01*
X107851723Y-116116180D01*
X107756485Y-116068561D01*
X107708866Y-115973323D01*
X107708866Y-115592371D01*
X107756485Y-115497133D01*
X107851723Y-115449514D01*
X108042199Y-115449514D01*
X108137438Y-115497133D01*
X108185057Y-115592371D01*
X108185057Y-115687609D01*
X107708866Y-115782847D01*
X108613628Y-116116180D02*
X108613628Y-115449514D01*
X108613628Y-115639990D02*
X108661247Y-115544752D01*
X108708866Y-115497133D01*
X108804104Y-115449514D01*
X108899342Y-115449514D01*
X109851723Y-115449514D02*
X110232676Y-115449514D01*
X109994580Y-116116180D02*
X109994580Y-115259038D01*
X110042200Y-115163800D01*
X110137438Y-115116180D01*
X110232676Y-115116180D01*
X110566009Y-116116180D02*
X110566009Y-115449514D01*
X110566009Y-115639990D02*
X110613628Y-115544752D01*
X110661247Y-115497133D01*
X110756485Y-115449514D01*
X110851723Y-115449514D01*
X111327914Y-116116180D02*
X111232676Y-116068561D01*
X111185057Y-116020942D01*
X111137438Y-115925704D01*
X111137438Y-115639990D01*
X111185057Y-115544752D01*
X111232676Y-115497133D01*
X111327914Y-115449514D01*
X111470771Y-115449514D01*
X111566009Y-115497133D01*
X111613628Y-115544752D01*
X111661247Y-115639990D01*
X111661247Y-115925704D01*
X111613628Y-116020942D01*
X111566009Y-116068561D01*
X111470771Y-116116180D01*
X111327914Y-116116180D01*
X112089819Y-116116180D02*
X112089819Y-115449514D01*
X112089819Y-115544752D02*
X112137438Y-115497133D01*
X112232676Y-115449514D01*
X112375533Y-115449514D01*
X112470771Y-115497133D01*
X112518390Y-115592371D01*
X112518390Y-116116180D01*
X112518390Y-115592371D02*
X112566009Y-115497133D01*
X112661247Y-115449514D01*
X112804104Y-115449514D01*
X112899342Y-115497133D01*
X112946961Y-115592371D01*
X112946961Y-116116180D01*
X114661247Y-115116180D02*
X114185057Y-115116180D01*
X114137438Y-115592371D01*
X114185057Y-115544752D01*
X114280295Y-115497133D01*
X114518390Y-115497133D01*
X114613628Y-115544752D01*
X114661247Y-115592371D01*
X114708866Y-115687609D01*
X114708866Y-115925704D01*
X114661247Y-116020942D01*
X114613628Y-116068561D01*
X114518390Y-116116180D01*
X114280295Y-116116180D01*
X114185057Y-116068561D01*
X114137438Y-116020942D01*
X115042200Y-115449514D02*
X115280295Y-116116180D01*
X115518390Y-115449514D01*
%TO.C,U1*%
X124547380Y-104856904D02*
X124547380Y-104190238D01*
X125547380Y-104618809D01*
X124880714Y-103380714D02*
X125547380Y-103380714D01*
X124499761Y-103618809D02*
X125214047Y-103856904D01*
X125214047Y-103237857D01*
X125547380Y-102856904D02*
X124547380Y-102856904D01*
X125023571Y-102856904D02*
X125023571Y-102285476D01*
X125547380Y-102285476D02*
X124547380Y-102285476D01*
X125452142Y-101237857D02*
X125499761Y-101285476D01*
X125547380Y-101428333D01*
X125547380Y-101523571D01*
X125499761Y-101666428D01*
X125404523Y-101761666D01*
X125309285Y-101809285D01*
X125118809Y-101856904D01*
X124975952Y-101856904D01*
X124785476Y-101809285D01*
X124690238Y-101761666D01*
X124595000Y-101666428D01*
X124547380Y-101523571D01*
X124547380Y-101428333D01*
X124595000Y-101285476D01*
X124642619Y-101237857D01*
X124642619Y-100856904D02*
X124595000Y-100809285D01*
X124547380Y-100714047D01*
X124547380Y-100475952D01*
X124595000Y-100380714D01*
X124642619Y-100333095D01*
X124737857Y-100285476D01*
X124833095Y-100285476D01*
X124975952Y-100333095D01*
X125547380Y-100904523D01*
X125547380Y-100285476D01*
X124880714Y-99428333D02*
X125547380Y-99428333D01*
X124499761Y-99666428D02*
X125214047Y-99904523D01*
X125214047Y-99285476D01*
X124547380Y-98428333D02*
X124547380Y-98904523D01*
X125023571Y-98952142D01*
X124975952Y-98904523D01*
X124928333Y-98809285D01*
X124928333Y-98571190D01*
X124975952Y-98475952D01*
X125023571Y-98428333D01*
X125118809Y-98380714D01*
X125356904Y-98380714D01*
X125452142Y-98428333D01*
X125499761Y-98475952D01*
X125547380Y-98571190D01*
X125547380Y-98809285D01*
X125499761Y-98904523D01*
X125452142Y-98952142D01*
%TO.C,U2*%
X113107380Y-104856904D02*
X113107380Y-104190238D01*
X114107380Y-104618809D01*
X113440714Y-103380714D02*
X114107380Y-103380714D01*
X113059761Y-103618809D02*
X113774047Y-103856904D01*
X113774047Y-103237857D01*
X114107380Y-102856904D02*
X113107380Y-102856904D01*
X113583571Y-102856904D02*
X113583571Y-102285476D01*
X114107380Y-102285476D02*
X113107380Y-102285476D01*
X114012142Y-101237857D02*
X114059761Y-101285476D01*
X114107380Y-101428333D01*
X114107380Y-101523571D01*
X114059761Y-101666428D01*
X113964523Y-101761666D01*
X113869285Y-101809285D01*
X113678809Y-101856904D01*
X113535952Y-101856904D01*
X113345476Y-101809285D01*
X113250238Y-101761666D01*
X113155000Y-101666428D01*
X113107380Y-101523571D01*
X113107380Y-101428333D01*
X113155000Y-101285476D01*
X113202619Y-101237857D01*
X113202619Y-100856904D02*
X113155000Y-100809285D01*
X113107380Y-100714047D01*
X113107380Y-100475952D01*
X113155000Y-100380714D01*
X113202619Y-100333095D01*
X113297857Y-100285476D01*
X113393095Y-100285476D01*
X113535952Y-100333095D01*
X114107380Y-100904523D01*
X114107380Y-100285476D01*
X113440714Y-99428333D02*
X114107380Y-99428333D01*
X113059761Y-99666428D02*
X113774047Y-99904523D01*
X113774047Y-99285476D01*
X113107380Y-98428333D02*
X113107380Y-98904523D01*
X113583571Y-98952142D01*
X113535952Y-98904523D01*
X113488333Y-98809285D01*
X113488333Y-98571190D01*
X113535952Y-98475952D01*
X113583571Y-98428333D01*
X113678809Y-98380714D01*
X113916904Y-98380714D01*
X114012142Y-98428333D01*
X114059761Y-98475952D01*
X114107380Y-98571190D01*
X114107380Y-98809285D01*
X114059761Y-98904523D01*
X114012142Y-98952142D01*
D11*
%TO.C,J3*%
X101970000Y-128915000D02*
X101210000Y-128915000D01*
X113910000Y-119857929D02*
X113910000Y-120255000D01*
X116550000Y-122915000D02*
X116550000Y-128915000D01*
X96890000Y-128915000D02*
X96130000Y-128915000D01*
X116670000Y-122915000D02*
X116670000Y-128915000D01*
X117210000Y-122915000D02*
X117210000Y-128915000D01*
X103750000Y-119857929D02*
X103750000Y-120255000D01*
X96130000Y-128915000D02*
X96130000Y-122915000D01*
X116910000Y-122915000D02*
X116910000Y-128915000D01*
X105400000Y-120255000D02*
X105400000Y-122915000D01*
X96890000Y-122915000D02*
X96890000Y-128915000D01*
X101210000Y-119857929D02*
X101210000Y-120255000D01*
X109590000Y-128915000D02*
X108830000Y-128915000D01*
X99430000Y-122915000D02*
X99430000Y-128915000D01*
X109590000Y-119857929D02*
X109590000Y-120255000D01*
X118160000Y-122915000D02*
X118160000Y-120255000D01*
X104510000Y-122915000D02*
X104510000Y-128915000D01*
X111370000Y-119857929D02*
X111370000Y-120255000D01*
X106290000Y-128915000D02*
X106290000Y-122915000D01*
X99430000Y-119857929D02*
X99430000Y-120255000D01*
X107050000Y-122915000D02*
X107050000Y-128915000D01*
X98670000Y-119857929D02*
X98670000Y-120255000D01*
X96130000Y-119857929D02*
X96130000Y-120255000D01*
X114670000Y-122915000D02*
X114670000Y-128915000D01*
X112130000Y-119857929D02*
X112130000Y-120255000D01*
X110480000Y-120255000D02*
X110480000Y-122915000D01*
X96890000Y-119857929D02*
X96890000Y-120255000D01*
X112130000Y-128915000D02*
X111370000Y-128915000D01*
X113020000Y-120255000D02*
X113020000Y-122915000D01*
X95180000Y-122915000D02*
X118160000Y-122915000D01*
X101970000Y-122915000D02*
X101970000Y-128915000D01*
X117150000Y-122915000D02*
X117150000Y-128915000D01*
X115560000Y-120255000D02*
X115560000Y-122915000D01*
X101210000Y-128915000D02*
X101210000Y-122915000D01*
X104510000Y-119857929D02*
X104510000Y-120255000D01*
X106290000Y-119857929D02*
X106290000Y-120255000D01*
X116830000Y-117545000D02*
X118100000Y-117545000D01*
X113910000Y-128915000D02*
X113910000Y-122915000D01*
X97780000Y-120255000D02*
X97780000Y-122915000D01*
X100320000Y-120255000D02*
X100320000Y-122915000D01*
X114670000Y-128915000D02*
X113910000Y-128915000D01*
X116450000Y-128915000D02*
X116450000Y-122915000D01*
X101970000Y-119857929D02*
X101970000Y-120255000D01*
X117030000Y-122915000D02*
X117030000Y-128915000D01*
X107050000Y-119857929D02*
X107050000Y-120255000D01*
X104510000Y-128915000D02*
X103750000Y-128915000D01*
X118100000Y-117545000D02*
X118100000Y-118815000D01*
X108830000Y-119857929D02*
X108830000Y-120255000D01*
X108830000Y-128915000D02*
X108830000Y-122915000D01*
X103750000Y-128915000D02*
X103750000Y-122915000D01*
X102860000Y-120255000D02*
X102860000Y-122915000D01*
X117210000Y-128915000D02*
X116450000Y-128915000D01*
X109590000Y-122915000D02*
X109590000Y-128915000D01*
X107050000Y-128915000D02*
X106290000Y-128915000D01*
X107940000Y-120255000D02*
X107940000Y-122915000D01*
X98670000Y-128915000D02*
X98670000Y-122915000D01*
X111370000Y-128915000D02*
X111370000Y-122915000D01*
X99430000Y-128915000D02*
X98670000Y-128915000D01*
X112130000Y-122915000D02*
X112130000Y-128915000D01*
X95180000Y-120255000D02*
X95180000Y-122915000D01*
X117210000Y-119925000D02*
X117210000Y-120255000D01*
X114670000Y-119857929D02*
X114670000Y-120255000D01*
X118160000Y-120255000D02*
X95180000Y-120255000D01*
X116450000Y-119925000D02*
X116450000Y-120255000D01*
X116790000Y-122915000D02*
X116790000Y-128915000D01*
%TO.C,J2*%
X129150000Y-119857929D02*
X129150000Y-120255000D01*
X134990000Y-122915000D02*
X134990000Y-128915000D01*
X126610000Y-119857929D02*
X126610000Y-120255000D01*
X139310000Y-119925000D02*
X139310000Y-120255000D01*
X118990000Y-128915000D02*
X118990000Y-122915000D01*
X123180000Y-120255000D02*
X123180000Y-122915000D01*
X118990000Y-119857929D02*
X118990000Y-120255000D01*
X134990000Y-119857929D02*
X134990000Y-120255000D01*
X118040000Y-122915000D02*
X141020000Y-122915000D01*
X129910000Y-128915000D02*
X129150000Y-128915000D01*
X121530000Y-119857929D02*
X121530000Y-120255000D01*
X129910000Y-122915000D02*
X129910000Y-128915000D01*
X130800000Y-120255000D02*
X130800000Y-122915000D01*
X139530000Y-122915000D02*
X139530000Y-128915000D01*
X141020000Y-122915000D02*
X141020000Y-120255000D01*
X140070000Y-119925000D02*
X140070000Y-120255000D01*
X134230000Y-128915000D02*
X134230000Y-122915000D01*
X127370000Y-119857929D02*
X127370000Y-120255000D01*
X141020000Y-120255000D02*
X118040000Y-120255000D01*
X119750000Y-119857929D02*
X119750000Y-120255000D01*
X124070000Y-128915000D02*
X124070000Y-122915000D01*
X136770000Y-128915000D02*
X136770000Y-122915000D01*
X139310000Y-128915000D02*
X139310000Y-122915000D01*
X139650000Y-122915000D02*
X139650000Y-128915000D01*
X118040000Y-120255000D02*
X118040000Y-122915000D01*
X127370000Y-122915000D02*
X127370000Y-128915000D01*
X124070000Y-119857929D02*
X124070000Y-120255000D01*
X121530000Y-128915000D02*
X121530000Y-122915000D01*
X134990000Y-128915000D02*
X134230000Y-128915000D01*
X125720000Y-120255000D02*
X125720000Y-122915000D01*
X122290000Y-122915000D02*
X122290000Y-128915000D01*
X128260000Y-120255000D02*
X128260000Y-122915000D01*
X124830000Y-122915000D02*
X124830000Y-128915000D01*
X139890000Y-122915000D02*
X139890000Y-128915000D01*
X129150000Y-128915000D02*
X129150000Y-122915000D01*
X134230000Y-119857929D02*
X134230000Y-120255000D01*
X129910000Y-119857929D02*
X129910000Y-120255000D01*
X124830000Y-128915000D02*
X124070000Y-128915000D01*
X135880000Y-120255000D02*
X135880000Y-122915000D01*
X139410000Y-122915000D02*
X139410000Y-128915000D01*
X131690000Y-119857929D02*
X131690000Y-120255000D01*
X133340000Y-120255000D02*
X133340000Y-122915000D01*
X119750000Y-122915000D02*
X119750000Y-128915000D01*
X124830000Y-119857929D02*
X124830000Y-120255000D01*
X137530000Y-119857929D02*
X137530000Y-120255000D01*
X131690000Y-128915000D02*
X131690000Y-122915000D01*
X140070000Y-128915000D02*
X139310000Y-128915000D01*
X132450000Y-122915000D02*
X132450000Y-128915000D01*
X140960000Y-117545000D02*
X140960000Y-118815000D01*
X132450000Y-128915000D02*
X131690000Y-128915000D01*
X132450000Y-119857929D02*
X132450000Y-120255000D01*
X137530000Y-128915000D02*
X136770000Y-128915000D01*
X140010000Y-122915000D02*
X140010000Y-128915000D01*
X138420000Y-120255000D02*
X138420000Y-122915000D01*
X140070000Y-122915000D02*
X140070000Y-128915000D01*
X137530000Y-122915000D02*
X137530000Y-128915000D01*
X139690000Y-117545000D02*
X140960000Y-117545000D01*
X127370000Y-128915000D02*
X126610000Y-128915000D01*
X139770000Y-122915000D02*
X139770000Y-128915000D01*
X122290000Y-128915000D02*
X121530000Y-128915000D01*
X136770000Y-119857929D02*
X136770000Y-120255000D01*
X120640000Y-120255000D02*
X120640000Y-122915000D01*
X122290000Y-119857929D02*
X122290000Y-120255000D01*
X126610000Y-128915000D02*
X126610000Y-122915000D01*
X119750000Y-128915000D02*
X118990000Y-128915000D01*
%TO.C,U1*%
X126085000Y-113085000D02*
X127735000Y-113085000D01*
X122435000Y-113085000D02*
X124085000Y-113085000D01*
X127735000Y-87565000D02*
X122435000Y-87565000D01*
X122435000Y-87565000D02*
X122435000Y-113085000D01*
X127735000Y-113085000D02*
X127735000Y-87565000D01*
X126085000Y-113085000D02*
G75*
G03*
X124085000Y-113085000I-1000000J0D01*
G01*
%TO.C,J1*%
X102810000Y-113090000D02*
X108010000Y-113090000D01*
X102810000Y-90170000D02*
X102810000Y-113090000D01*
X105410000Y-87570000D02*
X108010000Y-87570000D01*
X105410000Y-90170000D02*
X105410000Y-87570000D01*
X102810000Y-90170000D02*
X105410000Y-90170000D01*
X102810000Y-87570000D02*
X104140000Y-87570000D01*
X108010000Y-87570000D02*
X108010000Y-113090000D01*
X102810000Y-88900000D02*
X102810000Y-87570000D01*
%TO.C,J4*%
X130750000Y-90170000D02*
X133350000Y-90170000D01*
X130750000Y-88900000D02*
X130750000Y-87570000D01*
X130750000Y-90170000D02*
X130750000Y-113090000D01*
X130750000Y-113090000D02*
X135950000Y-113090000D01*
X135950000Y-87570000D02*
X135950000Y-113090000D01*
X133350000Y-87570000D02*
X135950000Y-87570000D01*
X130750000Y-87570000D02*
X132080000Y-87570000D01*
X133350000Y-90170000D02*
X133350000Y-87570000D01*
%TO.C,U2*%
X111005000Y-113085000D02*
X112655000Y-113085000D01*
X116305000Y-87565000D02*
X111005000Y-87565000D01*
X111005000Y-87565000D02*
X111005000Y-113085000D01*
X114655000Y-113085000D02*
X116305000Y-113085000D01*
X116305000Y-113085000D02*
X116305000Y-87565000D01*
X114655000Y-113085000D02*
G75*
G03*
X112655000Y-113085000I-1000000J0D01*
G01*
%TO.C,G\u002A\u002A\u002A*%
G36*
X110789851Y-85138937D02*
G01*
X111236045Y-85139347D01*
X111275109Y-85188643D01*
X111296761Y-85215886D01*
X111315967Y-85239910D01*
X111328563Y-85255508D01*
X111339677Y-85269210D01*
X111358948Y-85293100D01*
X111384440Y-85324769D01*
X111414218Y-85361806D01*
X111446347Y-85401801D01*
X111478893Y-85442344D01*
X111509921Y-85481025D01*
X111537496Y-85515434D01*
X111559683Y-85543160D01*
X111574546Y-85561794D01*
X111579957Y-85568656D01*
X111575564Y-85576835D01*
X111559443Y-85596309D01*
X111532334Y-85626294D01*
X111494979Y-85666004D01*
X111448120Y-85714655D01*
X111392497Y-85771463D01*
X111328853Y-85835643D01*
X111307186Y-85857337D01*
X111027517Y-86136908D01*
X110875698Y-86014599D01*
X110830722Y-85978347D01*
X110789453Y-85945046D01*
X110754106Y-85916486D01*
X110726894Y-85894456D01*
X110710031Y-85880745D01*
X110706486Y-85877832D01*
X110692308Y-85866249D01*
X110668512Y-85847016D01*
X110639048Y-85823318D01*
X110621447Y-85809208D01*
X110553800Y-85755045D01*
X110478244Y-85793326D01*
X110438314Y-85813184D01*
X110397380Y-85832928D01*
X110362401Y-85849220D01*
X110352620Y-85853591D01*
X110302551Y-85875575D01*
X110045807Y-85619269D01*
X109991077Y-85564448D01*
X109940522Y-85513451D01*
X109895395Y-85467568D01*
X109856946Y-85428090D01*
X109826430Y-85396304D01*
X109805097Y-85373503D01*
X109794202Y-85360976D01*
X109793069Y-85358957D01*
X109803087Y-85355624D01*
X109825311Y-85350860D01*
X109852479Y-85346102D01*
X109981793Y-85316751D01*
X110108978Y-85270530D01*
X110232833Y-85207905D01*
X110277685Y-85180601D01*
X110343658Y-85138526D01*
X110789851Y-85138937D01*
G37*
G36*
X109137279Y-83878170D02*
G01*
X109182715Y-83799627D01*
X109242503Y-83725349D01*
X109261165Y-83705742D01*
X109334427Y-83640793D01*
X109412791Y-83590972D01*
X109499882Y-83554108D01*
X109530193Y-83544691D01*
X109568688Y-83534276D01*
X109600079Y-83527919D01*
X109630698Y-83524961D01*
X109666880Y-83524736D01*
X109706894Y-83526209D01*
X109782880Y-83533002D01*
X109847980Y-83546862D01*
X109907805Y-83569449D01*
X109967967Y-83602419D01*
X109970836Y-83604214D01*
X110036265Y-83655327D01*
X110092104Y-83719467D01*
X110136766Y-83794253D01*
X110168660Y-83877304D01*
X110177962Y-83914534D01*
X110184473Y-83957089D01*
X110187966Y-84005630D01*
X110188575Y-84055999D01*
X110186433Y-84104038D01*
X110181676Y-84145590D01*
X110174436Y-84176497D01*
X110169155Y-84187905D01*
X110154886Y-84209681D01*
X109356653Y-84209681D01*
X109356958Y-84246575D01*
X109365473Y-84329333D01*
X109388801Y-84406712D01*
X109425717Y-84476660D01*
X109474997Y-84537123D01*
X109535417Y-84586049D01*
X109571720Y-84606690D01*
X109600196Y-84620478D01*
X109622578Y-84629715D01*
X109643626Y-84635312D01*
X109668102Y-84638181D01*
X109700766Y-84639233D01*
X109742485Y-84639380D01*
X109788302Y-84639056D01*
X109821314Y-84637620D01*
X109846074Y-84634375D01*
X109867132Y-84628626D01*
X109889042Y-84619676D01*
X109897823Y-84615626D01*
X109933829Y-84595771D01*
X109975547Y-84568265D01*
X110017252Y-84537290D01*
X110053218Y-84507027D01*
X110071994Y-84488417D01*
X110089653Y-84474128D01*
X110108174Y-84472219D01*
X110130819Y-84483277D01*
X110156009Y-84503542D01*
X110193688Y-84536979D01*
X110163636Y-84586656D01*
X110105296Y-84667246D01*
X110035821Y-84735289D01*
X109956535Y-84789702D01*
X109868765Y-84829405D01*
X109864149Y-84830994D01*
X109828136Y-84842109D01*
X109794476Y-84849480D01*
X109757296Y-84853992D01*
X109710725Y-84856533D01*
X109690864Y-84857126D01*
X109644901Y-84857519D01*
X109600501Y-84856520D01*
X109563241Y-84854331D01*
X109541748Y-84851755D01*
X109470783Y-84833088D01*
X109397202Y-84803187D01*
X109328305Y-84765074D01*
X109321532Y-84760647D01*
X109252631Y-84704628D01*
X109193871Y-84635762D01*
X109145809Y-84555683D01*
X109109004Y-84466020D01*
X109084015Y-84368408D01*
X109071401Y-84264477D01*
X109071720Y-84155859D01*
X109082405Y-84062108D01*
X109084364Y-84053427D01*
X109356323Y-84053427D01*
X109593040Y-84053378D01*
X109659261Y-84053044D01*
X109720283Y-84052122D01*
X109773609Y-84050695D01*
X109816743Y-84048846D01*
X109847187Y-84046656D01*
X109861417Y-84044536D01*
X109892990Y-84029391D01*
X109913198Y-84003702D01*
X109923029Y-83965768D01*
X109924357Y-83936236D01*
X109915383Y-83874517D01*
X109890721Y-83817158D01*
X109851932Y-83766575D01*
X109800582Y-83725184D01*
X109780202Y-83713458D01*
X109734930Y-83697932D01*
X109681564Y-83692305D01*
X109626186Y-83696451D01*
X109574878Y-83710245D01*
X109557564Y-83718067D01*
X109500367Y-83756970D01*
X109450513Y-83809330D01*
X109410278Y-83871999D01*
X109381941Y-83941827D01*
X109374411Y-83971233D01*
X109368080Y-84000636D01*
X109362573Y-84025802D01*
X109360762Y-84033895D01*
X109356323Y-84053427D01*
X109084364Y-84053427D01*
X109104430Y-83964491D01*
X109137279Y-83878170D01*
G37*
G36*
X108504135Y-84347527D02*
G01*
X108509214Y-84366466D01*
X108510258Y-84372446D01*
X108538390Y-84504415D01*
X108580031Y-84630660D01*
X108634055Y-84748138D01*
X108675990Y-84819462D01*
X108714275Y-84878644D01*
X108714275Y-85787787D01*
X108685634Y-85812558D01*
X108660352Y-85833902D01*
X108631604Y-85857459D01*
X108622698Y-85864595D01*
X108605501Y-85878331D01*
X108577425Y-85900827D01*
X108541117Y-85929961D01*
X108499224Y-85963607D01*
X108454393Y-85999643D01*
X108445170Y-86007060D01*
X108402103Y-86041679D01*
X108363348Y-86072793D01*
X108331045Y-86098690D01*
X108307329Y-86117657D01*
X108294339Y-86127981D01*
X108292826Y-86129157D01*
X108284647Y-86124764D01*
X108265172Y-86108643D01*
X108235188Y-86081534D01*
X108195478Y-86044179D01*
X108146826Y-85997320D01*
X108090018Y-85941697D01*
X108025838Y-85878053D01*
X108004144Y-85856386D01*
X107724574Y-85576717D01*
X107846882Y-85424898D01*
X107883135Y-85379922D01*
X107916436Y-85338653D01*
X107944996Y-85303306D01*
X107967026Y-85276094D01*
X107980736Y-85259231D01*
X107983650Y-85255686D01*
X107995233Y-85241508D01*
X108014466Y-85217712D01*
X108038163Y-85188248D01*
X108052273Y-85170647D01*
X108106437Y-85103000D01*
X108068155Y-85027444D01*
X108048161Y-84987217D01*
X108028156Y-84945696D01*
X108011546Y-84909989D01*
X108007164Y-84900176D01*
X107984453Y-84848463D01*
X108238629Y-84594178D01*
X108293354Y-84539573D01*
X108344331Y-84488987D01*
X108390245Y-84443702D01*
X108429785Y-84404999D01*
X108461636Y-84374163D01*
X108484487Y-84352474D01*
X108497024Y-84341216D01*
X108498977Y-84339893D01*
X108504135Y-84347527D01*
G37*
G36*
X111479943Y-83753576D02*
G01*
X111509768Y-83756882D01*
X111550941Y-83761542D01*
X111597570Y-83766885D01*
X111635362Y-83771261D01*
X111689068Y-83777358D01*
X111748855Y-83783902D01*
X111805769Y-83789922D01*
X111835020Y-83792900D01*
X111877685Y-83797287D01*
X111917318Y-83801603D01*
X111948667Y-83805265D01*
X111963061Y-83807152D01*
X111995614Y-83811891D01*
X111995614Y-84598791D01*
X111963061Y-84603529D01*
X111940830Y-84606364D01*
X111906568Y-84610266D01*
X111865527Y-84614654D01*
X111835020Y-84617757D01*
X111783112Y-84623149D01*
X111723464Y-84629705D01*
X111665553Y-84636369D01*
X111639702Y-84639475D01*
X111589643Y-84645273D01*
X111536169Y-84650928D01*
X111487204Y-84655622D01*
X111463162Y-84657648D01*
X111427211Y-84661436D01*
X111400059Y-84666262D01*
X111385336Y-84671413D01*
X111383783Y-84673188D01*
X111374036Y-84705643D01*
X111360343Y-84747966D01*
X111344854Y-84793770D01*
X111329717Y-84836666D01*
X111319956Y-84862911D01*
X111297403Y-84921506D01*
X110934684Y-84921506D01*
X110857227Y-84921415D01*
X110785425Y-84921156D01*
X110721078Y-84920748D01*
X110665983Y-84920211D01*
X110621937Y-84919563D01*
X110590740Y-84918825D01*
X110574187Y-84918016D01*
X110571964Y-84917582D01*
X110576586Y-84909113D01*
X110588832Y-84890212D01*
X110606274Y-84864602D01*
X110610542Y-84858471D01*
X110656705Y-84785605D01*
X110699666Y-84705100D01*
X110734820Y-84625711D01*
X110739545Y-84613338D01*
X110753114Y-84574143D01*
X110766679Y-84530289D01*
X110779074Y-84486114D01*
X110789137Y-84445955D01*
X110795703Y-84414149D01*
X110797665Y-84396809D01*
X110803801Y-84385983D01*
X110822243Y-84363569D01*
X110853042Y-84329513D01*
X110896250Y-84283761D01*
X110951918Y-84226258D01*
X111020098Y-84156950D01*
X111100841Y-84075783D01*
X111113179Y-84063442D01*
X111428694Y-83748016D01*
X111479943Y-83753576D01*
G37*
G36*
X111307186Y-82553344D02*
G01*
X111373212Y-82619691D01*
X111431450Y-82678914D01*
X111481159Y-82730228D01*
X111521598Y-82772850D01*
X111552026Y-82805993D01*
X111571701Y-82828875D01*
X111579881Y-82840709D01*
X111579957Y-82842026D01*
X111572359Y-82851655D01*
X111555829Y-82872371D01*
X111532323Y-82901735D01*
X111503799Y-82937313D01*
X111472213Y-82976668D01*
X111439523Y-83017363D01*
X111407685Y-83056962D01*
X111378657Y-83093029D01*
X111354395Y-83123128D01*
X111336856Y-83144821D01*
X111328563Y-83154995D01*
X111317005Y-83169179D01*
X111297796Y-83192974D01*
X111274122Y-83222426D01*
X111260103Y-83239917D01*
X111206034Y-83307447D01*
X111252528Y-83400481D01*
X111272111Y-83440476D01*
X111289817Y-83478103D01*
X111303541Y-83508804D01*
X111310610Y-83526341D01*
X111322197Y-83559166D01*
X111070838Y-83810637D01*
X111016443Y-83864923D01*
X110965823Y-83915185D01*
X110920296Y-83960133D01*
X110881181Y-83998478D01*
X110849793Y-84028931D01*
X110827452Y-84050202D01*
X110815474Y-84061003D01*
X110813841Y-84062108D01*
X110806318Y-84055224D01*
X110802934Y-84048376D01*
X110798558Y-84028365D01*
X110797665Y-84015288D01*
X110794987Y-83993138D01*
X110787734Y-83958975D01*
X110777075Y-83917170D01*
X110764181Y-83872092D01*
X110750220Y-83828113D01*
X110739329Y-83797343D01*
X110708899Y-83723207D01*
X110675324Y-83656571D01*
X110635788Y-83590904D01*
X110598007Y-83532038D01*
X110598007Y-82622895D01*
X110626647Y-82598123D01*
X110651912Y-82576779D01*
X110680646Y-82553197D01*
X110689583Y-82546018D01*
X110706458Y-82532504D01*
X110734317Y-82510119D01*
X110770634Y-82480896D01*
X110812881Y-82446870D01*
X110858533Y-82410073D01*
X110875698Y-82396230D01*
X111027517Y-82273774D01*
X111307186Y-82553344D01*
G37*
G36*
X108477445Y-83480591D02*
G01*
X108553480Y-83480906D01*
X108614701Y-83481478D01*
X108662382Y-83482346D01*
X108697796Y-83483548D01*
X108722216Y-83485123D01*
X108736917Y-83487110D01*
X108743171Y-83489546D01*
X108743338Y-83491346D01*
X108735293Y-83503492D01*
X108720363Y-83525321D01*
X108701643Y-83552311D01*
X108699908Y-83554796D01*
X108656158Y-83623943D01*
X108614661Y-83701439D01*
X108580055Y-83778436D01*
X108572736Y-83797343D01*
X108560363Y-83833061D01*
X108547492Y-83874303D01*
X108535304Y-83916759D01*
X108524980Y-83956119D01*
X108517700Y-83988073D01*
X108514644Y-84008311D01*
X108514616Y-84009532D01*
X108508596Y-84019052D01*
X108491474Y-84039154D01*
X108464662Y-84068439D01*
X108429572Y-84105505D01*
X108387613Y-84148954D01*
X108340196Y-84197385D01*
X108288734Y-84249400D01*
X108234636Y-84303597D01*
X108179313Y-84358578D01*
X108124177Y-84412943D01*
X108070638Y-84465292D01*
X108020107Y-84514225D01*
X107973996Y-84558343D01*
X107933714Y-84596246D01*
X107900674Y-84626534D01*
X107876285Y-84647807D01*
X107861959Y-84658666D01*
X107859173Y-84659782D01*
X107837574Y-84657805D01*
X107815813Y-84655464D01*
X107737879Y-84646458D01*
X107674292Y-84639164D01*
X107622157Y-84633261D01*
X107578579Y-84628427D01*
X107540664Y-84624340D01*
X107505516Y-84620678D01*
X107477262Y-84617820D01*
X107434597Y-84613417D01*
X107394965Y-84609088D01*
X107363616Y-84605419D01*
X107349220Y-84603529D01*
X107316667Y-84598791D01*
X107316667Y-83811891D01*
X107349220Y-83807152D01*
X107371451Y-83804318D01*
X107405714Y-83800415D01*
X107446754Y-83796027D01*
X107477262Y-83792925D01*
X107529169Y-83787532D01*
X107588818Y-83780977D01*
X107646729Y-83774313D01*
X107672580Y-83771207D01*
X107722638Y-83765408D01*
X107776112Y-83759754D01*
X107825077Y-83755060D01*
X107849120Y-83753034D01*
X107885089Y-83749244D01*
X107912235Y-83744417D01*
X107926936Y-83739264D01*
X107928477Y-83737493D01*
X107936228Y-83711768D01*
X107947849Y-83675974D01*
X107961695Y-83634887D01*
X107976118Y-83593284D01*
X107989474Y-83555942D01*
X108000115Y-83527637D01*
X108004331Y-83517388D01*
X108020624Y-83480495D01*
X108385323Y-83480495D01*
X108477445Y-83480591D01*
G37*
G36*
X108337839Y-82315436D02*
G01*
X108359545Y-82332380D01*
X108391724Y-82357852D01*
X108431437Y-82389493D01*
X108475747Y-82424943D01*
X108521715Y-82461845D01*
X108566403Y-82497837D01*
X108606874Y-82530561D01*
X108640189Y-82557657D01*
X108663409Y-82576766D01*
X108666460Y-82579318D01*
X108683177Y-82592992D01*
X108707050Y-82612099D01*
X108722681Y-82624454D01*
X108761470Y-82654942D01*
X108822510Y-82621960D01*
X108862363Y-82601444D01*
X108908424Y-82579224D01*
X108950794Y-82560075D01*
X108951206Y-82559898D01*
X109018862Y-82530817D01*
X109274565Y-82786411D01*
X109329325Y-82841287D01*
X109380071Y-82892411D01*
X109425523Y-82938474D01*
X109464403Y-82978168D01*
X109495432Y-83010185D01*
X109517333Y-83033216D01*
X109528825Y-83045953D01*
X109530269Y-83048038D01*
X109522516Y-83052601D01*
X109502783Y-83057453D01*
X109489035Y-83059664D01*
X109453107Y-83066141D01*
X109406534Y-83076772D01*
X109355079Y-83090030D01*
X109304502Y-83104387D01*
X109260565Y-83118316D01*
X109240440Y-83125578D01*
X109188697Y-83147823D01*
X109130951Y-83176198D01*
X109074839Y-83206761D01*
X109030225Y-83234083D01*
X108985923Y-83263475D01*
X108065212Y-83263475D01*
X108051790Y-83242991D01*
X108037397Y-83223040D01*
X108026757Y-83210438D01*
X108017449Y-83199665D01*
X107999524Y-83178006D01*
X107975183Y-83148155D01*
X107946628Y-83112803D01*
X107931695Y-83094199D01*
X107898381Y-83052657D01*
X107864864Y-83010937D01*
X107834502Y-82973214D01*
X107810653Y-82943662D01*
X107805427Y-82937208D01*
X107781944Y-82907827D01*
X107760327Y-82880078D01*
X107744985Y-82859627D01*
X107744174Y-82858494D01*
X107725737Y-82832602D01*
X108284575Y-82274540D01*
X108337839Y-82315436D01*
G37*
G36*
X110054329Y-81898420D02*
G01*
X110057164Y-81920651D01*
X110061066Y-81954914D01*
X110065454Y-81995954D01*
X110068557Y-82026462D01*
X110073949Y-82078369D01*
X110080505Y-82138018D01*
X110087169Y-82195929D01*
X110090275Y-82221780D01*
X110096073Y-82271838D01*
X110101728Y-82325312D01*
X110106422Y-82374277D01*
X110108448Y-82398320D01*
X110112238Y-82434289D01*
X110117064Y-82461435D01*
X110122218Y-82476136D01*
X110123988Y-82477677D01*
X110149713Y-82485428D01*
X110185508Y-82497049D01*
X110226594Y-82510895D01*
X110268197Y-82525318D01*
X110305539Y-82538674D01*
X110333844Y-82549315D01*
X110344094Y-82553531D01*
X110380987Y-82569824D01*
X110380987Y-82934011D01*
X110380937Y-83011622D01*
X110380794Y-83083574D01*
X110380570Y-83148074D01*
X110380273Y-83203329D01*
X110379917Y-83247546D01*
X110379510Y-83278930D01*
X110379064Y-83295690D01*
X110378817Y-83298030D01*
X110371235Y-83293347D01*
X110352592Y-83280881D01*
X110326070Y-83262776D01*
X110307200Y-83249755D01*
X110191110Y-83179675D01*
X110065506Y-83123275D01*
X109932793Y-83081608D01*
X109912224Y-83076648D01*
X109847118Y-83061563D01*
X109523744Y-82739359D01*
X109200369Y-82417154D01*
X109205219Y-82373722D01*
X109208197Y-82347377D01*
X109212554Y-82309232D01*
X109217668Y-82264732D01*
X109222127Y-82226120D01*
X109228196Y-82172411D01*
X109234718Y-82112621D01*
X109240725Y-82055705D01*
X109243700Y-82026462D01*
X109248087Y-81983796D01*
X109252403Y-81944163D01*
X109256065Y-81912815D01*
X109257952Y-81898420D01*
X109262691Y-81865867D01*
X110049591Y-81865867D01*
X110054329Y-81898420D01*
G37*
G36*
X108954292Y-85126189D02*
G01*
X108976121Y-85141119D01*
X109003111Y-85159838D01*
X109005596Y-85161574D01*
X109074743Y-85205323D01*
X109152239Y-85246821D01*
X109229236Y-85281426D01*
X109248143Y-85288745D01*
X109283861Y-85301119D01*
X109325103Y-85313990D01*
X109367559Y-85326177D01*
X109406919Y-85336502D01*
X109438873Y-85343782D01*
X109459111Y-85346837D01*
X109460332Y-85346865D01*
X109468924Y-85352842D01*
X109488536Y-85370008D01*
X109517974Y-85397216D01*
X109556040Y-85433318D01*
X109601540Y-85477168D01*
X109653277Y-85527618D01*
X109710055Y-85583520D01*
X109770680Y-85643728D01*
X109793420Y-85666441D01*
X110112908Y-85986016D01*
X110107561Y-86033204D01*
X110104365Y-86061214D01*
X110099818Y-86100812D01*
X110094572Y-86146338D01*
X110090154Y-86184562D01*
X110084085Y-86238271D01*
X110077564Y-86298060D01*
X110071556Y-86354977D01*
X110068582Y-86384220D01*
X110064194Y-86426885D01*
X110059878Y-86466518D01*
X110056217Y-86497867D01*
X110054329Y-86512261D01*
X110049591Y-86544814D01*
X109262691Y-86544814D01*
X109257952Y-86512261D01*
X109255118Y-86490030D01*
X109251215Y-86455768D01*
X109246827Y-86414727D01*
X109243725Y-86384220D01*
X109238332Y-86332312D01*
X109231777Y-86272664D01*
X109225113Y-86214753D01*
X109222007Y-86188902D01*
X109216208Y-86138843D01*
X109210554Y-86085369D01*
X109205860Y-86036404D01*
X109203834Y-86012362D01*
X109200044Y-85976393D01*
X109195217Y-85949247D01*
X109190064Y-85934545D01*
X109188293Y-85933004D01*
X109162568Y-85925254D01*
X109126774Y-85913632D01*
X109085687Y-85899787D01*
X109044084Y-85885363D01*
X109006742Y-85872008D01*
X108978437Y-85861367D01*
X108968188Y-85857151D01*
X108931295Y-85840858D01*
X108931295Y-85476158D01*
X108931391Y-85384036D01*
X108931706Y-85308002D01*
X108932278Y-85246781D01*
X108933146Y-85199100D01*
X108934348Y-85163686D01*
X108935923Y-85139265D01*
X108937910Y-85124565D01*
X108940346Y-85118310D01*
X108942146Y-85118143D01*
X108954292Y-85126189D01*
G37*
%TD*%
%LPC*%
D12*
%TO.C,J3*%
X116830000Y-118815000D03*
D13*
X114290000Y-118815000D03*
X111750000Y-118815000D03*
X109210000Y-118815000D03*
X106670000Y-118815000D03*
X104130000Y-118815000D03*
X101590000Y-118815000D03*
X99050000Y-118815000D03*
X96510000Y-118815000D03*
%TD*%
D14*
%TO.C,REF\u002A\u002A*%
X102760000Y-71360000D03*
%TD*%
D12*
%TO.C,J2*%
X139690000Y-118815000D03*
D13*
X137150000Y-118815000D03*
X134610000Y-118815000D03*
X132070000Y-118815000D03*
X129530000Y-118815000D03*
X126990000Y-118815000D03*
X124450000Y-118815000D03*
X121910000Y-118815000D03*
X119370000Y-118815000D03*
%TD*%
D14*
%TO.C,REF\u002A\u002A*%
X136000000Y-71360000D03*
%TD*%
D15*
%TO.C,U1*%
X128895000Y-111755000D03*
D16*
X128895000Y-109215000D03*
X128895000Y-106675000D03*
X128895000Y-104135000D03*
X128895000Y-101595000D03*
X128895000Y-99055000D03*
X128895000Y-96515000D03*
X128895000Y-93975000D03*
X128895000Y-91435000D03*
X128895000Y-88895000D03*
X121275000Y-88895000D03*
X121275000Y-91435000D03*
X121275000Y-93975000D03*
X121275000Y-96515000D03*
X121275000Y-99055000D03*
X121275000Y-101595000D03*
X121275000Y-104135000D03*
X121275000Y-106675000D03*
X121275000Y-109215000D03*
X121275000Y-111755000D03*
%TD*%
D12*
%TO.C,J1*%
X104140000Y-88900000D03*
D13*
X106680000Y-88900000D03*
X104140000Y-91440000D03*
X106680000Y-91440000D03*
X104140000Y-93980000D03*
X106680000Y-93980000D03*
X104140000Y-96520000D03*
X106680000Y-96520000D03*
X104140000Y-99060000D03*
X106680000Y-99060000D03*
X104140000Y-101600000D03*
X106680000Y-101600000D03*
X104140000Y-104140000D03*
X106680000Y-104140000D03*
X104140000Y-106680000D03*
X106680000Y-106680000D03*
X104140000Y-109220000D03*
X106680000Y-109220000D03*
X104140000Y-111760000D03*
X106680000Y-111760000D03*
%TD*%
D12*
%TO.C,J4*%
X132080000Y-88900000D03*
D13*
X134620000Y-88900000D03*
X132080000Y-91440000D03*
X134620000Y-91440000D03*
X132080000Y-93980000D03*
X134620000Y-93980000D03*
X132080000Y-96520000D03*
X134620000Y-96520000D03*
X132080000Y-99060000D03*
X134620000Y-99060000D03*
X132080000Y-101600000D03*
X134620000Y-101600000D03*
X132080000Y-104140000D03*
X134620000Y-104140000D03*
X132080000Y-106680000D03*
X134620000Y-106680000D03*
X132080000Y-109220000D03*
X134620000Y-109220000D03*
X132080000Y-111760000D03*
X134620000Y-111760000D03*
%TD*%
D15*
%TO.C,U2*%
X117465000Y-111755000D03*
D16*
X117465000Y-109215000D03*
X117465000Y-106675000D03*
X117465000Y-104135000D03*
X117465000Y-101595000D03*
X117465000Y-99055000D03*
X117465000Y-96515000D03*
X117465000Y-93975000D03*
X117465000Y-91435000D03*
X117465000Y-88895000D03*
X109845000Y-88895000D03*
X109845000Y-91435000D03*
X109845000Y-93975000D03*
X109845000Y-96515000D03*
X109845000Y-99055000D03*
X109845000Y-101595000D03*
X109845000Y-104135000D03*
X109845000Y-106675000D03*
X109845000Y-109215000D03*
X109845000Y-111755000D03*
%TD*%
M02*
